<?xml version="1.0" standalone="no"?>
<!DOCTYPE svg PUBLIC "-//W3C//DTD SVG 20010904//EN"
 "http://www.w3.org/TR/2001/REC-SVG-20010904/DTD/svg10.dtd">
<svg version="1.0" xmlns="http://www.w3.org/2000/svg"
 width="1536.000000pt" height="990.000000pt" viewBox="0 0 1536.000000 990.000000"
 preserveAspectRatio="xMidYMid meet">
<metadata>
Created by potrace 1.16, written by Peter Selinger 2001-2019
</metadata>
<g transform="translate(0.000000,990.000000) scale(0.100000,-0.100000)"
fill="#000000" stroke="none">
<path d="M10085 9890 c-200 -23 -388 -69 -715 -175 -384 -124 -636 -177 -905
-190 -66 -3 -471 -12 -900 -21 -859 -17 -890 -16 -1496 48 -163 17 -297 -3
-499 -72 -211 -72 -247 -70 -362 21 -28 22 -65 41 -86 44 -20 4 -59 17 -87 30
-27 13 -68 29 -90 35 -22 7 -71 26 -109 42 -92 40 -158 36 -272 -15 -43 -20
-117 -50 -164 -67 -116 -42 -329 -148 -418 -208 -71 -47 -227 -171 -374 -296
-39 -32 -111 -105 -161 -162 -103 -117 -157 -152 -313 -203 -133 -43 -172 -61
-244 -107 -36 -23 -96 -57 -135 -77 -38 -19 -105 -60 -147 -91 -99 -71 -136
-89 -226 -111 -87 -21 -138 -54 -202 -128 -42 -49 -51 -69 -78 -169 -73 -270
-101 -367 -121 -420 -24 -66 -67 -266 -111 -518 -17 -96 -46 -240 -65 -320
-19 -80 -48 -226 -64 -325 -31 -187 -46 -266 -105 -550 -19 -93 -38 -208 -42
-255 -3 -47 -18 -123 -32 -170 -22 -71 -26 -102 -24 -187 2 -79 -3 -124 -23
-205 -30 -122 -30 -131 -9 -196 16 -48 16 -54 -5 -129 -11 -44 -21 -91 -21
-106 0 -30 19 -77 32 -77 15 0 8 -27 -11 -44 -17 -16 -19 -27 -14 -89 4 -55
10 -76 25 -89 20 -17 19 -18 -6 -30 -26 -11 -26 -14 -20 -72 4 -34 11 -69 16
-80 7 -13 6 -21 -3 -26 -15 -10 -13 -111 3 -121 6 -4 7 -12 2 -20 -5 -8 -9
-102 -10 -209 -1 -107 -4 -202 -7 -210 -3 -8 -8 -62 -11 -120 -3 -58 -15 -172
-26 -254 -11 -82 -20 -166 -20 -188 0 -22 -5 -48 -11 -59 -6 -12 -15 -66 -21
-122 -5 -56 -16 -113 -23 -127 -7 -14 -15 -49 -19 -79 -4 -30 -14 -67 -22 -82
-7 -15 -14 -39 -14 -52 0 -13 -11 -57 -25 -97 -14 -40 -25 -85 -25 -99 0 -40
-112 -290 -182 -407 -121 -202 -319 -446 -548 -674 -144 -144 -241 -222 -391
-315 -125 -77 -158 -120 -145 -189 6 -33 7 -34 36 -23 28 11 33 9 80 -38 45
-44 54 -49 102 -52 29 -1 86 -10 126 -20 l74 -17 51 59 c67 76 227 215 247
215 9 0 40 22 70 50 29 27 66 52 82 55 18 4 34 18 44 37 10 20 20 28 31 24 11
-4 27 6 48 29 21 22 42 35 58 35 20 0 28 7 38 34 8 23 22 37 45 45 18 7 51 34
74 61 23 27 50 52 60 55 11 3 31 28 46 55 22 40 31 49 48 45 12 -3 26 -2 32 2
16 12 34 49 34 71 0 15 5 19 20 15 29 -8 47 12 60 68 11 44 17 52 49 65 45 18
60 42 68 103 5 43 9 49 37 59 51 19 90 66 89 107 -1 19 5 39 13 46 8 6 14 20
14 30 0 11 10 24 23 30 35 16 47 41 37 82 -7 33 -4 38 31 73 31 30 39 45 39
74 0 21 10 50 25 72 28 42 30 51 13 77 -9 15 -7 25 13 52 13 19 27 36 32 38 4
1 5 33 1 70 l-6 67 37 37 c32 32 36 41 34 81 -2 29 3 53 15 70 9 15 16 39 15
54 -2 15 4 38 13 52 9 14 21 54 27 90 5 36 23 112 40 169 17 57 28 108 24 114
-5 9 -1 28 39 155 11 35 17 73 14 85 -3 12 1 28 9 37 9 9 16 47 19 95 4 54 10
81 20 87 10 6 13 19 9 47 -3 24 1 59 11 87 9 26 16 69 16 95 0 25 7 64 16 85
9 22 14 52 11 71 -3 18 -2 33 2 33 4 0 11 48 14 106 4 75 11 111 22 123 12 14
15 45 15 153 0 111 3 138 16 149 10 8 13 21 9 38 -8 31 34 183 49 178 6 -2 10
-12 8 -22 -2 -10 1 -14 7 -10 6 3 14 -1 17 -9 3 -9 10 -13 15 -10 6 3 22 -2
37 -12 20 -13 24 -14 15 -2 -11 12 -9 17 13 26 14 7 31 12 38 12 7 0 32 14 55
31 45 32 66 32 38 1 -18 -20 -13 -34 8 -25 8 2 17 18 20 34 6 25 9 27 26 18
21 -11 39 -5 39 14 0 9 -3 8 -8 -1 -12 -17 -44 -4 -40 17 2 9 13 16 26 15 12
0 22 3 22 8 0 16 39 8 43 -9 4 -14 5 -12 6 5 1 23 43 48 62 36 5 -3 9 -1 9 4
0 14 77 45 91 37 8 -5 10 -4 5 4 -9 14 34 52 52 46 6 -2 12 2 12 10 0 8 4 15
8 15 5 0 28 18 53 40 50 46 95 73 108 65 5 -3 11 -1 13 5 1 5 23 11 48 13 25
2 53 7 62 11 9 4 22 5 28 1 5 -3 10 -1 10 6 0 6 8 9 20 6 11 -3 20 -2 20 2 0
4 16 14 35 22 31 15 34 15 38 0 3 -10 5 -8 6 6 1 16 14 29 42 43 38 20 42 20
67 5 l27 -16 -22 19 c-16 14 -19 22 -10 31 16 16 25 14 30 -9 3 -13 4 -10 3 7
0 18 4 27 12 25 6 -1 12 3 12 9 0 6 7 9 15 5 9 -3 15 0 15 10 0 10 6 14 15 10
9 -3 15 0 15 10 0 11 6 14 16 10 8 -3 12 -2 9 4 -4 6 4 14 16 19 19 7 27 3 44
-23 28 -41 60 -56 124 -56 48 0 57 3 87 35 18 20 42 35 55 35 12 0 52 -19 88
-42 57 -38 72 -43 121 -42 65 0 112 22 136 63 11 18 31 33 55 40 64 19 109 86
121 181 5 42 75 79 184 96 l42 6 12 -73 c6 -41 18 -96 26 -123 28 -95 28 -121
3 -155 -26 -36 -20 -49 16 -33 28 13 29 12 56 -76 11 -37 10 -48 -5 -80 -13
-29 -13 -33 -1 -18 8 11 15 24 15 29 0 4 5 5 11 1 6 -3 9 -14 6 -24 -3 -13 0
-17 9 -13 29 11 1 -29 -30 -44 -31 -14 -8 -12 27 2 17 7 18 3 14 -53 -2 -34 0
-59 5 -56 10 6 10 2 -1 -54 -5 -23 -5 -45 -1 -47 4 -3 8 -31 9 -62 0 -46 -4
-62 -21 -80 -16 -17 -18 -23 -7 -23 8 0 20 5 27 12 20 20 15 -17 -9 -65 -19
-39 -19 -40 -1 -18 l20 24 0 -51 c0 -29 -4 -55 -9 -57 -4 -3 -6 -12 -2 -20 3
-9 -1 -23 -8 -32 -8 -9 -9 -14 -4 -11 15 9 19 -131 4 -148 -8 -10 -8 -14 0
-14 12 0 15 -56 3 -64 -4 -2 -7 -24 -5 -47 1 -23 -3 -51 -8 -62 -6 -11 -7 -17
-2 -14 12 7 11 -83 0 -101 -5 -6 -4 -12 0 -12 5 0 10 -17 11 -37 2 -21 5 -46
8 -55 3 -11 -2 -18 -18 -21 l-23 -4 23 -2 c16 -1 22 -6 21 -18 -2 -10 1 -28 5
-41 5 -14 3 -28 -4 -37 -8 -10 -8 -14 1 -17 9 -3 9 -9 0 -26 -8 -15 -8 -22 -1
-22 7 0 9 -19 6 -50 -3 -27 -2 -50 2 -50 15 0 11 -65 -6 -84 -16 -20 -16 -20
1 -7 23 18 24 -5 0 -33 -10 -12 -11 -15 -3 -9 22 20 33 15 26 -12 -4 -14 -3
-25 2 -25 5 0 8 -20 8 -44 -1 -24 2 -42 5 -40 8 5 21 -74 14 -86 -3 -4 0 -10
6 -12 9 -3 9 -10 -1 -27 -7 -15 -8 -21 -1 -17 10 7 15 -8 14 -41 -1 -7 4 -13
9 -13 15 0 0 -49 -23 -78 -10 -14 -19 -30 -19 -36 0 -6 10 5 22 24 l23 35 3
-32 c2 -18 -2 -41 -8 -52 -9 -17 -8 -20 5 -15 17 7 22 -31 5 -41 -14 -8 -13
-26 1 -23 14 3 32 -58 26 -83 -3 -10 -1 -19 4 -21 5 -2 18 -52 29 -111 11 -59
24 -126 30 -148 8 -31 8 -44 -1 -55 -10 -12 -9 -13 6 -8 16 7 17 1 11 -72 -4
-43 -14 -119 -23 -169 -9 -49 -16 -130 -16 -180 0 -78 5 -105 36 -195 37 -107
42 -150 62 -485 18 -308 17 -305 53 -335 33 -27 33 -27 20 -74 -10 -38 -10
-52 1 -79 8 -17 13 -43 13 -57 -1 -14 4 -37 10 -53 14 -35 -2 -96 -50 -191
-48 -98 -104 -168 -181 -228 -163 -127 -201 -162 -235 -211 -52 -76 -85 -224
-54 -243 29 -18 369 -24 723 -13 204 7 447 13 540 14 179 3 329 22 388 50 30
14 36 24 52 81 25 94 17 203 -23 286 -38 81 -88 137 -196 218 l-86 65 1 85 c0
47 6 103 13 125 l13 40 60 -61 c48 -50 76 -95 151 -240 69 -135 106 -193 146
-237 64 -68 89 -72 158 -28 82 52 153 153 293 420 99 190 101 193 181 526 44
183 46 195 42 317 -2 79 -7 131 -15 139 -25 25 -149 50 -273 56 -100 4 -149 1
-246 -16 -150 -26 -190 -26 -230 -2 -23 14 -43 18 -71 14 -34 -4 -45 -1 -75
26 -56 49 -66 87 -66 239 0 81 4 132 10 132 6 0 5 6 -2 15 -13 15 -5 39 11 30
5 -4 9 6 9 22 -1 27 -1 27 -15 9 -14 -18 -15 -17 -15 23 0 23 4 40 9 36 5 -3
13 0 17 6 4 8 3 9 -4 5 -21 -13 -24 40 -5 96 13 38 39 78 80 125 33 37 111
133 173 213 62 80 152 189 198 243 l85 98 41 -5 c23 -3 32 -3 21 0 -25 7 -44
24 -27 24 7 0 12 6 10 14 -2 8 7 23 20 34 23 21 23 21 57 1 l34 -20 -12 25
c-8 16 -14 20 -19 13 -5 -9 -10 -9 -19 0 -13 13 -4 33 17 33 8 0 14 6 14 13 0
8 9 22 19 31 18 17 20 17 30 -1 10 -15 10 -14 5 8 -7 32 21 62 38 38 8 -11 9
-11 4 3 -3 11 4 25 22 38 15 12 81 73 148 135 123 116 172 185 189 264 4 19
20 54 36 79 16 25 32 60 35 79 3 18 10 33 15 33 20 0 110 -51 116 -65 3 -8 9
-12 14 -9 5 3 9 -3 9 -13 0 -15 2 -15 10 -3 7 12 12 12 28 -4 11 -9 28 -16 38
-14 10 2 22 -6 28 -17 7 -12 19 -19 29 -17 27 5 67 -25 67 -51 0 -16 3 -18 9
-8 6 9 11 10 15 2 4 -6 12 -11 19 -11 6 0 2 6 -9 14 -29 22 -12 28 29 11 26
-11 37 -22 38 -38 1 -17 2 -18 6 -5 5 20 18 23 28 8 3 -5 14 -10 24 -10 10 0
26 -9 36 -20 10 -11 22 -17 27 -14 5 4 28 -9 51 -27 29 -23 36 -26 22 -9 -18
21 -18 23 -2 17 10 -4 21 -7 23 -7 2 0 4 -8 4 -17 0 -15 2 -16 10 -3 12 19 15
14 28 -40 l11 -45 -4 45 c-3 25 -2 39 1 32 3 -6 10 -10 15 -6 5 3 19 -5 30
-18 11 -13 18 -17 14 -10 -3 6 -1 12 4 12 6 0 11 -6 11 -14 0 -7 12 -21 28
-30 l27 -17 -24 21 c-30 26 -23 33 17 19 28 -10 30 -13 21 -32 -9 -21 -9 -21
5 -4 18 23 48 16 91 -22 23 -20 25 -21 11 -3 -16 18 -16 22 -4 22 9 0 21 -6
27 -14 7 -8 21 -12 31 -9 14 4 23 -2 29 -18 5 -13 10 -18 10 -10 1 11 4 11 16
1 13 -11 14 -10 9 4 -5 12 -2 15 11 10 11 -5 15 -14 11 -30 -3 -12 -2 -26 4
-29 6 -4 10 7 10 26 0 25 3 29 13 20 8 -6 17 -7 21 -3 4 4 13 0 19 -8 7 -9 29
-16 52 -17 68 -2 107 -10 116 -24 5 -8 9 -10 9 -5 0 5 10 1 23 -10 12 -10 16
-12 10 -4 -7 8 -13 18 -13 23 0 15 70 0 92 -20 17 -16 18 -16 12 0 -10 27 30
21 67 -10 30 -26 31 -26 20 -4 -16 29 -4 42 15 17 8 -11 14 -14 14 -8 0 19 35
14 55 -8 10 -11 23 -20 28 -20 6 0 2 9 -8 20 -18 20 -17 20 8 20 14 0 31 -8
37 -17 10 -15 11 -16 6 -1 -4 13 3 16 40 16 25 -1 44 -6 44 -12 0 -6 4 -5 9 3
5 8 15 11 23 8 8 -3 21 -1 29 3 7 5 18 5 25 -1 8 -7 14 -6 19 1 9 14 55 13 55
-2 0 -8 3 -9 8 -3 11 15 33 17 49 4 8 -7 13 -8 12 -3 -4 21 2 26 16 14 9 -7
15 -8 15 -2 0 6 41 10 108 10 82 -1 111 -4 125 -16 16 -15 17 -14 11 1 -7 20
16 23 48 6 15 -8 19 -8 14 0 -4 7 1 11 13 11 10 0 22 -6 24 -12 4 -10 6 -10 6
0 1 6 8 12 16 12 8 0 15 -6 15 -12 0 -9 3 -10 8 -2 4 6 22 11 40 12 23 0 32
-4 33 -16 0 -14 2 -14 8 2 15 38 24 -6 30 -143 4 -75 10 -142 14 -148 4 -7 3
-22 -3 -33 -8 -15 -8 -40 1 -95 13 -76 13 -72 -22 -280 -7 -38 -21 -89 -31
-112 -10 -23 -26 -77 -34 -120 -32 -166 -45 -206 -103 -307 -69 -121 -132
-271 -166 -398 -31 -117 -62 -180 -137 -280 -78 -103 -281 -287 -368 -332 -38
-20 -105 -44 -159 -55 -162 -36 -291 -119 -291 -189 0 -72 113 -231 242 -339
60 -50 269 -210 301 -230 4 -2 58 -18 120 -34 62 -16 140 -43 173 -59 34 -17
77 -30 95 -30 19 0 81 -10 139 -22 81 -16 142 -22 270 -22 152 -1 168 1 207
21 96 52 138 144 158 345 15 164 25 189 175 438 120 199 130 233 130 420 0 74
9 236 20 360 11 124 27 297 35 385 22 240 65 462 88 448 5 -3 4 4 -3 16 -7 14
-8 27 -2 34 5 7 12 29 16 50 4 20 10 37 15 37 4 0 6 13 3 28 -2 16 2 35 10 43
7 8 23 34 35 59 13 25 27 53 33 63 5 9 14 25 19 35 5 9 14 16 21 14 6 -1 8 3
5 9 -8 12 34 111 44 105 3 -2 7 11 8 29 2 36 23 84 48 109 13 12 28 15 68 10
49 -6 56 -4 101 30 62 48 85 56 157 56 103 0 164 32 406 217 143 108 182 131
193 113 4 -7 26 -13 48 -14 23 -1 49 -9 59 -18 10 -8 43 -23 73 -33 94 -30
206 -88 433 -224 297 -178 364 -226 492 -355 179 -181 258 -313 356 -596 31
-91 80 -228 108 -305 97 -261 177 -568 189 -725 17 -227 1 -330 -78 -496 -34
-70 -52 -92 -133 -167 -53 -49 -102 -103 -112 -124 -10 -21 -25 -46 -33 -56
-11 -13 -15 -38 -15 -95 1 -93 14 -129 50 -143 27 -10 334 -5 352 5 4 3 86 9
182 15 96 6 197 17 224 26 32 9 53 11 59 5 13 -13 68 -13 103 1 15 7 55 13 89
14 34 2 74 9 89 18 22 11 37 12 64 5 19 -6 62 -8 96 -4 33 3 89 7 125 9 97 6
149 36 270 153 l104 102 1 79 c0 67 -4 87 -31 143 -17 36 -61 103 -98 150
-104 130 -108 141 -141 380 -41 287 -97 434 -283 735 -168 273 -241 414 -298
575 -13 36 -32 83 -44 105 -13 27 -17 41 -9 44 6 2 16 -3 21 -10 8 -12 9 -11
5 1 -2 8 -13 16 -24 18 -22 3 -40 42 -20 42 6 0 4 6 -5 13 -20 16 -29 55 -14
61 8 3 8 5 0 5 -6 1 -22 29 -34 64 -13 34 -29 69 -37 78 -18 21 -16 39 5 55
13 11 14 13 1 9 -9 -4 -16 0 -16 7 0 7 -4 21 -8 31 -4 10 -3 17 5 17 6 0 9 8
6 18 -20 72 -14 80 14 17 16 -38 30 -70 30 -71 0 -1 -10 0 -22 3 -22 6 -22 6
2 -15 17 -15 20 -21 10 -22 -22 0 47 -40 70 -40 38 0 125 -42 152 -73 18 -22
26 -26 24 -15 -1 10 -11 25 -22 33 -25 19 -6 19 40 0 37 -16 51 -41 17 -30
-15 5 -18 2 -14 -13 4 -17 0 -19 -24 -16 l-28 4 28 -11 c15 -6 27 -15 27 -20
0 -5 7 -9 16 -9 8 0 13 -4 9 -9 -3 -5 -1 -12 4 -15 8 -5 8 15 1 34 -1 3 -2 8
-1 13 0 4 -3 7 -9 7 -5 0 -10 5 -10 10 0 15 26 12 39 -4 9 -11 9 -15 -1 -19
-7 -3 -3 -6 10 -6 12 -1 22 -5 22 -10 0 -5 3 -18 7 -28 6 -17 5 -16 -18 2
l-24 20 24 -27 c13 -15 29 -25 34 -21 6 4 8 0 4 -9 -3 -10 3 -24 16 -35 19
-16 20 -16 8 0 -22 28 -3 20 44 -19 24 -19 48 -48 54 -65 5 -16 12 -29 15 -29
3 0 0 13 -5 30 -6 16 -38 53 -71 82 -52 44 -86 94 -89 125 0 5 -7 12 -15 16
-8 4 -14 13 -14 19 0 6 9 4 23 -4 12 -9 20 -18 17 -21 -3 -3 13 -19 35 -35 22
-16 60 -49 85 -73 25 -24 38 -35 30 -24 -8 11 -42 46 -74 77 -33 32 -58 60
-55 63 8 8 68 -23 114 -59 21 -17 36 -25 32 -18 -5 7 -3 12 3 12 6 0 8 5 5 11
-4 6 -9 8 -12 5 -7 -6 -89 40 -119 66 -11 10 -23 16 -26 13 -2 -3 -13 4 -23
15 -10 11 -15 20 -10 20 4 0 14 -8 21 -17 13 -17 14 -17 8 0 -7 21 -7 21 47 2
24 -9 52 -26 62 -38 15 -19 16 -19 10 -3 -5 16 -3 18 13 11 10 -4 33 -13 51
-19 18 -7 41 -20 53 -31 11 -10 20 -14 20 -9 0 5 -16 22 -35 37 -20 16 -33 32
-30 37 3 5 -4 11 -15 15 -11 3 -20 9 -20 13 0 4 -19 8 -42 9 -34 2 -47 9 -71
38 -15 19 -33 35 -39 35 -6 0 1 -10 16 -21 15 -12 25 -24 22 -26 -6 -6 -57 33
-57 44 0 8 -38 32 -52 33 -5 0 -6 -4 -3 -8 6 -10 -40 -9 -50 1 -5 4 0 5 11 1
18 -7 18 -6 6 9 -11 15 -11 17 2 17 8 0 17 -4 19 -8 2 -5 14 -5 28 -1 l25 7
-27 1 c-15 1 -30 6 -33 12 -9 14 26 40 45 34 9 -3 7 1 -4 10 -11 8 -17 18 -13
21 4 4 22 -5 41 -20 19 -14 38 -26 42 -26 5 0 -11 14 -34 31 -35 26 -42 37
-43 67 -2 31 -3 32 -6 10 -2 -16 -9 -28 -14 -28 -5 0 -9 49 -9 110 0 89 -3
112 -15 116 -8 4 -15 14 -15 24 0 10 -10 24 -22 33 -13 8 -19 19 -15 23 4 5
12 2 17 -6 6 -10 10 -11 10 -3 0 7 -9 17 -20 23 -11 6 -20 21 -20 33 0 24 -29
72 -45 73 -5 0 -26 8 -47 17 -20 9 -53 18 -75 20 -21 2 -37 8 -36 14 1 6 -9
14 -22 17 -14 4 -25 11 -25 16 0 11 24 13 58 3 18 -4 20 -8 10 -14 -8 -6 -1
-9 21 -9 20 0 39 -7 47 -18 13 -16 14 -16 7 2 -7 22 5 17 47 -18 l25 -21 -24
27 c-26 29 -126 68 -176 68 -26 0 -34 6 -48 34 l-16 35 27 4 27 4 -26 2 c-15
0 -31 7 -37 14 -14 17 -44 98 -44 119 1 9 -6 22 -14 29 -21 17 -18 43 4 34 9
-4 31 -9 47 -11 l30 -3 -30 8 c-16 4 -40 13 -51 19 -26 14 -39 58 -23 78 9 11
8 14 -5 14 -9 0 -18 11 -22 27 -3 16 -12 49 -19 76 -7 26 -10 47 -7 47 3 0 20
-12 36 -27 25 -22 23 -19 -5 12 -43 47 -59 76 -59 106 0 22 0 22 22 3 17 -14
16 -11 -5 14 -28 35 -36 87 -14 95 7 3 4 6 -7 6 -12 1 -16 6 -13 16 4 8 2 17
-4 21 -6 3 -9 16 -8 27 2 12 -2 31 -8 42 -14 26 -39 143 -59 275 -12 79 -18
237 -24 640 -5 294 -13 590 -19 656 -6 67 -15 211 -21 320 -14 276 -37 439
-75 531 -13 34 -27 81 -31 105 -4 24 -15 51 -24 60 -10 9 -21 35 -25 57 -3 21
-15 47 -25 56 -11 10 -31 48 -45 85 -14 38 -33 74 -41 80 -8 7 -14 18 -14 24
0 7 -20 41 -45 76 -25 35 -45 68 -45 73 0 5 -11 22 -25 39 -14 16 -25 37 -25
45 0 9 -40 57 -89 107 -49 50 -96 105 -105 123 -8 17 -26 40 -38 50 -13 10
-30 32 -38 48 -9 18 -43 47 -84 71 -52 31 -77 55 -107 101 -31 47 -49 64 -82
77 -31 11 -48 26 -62 53 -35 66 -166 185 -337 307 -92 65 -194 146 -227 180
-134 139 -193 184 -321 249 -69 34 -194 106 -277 160 -145 93 -434 244 -553
288 -79 30 -153 47 -242 59 -43 5 -88 16 -100 24 -53 35 -602 66 -783 46z
m-5152 -4527 c-34 -26 -39 -12 -10 25 8 11 12 11 18 0 6 -8 2 -18 -8 -25z
m9505 -1470 c-10 -2 -26 -2 -35 0 -10 3 -2 5 17 5 19 0 27 -2 18 -5z m56 -22
c3 -5 -10 -11 -29 -13 -24 -3 -35 0 -35 9 0 15 56 18 64 4z m31 -52 c21 -40
12 -48 -25 -21 -25 19 -29 20 -23 5 5 -15 3 -16 -7 -6 -8 7 -15 22 -17 33 -2
16 3 20 27 20 23 0 33 -7 45 -31z m45 -20 c0 -5 -5 -9 -10 -9 -10 0 -30 41
-30 58 1 10 40 -39 40 -49z m-26 -37 c2 -4 7 -25 11 -47 l6 -40 -20 35 c-26
44 -27 31 -2 -18 25 -50 31 -270 6 -238 -8 11 -15 29 -15 40 0 12 -4 27 -9 35
-9 14 7 81 20 81 4 0 1 17 -7 38 -16 40 -44 102 -51 115 -6 9 54 9 61 -1z m80
-114 c3 -27 2 -48 -2 -48 -23 0 -50 49 -55 100 l-7 54 29 -29 c20 -21 30 -44
35 -77z m-104 8 c9 -27 8 -41 -4 -67 l-14 -34 -1 52 c-1 28 -5 55 -11 58 -6 4
-7 -1 -3 -11 5 -13 3 -15 -8 -9 -11 6 -12 5 -1 -6 6 -7 12 -26 12 -42 0 -25
-2 -28 -15 -17 -18 15 -19 50 -3 85 16 35 34 31 48 -9z m127 -18 c-3 -7 -5 -2
-5 12 0 14 2 19 5 13 2 -7 2 -19 0 -25z m-340 -35 c-3 -15 -1 -36 5 -46 5 -10
7 -23 5 -30 -8 -22 -27 43 -21 73 4 16 9 30 11 30 3 0 3 -12 0 -27z m313 -35
c0 -12 4 -16 11 -12 9 5 10 -1 4 -22 -5 -16 -8 -39 -8 -50 1 -16 -4 -20 -18
-17 -28 8 -41 29 -34 54 l7 22 19 -24 19 -24 0 24 c0 13 -3 21 -7 18 -13 -14
-33 17 -33 51 0 34 0 35 20 17 11 -10 20 -27 20 -37z m-262 -9 c-3 -8 -7 -3
-11 10 -4 17 -3 21 5 13 5 -5 8 -16 6 -23z m289 -81 c-3 -7 -5 -2 -5 12 0 14
2 19 5 13 2 -7 2 -19 0 -25z m-30 -48 c-1 -22 -12 -26 -22 -10 -3 6 -2 10 4
10 6 0 7 7 4 17 -4 10 -2 14 5 9 6 -3 10 -15 9 -26z m50 -22 c-3 -37 -47 -70
-47 -36 0 4 6 7 13 6 6 -2 11 5 9 15 -2 9 2 17 8 17 6 0 8 5 5 10 -3 6 -2 10
4 10 5 0 9 -10 8 -22z m-230 -21 c6 2 15 -1 19 -8 5 -9 2 -10 -10 -6 -14 5
-17 3 -12 -8 3 -8 3 -15 -1 -15 -10 0 -32 34 -32 50 0 13 1 13 12 -1 7 -9 17
-14 24 -12z m158 -17 c3 -5 1 -10 -4 -10 -6 0 -11 5 -11 10 0 6 2 10 4 10 3 0
8 -4 11 -10z m-55 -52 c0 -6 -7 -5 -15 2 -8 7 -15 17 -15 22 0 6 7 5 15 -2 8
-7 15 -17 15 -22z m-67 -48 c30 -9 30 -9 -8 -4 -45 6 -59 17 -70 54 -7 23 -6
22 19 -7 15 -18 42 -37 59 -43z m8 12 c-5 -2 -20 2 -33 9 -22 12 -22 12 -3 20
14 5 24 2 33 -9 7 -10 9 -18 3 -20z m45 7 c19 -22 19 -22 -3 -10 -13 6 -23 16
-23 21 0 15 5 12 26 -11z m79 -19 c10 -11 15 -20 11 -20 -14 0 -46 21 -46 30
0 16 16 11 35 -10z m135 -32 c0 -13 -9 -9 -45 15 -19 13 -32 26 -29 30 7 7 74
-34 74 -45z m-150 -4 c24 -15 24 -15 -19 -10 -24 2 -48 9 -54 15 -17 17 44 13
73 -5z m95 -4 c17 -3 15 -6 -5 -7 -10 -1 -25 6 -32 14 -11 14 -11 15 7 6 11
-6 25 -12 30 -13z m183 -31 c32 -7 77 -38 68 -46 -2 -3 -27 7 -55 21 -28 14
-57 26 -65 26 -8 0 -18 5 -22 11 -4 8 1 9 17 4 13 -5 39 -11 57 -16z m-159
-15 c14 -12 -19 -1 -35 12 -18 14 -18 14 6 3 14 -6 27 -13 29 -15z"/>
<path d="M4859 5533 c-13 -16 -12 -17 4 -4 9 7 17 15 17 17 0 8 -8 3 -21 -13z"/>
<path d="M3810 5380 c6 -11 13 -20 16 -20 2 0 0 9 -6 20 -6 11 -13 20 -16 20
-2 0 0 -9 6 -20z"/>
<path d="M3790 5353 c13 -18 25 -33 27 -33 8 0 -17 38 -33 51 -11 9 -9 2 6
-18z"/>
<path d="M3760 5336 c0 -2 8 -10 18 -17 15 -13 16 -12 3 4 -13 16 -21 21 -21
13z"/>
<path d="M3347 5179 c4 -13 8 -18 11 -10 2 7 -1 18 -6 23 -8 8 -9 4 -5 -13z"/>
<path d="M4990 4975 c-6 -8 -10 -19 -8 -24 1 -6 8 1 15 14 13 28 11 31 -7 10z"/>
<path d="M2959 4952 c-3 -20 -2 -29 4 -23 5 5 7 19 5 32 -3 20 -5 19 -9 -9z"/>
<path d="M4995 4850 c-3 -6 1 -7 9 -4 18 7 21 14 7 14 -6 0 -13 -4 -16 -10z"/>
<path d="M14110 4736 c0 -2 7 -7 16 -10 8 -3 12 -2 9 4 -6 10 -25 14 -25 6z"/>
<path d="M14150 4716 c0 -2 8 -10 18 -17 15 -13 16 -12 3 4 -13 16 -21 21 -21
13z"/>
<path d="M14145 4686 c10 -14 19 -26 22 -26 7 0 -17 39 -28 46 -6 3 -3 -5 6
-20z"/>
<path d="M5021 4464 c0 -11 3 -14 6 -6 3 7 2 16 -1 19 -3 4 -6 -2 -5 -13z"/>
<path d="M4968 4303 c7 -3 16 -2 19 1 4 3 -2 6 -13 5 -11 0 -14 -3 -6 -6z"/>
<path d="M14292 4094 c10 -10 20 -15 24 -12 3 4 -5 12 -18 18 -22 12 -22 12
-6 -6z"/>
<path d="M8060 3775 c0 -5 5 -17 10 -25 5 -8 10 -10 10 -5 0 6 -5 17 -10 25
-5 8 -10 11 -10 5z"/>
<path d="M8190 3691 c0 -6 4 -13 10 -16 6 -3 7 1 4 9 -7 18 -14 21 -14 7z"/>
<path d="M8242 3650 c0 -19 2 -27 5 -17 2 9 2 25 0 35 -3 9 -5 1 -5 -18z"/>
<path d="M14672 3535 c0 -16 2 -22 5 -12 2 9 2 23 0 30 -3 6 -5 -1 -5 -18z"/>
<path d="M8766 3533 c-3 -4 -6 -11 -6 -17 0 -6 4 -5 9 2 7 11 13 9 31 -10 21
-21 22 -21 12 -2 -12 23 -36 37 -46 27z"/>
<path d="M9728 3493 c7 -3 16 -2 19 1 4 3 -2 6 -13 5 -11 0 -14 -3 -6 -6z"/>
<path d="M9977 3488 c-2 -8 2 -23 10 -33 13 -19 14 -18 7 10 -8 37 -10 39 -17
23z"/>
<path d="M14788 3363 c7 -3 16 -2 19 1 4 3 -2 6 -13 5 -11 0 -14 -3 -6 -6z"/>
<path d="M14878 3334 c32 -12 74 -30 92 -39 18 -9 29 -12 26 -7 -3 6 -31 20
-62 33 -41 17 -51 25 -38 29 10 4 -4 7 -30 7 l-48 0 60 -23z"/>
<path d="M14928 3343 c7 -3 16 -2 19 1 4 3 -2 6 -13 5 -11 0 -14 -3 -6 -6z"/>
<path d="M5065 3329 c-4 -6 -5 -12 -2 -15 2 -3 7 2 10 11 7 17 1 20 -8 4z"/>
<path d="M14721 3326 c10 -9 89 -46 89 -41 0 5 -75 45 -86 45 -4 0 -5 -2 -3
-4z"/>
<path d="M7100 3311 c0 -6 4 -13 10 -16 6 -3 7 1 4 9 -7 18 -14 21 -14 7z"/>
<path d="M15020 3310 c8 -5 20 -10 25 -10 6 0 3 5 -5 10 -8 5 -19 10 -25 10
-5 0 -3 -5 5 -10z"/>
<path d="M14835 3269 c11 -6 28 -18 37 -26 15 -13 16 -13 11 6 -3 12 -11 21
-18 21 -8 0 -22 3 -32 6 -15 5 -15 3 2 -7z"/>
<path d="M15025 3265 c11 -9 29 -21 40 -26 l20 -10 -20 16 c-11 9 -29 21 -40
26 l-20 10 20 -16z"/>
<path d="M15100 3276 c0 -3 9 -10 20 -16 11 -6 20 -8 20 -6 0 3 -9 10 -20 16
-11 6 -20 8 -20 6z"/>
<path d="M14905 3248 c11 -6 29 -18 40 -27 12 -9 8 -4 -7 12 -16 15 -34 27
-41 27 -6 0 -3 -6 8 -12z"/>
<path d="M14476 3189 c6 -11 64 -42 69 -37 2 2 -14 13 -36 25 -21 12 -37 17
-33 12z"/>
<path d="M14987 3189 c7 -7 15 -10 18 -7 3 3 -2 9 -12 12 -14 6 -15 5 -6 -5z"/>
<path d="M15047 3129 c7 -7 15 -10 18 -7 3 3 -2 9 -12 12 -14 6 -15 5 -6 -5z"/>
<path d="M11171 3104 c0 -11 3 -14 6 -6 3 7 2 16 -1 19 -3 4 -6 -2 -5 -13z"/>
<path d="M15030 3085 c13 -14 26 -25 28 -25 3 0 -5 11 -18 25 -13 14 -26 25
-28 25 -3 0 5 -11 18 -25z"/>
<path d="M14956 3064 c22 -22 50 -52 62 -68 12 -16 24 -27 26 -25 7 7 -84 108
-108 121 -11 6 -3 -7 20 -28z"/>
<path d="M14715 2990 c19 -38 38 -70 40 -70 3 0 -11 32 -30 70 -19 39 -38 70
-40 70 -3 0 11 -31 30 -70z"/>
<path d="M14860 3056 c0 -2 8 -10 18 -17 15 -13 16 -12 3 4 -13 16 -21 21 -21
13z"/>
<path d="M14920 3023 c13 -18 25 -33 27 -33 8 0 -17 38 -33 51 -11 9 -9 2 6
-18z"/>
<path d="M15020 3045 c0 -5 5 -17 10 -25 5 -8 10 -10 10 -5 0 6 -5 17 -10 25
-5 8 -10 11 -10 5z"/>
<path d="M14975 2995 c40 -56 51 -66 29 -27 -10 18 -28 41 -38 50 -12 10 -8 0
9 -23z"/>
<path d="M14661 3004 c0 -11 3 -14 6 -6 3 7 2 16 -1 19 -3 4 -6 -2 -5 -13z"/>
<path d="M14961 2960 c14 -31 19 -36 19 -24 0 6 -7 19 -16 30 -14 18 -14 18
-3 -6z"/>
<path d="M14800 2830 c6 -11 13 -20 16 -20 2 0 0 9 -6 20 -6 11 -13 20 -16 20
-2 0 0 -9 6 -20z"/>
<path d="M11020 2826 c0 -2 8 -10 18 -17 15 -13 16 -12 3 4 -13 16 -21 21 -21
13z"/>
<path d="M14820 2796 c0 -2 8 -10 18 -17 15 -13 16 -12 3 4 -13 16 -21 21 -21
13z"/>
<path d="M11000 2760 c0 -5 10 -15 23 -21 22 -12 22 -12 3 10 -21 23 -26 26
-26 11z"/>
<path d="M6385 2239 c-4 -6 -5 -12 -2 -15 2 -3 7 2 10 11 7 17 1 20 -8 4z"/>
</g>
</svg>
