<?xml version="1.0" standalone="no"?>
<!DOCTYPE svg PUBLIC "-//W3C//DTD SVG 20010904//EN"
 "http://www.w3.org/TR/2001/REC-SVG-20010904/DTD/svg10.dtd">
<svg version="1.0" xmlns="http://www.w3.org/2000/svg"
 width="372.000000pt" height="776.000000pt" viewBox="0 0 372.000000 776.000000"
 preserveAspectRatio="xMidYMid meet">
<metadata>
Created by potrace 1.16, written by Peter Selinger 2001-2019
</metadata>
<g transform="translate(0.000000,776.000000) scale(0.100000,-0.100000)"
fill="#000000" stroke="none">
<path d="M2170 7740 c-14 -4 -43 -8 -64 -9 -51 -1 -154 -59 -183 -103 -11 -18
-26 -57 -32 -86 -13 -63 -38 -115 -51 -107 -6 4 -10 11 -10 18 0 6 -21 32 -46
58 -25 26 -51 57 -58 70 -14 29 -42 37 -136 38 l-75 1 -59 -53 c-52 -47 -59
-57 -63 -99 -3 -27 -9 -48 -13 -48 -3 0 -27 13 -51 30 -30 20 -69 34 -118 42
l-74 13 -26 -32 c-26 -31 -30 -32 -111 -35 -80 -3 -85 -4 -93 -28 -12 -34 23
-127 68 -180 19 -22 60 -62 92 -88 l58 -47 -35 -2 c-159 -12 -326 -80 -420
-172 -63 -62 -80 -92 -80 -145 0 -27 -7 -37 -37 -57 -26 -17 -43 -37 -53 -67
-14 -42 -14 -42 15 -72 37 -37 110 -53 186 -41 56 9 169 3 169 -9 0 -4 -12
-13 -26 -21 -15 -8 -57 -46 -93 -86 -97 -105 -124 -197 -77 -268 25 -38 95
-41 196 -6 124 41 232 89 257 113 36 34 39 13 7 -44 -28 -51 -29 -58 -28 -171
1 -115 2 -119 30 -148 28 -29 76 -40 89 -19 4 6 30 29 58 51 86 68 229 192
261 227 16 17 32 32 35 32 3 0 31 -32 61 -70 43 -55 66 -76 110 -96 35 -16 65
-23 82 -20 45 9 108 57 130 99 12 25 23 36 29 30 30 -30 36 -716 9 -928 -5
-38 -14 -191 -19 -339 -10 -250 -12 -271 -31 -290 -13 -13 -33 -20 -57 -21
-34 0 -38 -3 -41 -28 -5 -42 13 -58 58 -51 21 4 40 2 44 -4 3 -5 6 -69 7 -142
1 -146 -8 -174 -41 -130 -65 85 -114 134 -175 174 -70 47 -79 60 -81 120 -1
28 -8 75 -15 104 -12 50 -12 55 14 106 15 29 27 56 27 61 0 4 13 23 30 42 50
56 33 104 -29 82 -25 -9 -38 -23 -56 -65 -13 -30 -26 -54 -29 -54 -3 0 -25 19
-50 41 -71 64 -85 105 -80 224 4 112 12 131 83 179 23 15 54 46 68 67 22 34
24 43 15 64 -6 14 -16 25 -22 25 -18 0 -68 -29 -73 -42 -2 -7 -8 -9 -13 -5 -4
4 -2 22 5 40 31 74 21 157 -18 157 -56 0 -105 -173 -117 -413 -6 -118 -9 -137
-23 -135 -9 2 -18 18 -22 38 -3 19 -12 49 -19 65 -7 17 -19 79 -26 139 -11 96
-17 114 -48 162 -64 96 -105 64 -88 -67 13 -91 47 -234 67 -274 8 -16 24 -52
35 -80 12 -27 35 -71 52 -97 33 -53 32 -78 -5 -78 -26 0 -56 29 -80 75 -20 39
-311 338 -320 329 -4 -4 -7 -27 -7 -51 0 -46 13 -64 74 -106 38 -26 32 -38
-14 -31 -32 5 -41 3 -47 -11 -10 -26 36 -61 91 -69 59 -9 118 -54 172 -131 23
-33 79 -91 125 -130 59 -51 91 -87 114 -130 18 -32 56 -85 85 -118 29 -32 51
-60 49 -61 -2 -2 -32 1 -66 6 -53 9 -66 8 -88 -6 -28 -18 -29 -24 -15 -60 7
-21 17 -26 42 -26 18 -1 51 -7 73 -15 22 -8 55 -15 74 -15 19 0 70 -9 112 -21
67 -18 81 -26 101 -55 13 -19 42 -46 65 -60 29 -16 45 -34 49 -52 3 -15 12
-43 20 -62 7 -19 18 -80 24 -135 14 -127 24 -1020 13 -1100 -7 -55 -10 -60
-33 -60 -20 0 -26 -6 -28 -28 -2 -15 3 -40 10 -55 15 -29 13 -87 -10 -357 -20
-233 -32 -535 -32 -793 0 -182 -3 -253 -11 -250 -18 6 -104 281 -143 460 -25
113 -48 191 -71 240 -19 40 -35 79 -35 87 0 21 -99 188 -336 568 l-64 101 -10
122 c-5 67 -13 126 -16 132 -15 24 -23 168 -14 252 5 50 7 167 3 260 -6 158
-8 170 -30 195 -23 26 -23 26 -39 6 -13 -17 -14 -47 -8 -226 4 -137 3 -208 -4
-212 -13 -9 -55 80 -81 172 -30 105 -82 156 -97 94 -4 -15 -1 -40 6 -57 7 -17
14 -47 17 -66 5 -38 46 -151 99 -270 18 -41 36 -88 40 -105 4 -16 14 -40 22
-53 18 -28 30 -172 14 -172 -6 0 -14 10 -18 22 -3 12 -25 42 -48 67 -85 94
-106 128 -106 168 0 21 -14 72 -32 113 -36 87 -47 189 -29 285 16 86 -4 415
-27 432 -24 19 -32 16 -47 -21 -10 -24 -14 -75 -13 -183 0 -83 -3 -156 -7
-162 -9 -16 -45 15 -45 40 0 10 -4 21 -10 24 -5 3 -21 29 -35 58 l-24 52 19
41 c45 92 11 122 -55 49 l-44 -48 -18 32 c-30 54 -39 64 -51 57 -29 -18 3
-112 56 -168 24 -26 25 -28 8 -47 -26 -28 -27 -146 -2 -183 22 -34 15 -63 -11
-49 -62 33 -224 101 -253 105 -52 9 -105 -6 -105 -29 0 -14 22 -26 100 -55 55
-21 129 -51 165 -69 36 -17 72 -31 80 -31 34 0 100 -59 153 -136 31 -45 53
-84 50 -87 -3 -3 -44 13 -92 37 -47 24 -98 46 -113 50 -15 3 -60 33 -101 65
-40 32 -90 69 -109 82 -19 13 -59 43 -88 67 -29 23 -57 41 -63 39 -17 -5 -31
-33 -23 -48 35 -68 59 -98 109 -132 37 -25 55 -43 49 -49 -6 -6 -44 -6 -103 1
-167 18 -210 18 -223 -1 -32 -51 52 -71 361 -86 l173 -8 42 -33 c24 -17 72
-46 108 -62 36 -17 88 -41 115 -53 62 -29 106 -65 157 -129 32 -41 36 -52 26
-64 -21 -26 -85 -9 -214 57 -100 50 -132 72 -180 123 -33 34 -68 76 -80 92
-18 26 -23 28 -38 16 -24 -20 -20 -49 14 -88 58 -65 33 -71 -59 -12 -68 43
-94 46 -99 13 -4 -27 59 -81 138 -119 30 -14 66 -32 80 -39 14 -8 45 -17 70
-21 25 -3 91 -29 147 -56 62 -31 132 -56 179 -66 43 -9 92 -22 109 -29 38 -16
106 -94 165 -189 24 -38 87 -137 140 -220 111 -172 168 -298 210 -463 37 -148
201 -708 229 -785 27 -72 16 -107 -37 -118 -64 -13 -94 -68 -66 -121 19 -36
56 -37 78 -3 13 20 22 24 44 19 63 -14 65 -23 97 -352 18 -194 32 -301 39
-299 5 2 43 67 84 145 l74 143 -11 122 c-6 67 -14 139 -17 159 -5 34 -3 39 20
48 35 13 33 43 -4 70 -17 12 -30 28 -30 36 0 8 19 33 41 55 42 41 42 41 36
101 -3 35 -12 67 -21 76 -13 14 -17 12 -33 -16 -10 -18 -21 -32 -25 -32 -18 0
-23 140 -23 675 0 486 3 606 18 740 17 155 30 220 48 240 5 5 9 28 9 50 0 51
21 72 110 109 57 23 72 25 118 18 30 -5 62 -18 75 -31 16 -14 36 -21 65 -21
37 0 42 3 42 23 0 12 -9 36 -19 54 -25 39 -101 64 -207 66 -41 1 -74 3 -74 4
0 2 37 40 83 86 45 45 109 122 141 169 47 69 71 94 118 124 l60 36 80 -10 c90
-11 107 -24 148 -110 18 -37 24 -42 43 -36 12 3 28 11 35 16 19 16 15 73 -8
93 -11 10 -20 21 -20 26 0 4 44 5 98 2 96 -6 100 -5 115 18 24 33 21 66 -7 84
-21 14 -56 16 -233 13 -114 -2 -213 1 -220 5 -15 10 34 90 122 197 34 41 92
120 130 175 165 241 336 416 545 556 90 61 129 79 170 79 38 0 70 16 70 34 0
7 -9 21 -20 31 -16 15 -30 17 -76 11 -78 -9 -192 -72 -326 -181 -32 -26 -58
-42 -58 -37 0 5 7 29 15 52 22 63 20 90 -8 90 -43 0 -89 -70 -102 -155 -8 -54
-45 -138 -52 -117 -3 7 0 27 6 44 14 39 14 74 1 99 -17 30 -45 8 -66 -51 -25
-70 -38 -63 -29 15 6 55 4 66 -10 71 -9 4 -20 3 -25 -2 -17 -17 -39 -216 -30
-264 16 -80 13 -98 -28 -143 -21 -23 -49 -60 -62 -82 -39 -65 -255 -349 -380
-500 -64 -77 -163 -202 -219 -277 -57 -76 -107 -138 -111 -138 -4 0 -10 255
-14 568 -3 312 -9 674 -12 804 -4 130 -4 244 -1 252 5 13 9 13 37 0 28 -14 33
-14 63 5 17 11 54 43 80 71 27 27 54 50 62 50 7 0 27 12 44 26 31 26 41 66 21
79 -14 9 -12 35 2 35 7 0 35 11 63 24 27 13 77 33 110 43 48 14 62 23 69 44
15 45 3 59 -53 59 -39 0 -60 -7 -93 -29 -47 -32 -173 -79 -183 -69 -11 11 44
102 106 173 100 114 118 147 125 214 6 50 4 62 -9 67 -22 8 -61 -20 -102 -75
-19 -25 -51 -66 -70 -91 -19 -25 -45 -65 -57 -90 -23 -45 -183 -209 -194 -198
-3 3 6 167 19 364 21 307 24 387 16 549 -8 172 -42 459 -69 580 -6 26 -9 50
-6 52 2 2 17 -2 33 -10 15 -8 48 -20 73 -27 25 -7 57 -21 71 -31 15 -10 30
-19 34 -19 4 0 34 -25 67 -56 54 -49 64 -54 92 -49 17 4 45 20 61 36 27 26 30
36 29 87 -1 45 -8 69 -34 112 -17 30 -41 65 -53 78 -20 21 -20 22 -1 22 86 -2
156 -20 221 -59 82 -48 115 -57 172 -41 50 13 68 45 77 139 6 51 3 63 -20 104
-42 72 -179 177 -231 177 -23 0 -18 15 10 28 31 14 68 15 81 3 20 -20 161 -51
232 -51 88 0 135 18 156 59 29 55 21 85 -31 129 -83 68 -130 95 -156 88 -13
-3 -27 -2 -31 2 -11 10 -219 12 -231 2 -11 -9 -44 5 -35 14 3 2 48 26 100 54
169 87 314 181 325 208 21 57 -33 87 -166 92 -82 3 -108 0 -178 -22 -45 -14
-95 -33 -111 -41 -55 -29 -53 -15 8 48 133 136 163 175 156 205 -10 44 -36 59
-117 66 -63 6 -82 4 -138 -17 -108 -41 -183 -83 -241 -136 -59 -54 -68 -59
-68 -38 0 8 -7 29 -16 47 -15 29 -15 40 -5 82 10 38 10 52 1 63 -14 16 -14 17
-50 5z m-640 -3063 c0 -18 7 -42 15 -54 13 -18 45 -122 45 -145 0 -24 -24 1
-74 75 -47 71 -56 90 -56 129 0 56 5 61 41 42 23 -11 29 -21 29 -47z m-810
-1295 c0 -10 20 -35 45 -55 35 -30 45 -45 45 -68 0 -16 7 -46 15 -66 29 -70
12 -102 -19 -35 -10 20 -35 64 -56 97 -38 60 -62 145 -41 145 6 0 11 -8 11
-18z"/>
</g>
</svg>
