<?xml version="1.0" standalone="no"?>
<!DOCTYPE svg PUBLIC "-//W3C//DTD SVG 20010904//EN"
 "http://www.w3.org/TR/2001/REC-SVG-20010904/DTD/svg10.dtd">
<svg version="1.0" xmlns="http://www.w3.org/2000/svg"
 width="694.000000pt" height="1536.000000pt" viewBox="0 0 694.000000 1536.000000"
 preserveAspectRatio="xMidYMid meet">
<metadata>
Created by potrace 1.16, written by Peter Selinger 2001-2019
</metadata>
<g transform="translate(0.000000,1536.000000) scale(0.100000,-0.100000)"
fill="#000000" stroke="none">
<path d="M3281 15310 c0 -25 4 -54 8 -65 15 -39 22 30 7 71 l-15 39 0 -45z"/>
<path d="M3260 15223 c0 -6 9 -21 20 -34 15 -18 19 -20 20 -8 0 9 -9 24 -20
34 -11 10 -20 13 -20 8z"/>
<path d="M3317 15207 c-11 -29 -9 -43 4 -30 6 6 9 19 7 29 -3 18 -4 18 -11 1z"/>
<path d="M3254 15155 c3 -8 9 -22 12 -30 3 -8 1 -15 -5 -15 -17 0 -13 -12 15
-43 21 -24 27 -27 40 -16 9 7 14 23 11 36 -2 13 0 26 4 29 5 3 9 15 9 27 -1
22 -1 22 -16 2 -9 -12 -13 -31 -9 -50 3 -17 2 -23 -3 -15 -30 58 -75 116 -58
75z m40 -61 c5 -14 4 -15 -9 -4 -17 14 -19 20 -6 20 5 0 12 -7 15 -16z"/>
<path d="M3250 15041 c0 -5 11 -23 25 -39 14 -17 25 -38 25 -48 -1 -15 -4 -13
-16 9 -17 32 -34 35 -34 7 0 -11 11 -27 25 -36 14 -9 25 -26 25 -38 0 -18 -3
-16 -20 12 -24 38 -33 41 -24 7 5 -19 2 -27 -14 -32 -19 -8 -19 -9 9 -43 22
-26 32 -32 38 -22 5 8 8 2 8 -17 l0 -30 -23 24 c-33 36 -47 32 -30 -9 12 -30
13 -34 0 -29 -21 8 -17 -1 21 -47 43 -52 47 -78 4 -30 -28 32 -30 29 -12 -17
6 -16 4 -16 -15 1 -12 11 -22 14 -22 8 0 -6 5 -14 11 -18 8 -5 8 -9 -1 -14 -9
-6 -9 -13 -1 -29 10 -17 9 -21 -4 -21 -31 0 -6 -43 35 -60 19 -8 30 -20 30
-33 0 -18 -2 -17 -21 7 -19 24 -59 36 -59 18 0 -15 46 -52 63 -52 9 0 17 -4
17 -8 0 -5 -13 -7 -30 -4 -29 4 -41 -10 -20 -23 5 -3 -2 -16 -17 -29 l-26 -23
33 -16 c18 -10 39 -17 47 -17 7 0 13 -7 13 -15 0 -12 -9 -13 -45 -8 -38 5 -45
3 -45 -11 0 -9 7 -19 15 -22 12 -5 13 -10 4 -20 -17 -21 0 -36 37 -32 33 4 34
3 34 -29 l0 -33 -20 20 c-20 20 -50 27 -50 12 0 -4 7 -17 15 -29 13 -19 13
-22 -2 -27 -23 -9 -2 -28 31 -28 22 0 26 -5 26 -30 0 -25 -2 -27 -19 -18 -26
13 -68 13 -77 -2 -10 -16 25 -38 63 -38 27 0 33 -4 33 -21 0 -20 -1 -21 -25
-5 -26 17 -65 22 -65 7 0 -13 59 -61 76 -61 8 0 14 -7 14 -15 0 -11 -7 -10
-35 6 -19 12 -42 18 -51 15 -15 -6 -15 -8 -1 -30 15 -22 15 -24 -3 -29 -19 -5
-18 -7 4 -53 27 -55 59 -89 75 -79 7 3 11 -2 11 -14 0 -20 -1 -20 -36 4 -39
27 -59 31 -69 15 -8 -13 14 -46 41 -60 21 -12 21 -13 3 -31 -10 -10 -28 -19
-39 -19 -11 0 -20 -7 -20 -14 0 -21 65 -68 95 -70 21 -1 25 -6 25 -30 l0 -30
-35 34 c-25 25 -38 31 -46 23 -16 -16 18 -82 53 -102 15 -9 28 -20 28 -24 0
-5 -10 -1 -22 7 -28 20 -58 21 -58 2 0 -18 38 -46 62 -46 17 0 18 -23 18 -401
0 -288 3 -406 12 -422 7 -14 13 -100 16 -241 l5 -220 -25 20 c-118 92 -235
177 -281 203 -43 24 -56 38 -59 58 -4 34 -22 40 -36 11 -6 -14 -11 -17 -11 -8
0 8 6 24 14 34 17 23 20 66 5 66 -6 0 -19 -14 -29 -31 -19 -31 -19 -31 -31
-10 -6 12 -15 19 -19 16 -5 -2 -11 9 -15 25 -3 17 -10 30 -15 30 -16 0 -33
-40 -28 -61 3 -10 2 -19 -3 -19 -4 0 -10 10 -14 23 -3 13 -17 36 -30 52 -20
23 -27 26 -39 17 -12 -10 -16 -9 -21 3 -3 8 -13 15 -22 15 -17 0 -16 -22 1
-63 13 -32 -19 -9 -35 25 -11 23 -23 33 -44 35 -27 4 -28 2 -23 -26 5 -22 3
-31 -7 -31 -9 0 -12 8 -8 25 2 13 1 32 -2 41 -6 15 -8 15 -25 -2 -10 -10 -16
-23 -14 -27 3 -5 -5 -4 -17 3 -28 15 -38 5 -17 -18 10 -10 14 -22 10 -25 -11
-12 -23 -8 -23 7 0 8 -5 27 -10 41 -8 21 -13 25 -23 16 -10 -8 -17 -7 -25 1
-22 22 -24 -1 -4 -37 14 -23 17 -35 9 -35 -7 0 -17 10 -22 23 -14 31 -69 32
-73 0 -4 -27 -33 -39 -44 -18 -13 23 -28 18 -28 -9 0 -26 -31 -41 -48 -24 -6
6 -15 7 -22 3 -8 -5 -7 -14 5 -31 8 -13 11 -24 6 -24 -5 0 -13 5 -16 10 -3 6
-19 10 -36 10 -16 0 -29 -4 -29 -10 0 -5 -9 -10 -20 -10 -28 0 -25 -18 5 -32
17 -8 22 -14 14 -19 -7 -4 -23 0 -36 8 -22 14 -25 14 -46 -3 -12 -11 -25 -23
-29 -29 -4 -5 -8 -6 -8 -2 0 5 -7 1 -16 -8 -12 -12 -13 -19 -5 -29 8 -9 8 -16
2 -20 -5 -4 -12 -2 -16 4 -3 5 -17 10 -31 10 -14 0 -22 -4 -19 -10 3 -5 1 -10
-5 -10 -6 0 -8 -4 -5 -10 3 -5 -3 -10 -14 -10 -12 0 -21 -4 -21 -10 0 -5 5
-10 11 -10 5 0 7 -5 3 -11 -5 -8 -10 -6 -16 5 -5 9 -14 14 -19 11 -5 -4 -7
-10 -4 -15 3 -5 -4 -12 -16 -15 -16 -5 -18 -9 -8 -15 10 -7 10 -11 0 -24 -11
-13 -11 -16 3 -16 9 0 16 -4 16 -10 0 -18 19 -10 25 11 6 17 9 19 16 8 6 -10
9 -10 9 -2 0 7 7 10 15 7 11 -5 15 2 16 27 l1 34 12 -29 c11 -23 14 -25 19
-12 4 10 12 14 18 10 8 -5 10 1 7 20 -3 14 -1 29 3 32 5 3 9 -2 9 -12 0 -13 3
-14 15 -4 8 7 15 21 15 31 0 11 5 19 10 19 6 0 10 -6 10 -14 0 -24 16 -27 38
-6 11 11 32 22 47 26 19 5 33 20 47 48 13 28 18 33 14 14 -8 -36 11 -46 26
-13 11 25 13 26 25 9 12 -17 16 -15 48 19 19 20 35 32 35 26 0 -5 5 -7 10 -4
6 3 10 17 10 31 0 13 5 24 10 24 6 0 10 -12 10 -27 0 -21 3 -24 12 -15 9 9 14
7 24 -6 13 -16 14 -15 20 6 7 24 30 30 37 10 3 -10 7 -10 19 0 9 7 23 10 32 6
12 -5 18 1 22 25 9 44 26 38 19 -6 l-6 -38 24 27 c14 15 27 33 30 40 2 7 8 10
12 5 5 -4 -1 -17 -13 -30 -26 -27 -28 -42 -7 -33 8 3 15 0 15 -5 0 -6 9 -9 20
-6 12 3 20 0 20 -8 0 -10 9 -10 43 2 23 8 49 21 58 29 31 28 31 13 0 -22 -39
-44 -31 -62 15 -34 27 17 33 18 28 6 -10 -25 14 -19 32 9 9 14 21 25 26 25 6
0 -4 -16 -21 -35 -35 -40 -40 -61 -13 -50 9 4 32 7 50 6 19 -1 48 5 65 14 l31
15 -24 -25 c-31 -33 -18 -44 21 -16 l30 22 52 -32 c29 -17 107 -73 174 -123
l123 -91 0 -691 c0 -380 2 -915 5 -1190 l5 -499 -24 77 c-34 106 -51 142 -167
356 -157 288 -216 388 -294 502 -39 58 -118 179 -175 270 -56 91 -132 203
-168 249 -62 79 -411 444 -412 429 0 -4 50 -73 111 -155 170 -225 200 -273
359 -578 192 -366 529 -962 727 -1285 l40 -65 7 -450 c3 -248 9 -488 11 -535
5 -98 10 -111 -67 200 -95 389 -186 625 -308 800 -61 88 -703 730 -708 708 -3
-16 46 -136 98 -238 143 -284 444 -781 670 -1105 85 -122 136 -210 216 -372
l104 -212 0 -87 0 -87 -21 27 c-11 15 -48 45 -81 67 -114 78 -205 176 -346
374 -259 363 -318 432 -482 558 -112 87 -483 385 -715 576 -161 132 -273 208
-379 256 -41 19 -94 46 -118 61 l-43 27 25 -28 c14 -15 106 -95 205 -178 99
-83 218 -185 265 -226 139 -123 544 -528 978 -976 224 -231 477 -492 564 -581
l158 -161 0 -58 0 -58 -37 6 c-21 4 -89 22 -150 42 l-113 36 0 79 c0 43 -5 91
-11 107 -25 67 -99 111 -248 149 -128 33 -249 33 -390 0 l-105 -25 -75 35
c-41 19 -189 95 -327 169 -398 213 -469 244 -627 271 -131 22 -195 39 -288 79
-45 19 -80 33 -78 31 56 -48 234 -196 329 -272 261 -210 445 -336 553 -379 47
-19 67 -32 63 -41 -5 -14 -30 -235 -41 -377 -6 -73 -8 -77 -33 -83 -15 -3 -49
-12 -77 -20 -104 -28 -138 -31 -175 -15 -19 8 -66 15 -105 15 -129 2 -188 -63
-207 -226 l-11 -93 -69 -2 c-107 -3 -114 -9 -166 -148 -73 -198 -92 -287 -92
-441 0 -152 -21 -334 -50 -425 -10 -35 -17 -65 -15 -67 11 -12 70 25 107 67
56 63 98 156 110 243 22 169 57 274 127 392 41 69 61 81 61 39 0 -35 19 -103
28 -103 4 1 23 9 42 19 l35 19 28 -50 c43 -75 89 -93 227 -84 58 3 125 9 149
12 l43 7 -17 -26 -17 -27 33 6 c19 4 42 11 53 16 15 8 29 -1 81 -52 l62 -62
-4 -86 c-7 -110 8 -166 53 -207 l34 -31 0 -151 0 -150 -102 -5 c-122 -6 -174
-27 -209 -85 -36 -61 -60 -83 -91 -83 -35 0 -96 -30 -142 -70 -34 -30 -34 -30
-72 -14 -56 24 -448 12 -585 -17 -52 -11 -123 -24 -159 -28 -36 -5 -77 -12
-91 -16 -17 -4 -53 2 -100 16 -52 17 -99 23 -159 24 -73 0 -93 -4 -142 -28
-61 -30 -107 -77 -138 -142 -52 -111 -66 -631 -20 -795 20 -72 26 -74 105 -35
93 46 173 111 235 193 28 37 97 160 155 277 71 144 115 221 139 244 l36 35 38
-36 c50 -50 115 -78 179 -78 29 0 108 12 174 26 130 28 187 28 219 -1 20 -18
36 -56 66 -158 20 -68 62 -111 126 -127 24 -6 49 -13 56 -15 25 -9 14 -96 -22
-167 l-33 -66 -32 31 c-28 28 -38 32 -85 32 -70 -1 -139 -37 -241 -126 -60
-52 -101 -78 -165 -105 -47 -19 -103 -47 -125 -63 l-40 -27 -17 -199 c-9 -110
-18 -254 -21 -320 l-3 -120 -95 -7 c-102 -7 -240 -45 -281 -78 -23 -18 -26
-30 -38 -152 -16 -156 -18 -301 -7 -342 l8 -29 50 49 c68 66 145 169 217 286
l59 97 16 -28 c30 -52 103 -110 146 -117 l39 -6 -24 -64 c-30 -81 -30 -116 1
-290 33 -185 33 -309 1 -424 -6 -22 -2 -20 28 14 44 48 70 101 92 186 14 54
16 95 10 250 -5 170 -4 191 16 257 13 45 27 74 37 77 9 3 72 6 142 8 l125 3
95 -48 c51 -26 146 -74 209 -107 155 -80 222 -95 397 -87 148 7 178 0 186 -42
3 -14 29 -64 58 -111 69 -113 89 -158 89 -202 0 -55 -8 -68 -44 -68 -17 0 -45
-4 -63 -9 l-32 -9 -41 79 c-62 120 -124 155 -254 147 -56 -4 -92 -14 -162 -45
-49 -22 -100 -43 -113 -46 -14 -4 -63 4 -109 16 -82 22 -84 22 -98 3 -8 -11
-14 -36 -14 -55 0 -20 -11 -85 -25 -146 -28 -125 -33 -260 -12 -343 15 -57 14
-62 -18 -62 -30 0 -114 -44 -152 -79 -31 -28 -33 -35 -33 -93 0 -35 5 -112 10
-173 9 -96 16 -120 49 -190 78 -159 90 -267 41 -358 -49 -92 -38 -192 35 -338
30 -59 65 -104 65 -83 0 5 -15 56 -34 114 -53 165 -54 181 -17 250 74 139 87
234 51 375 -23 88 -27 243 -9 341 17 100 17 100 53 47 26 -39 31 -53 25 -76
-9 -31 1 -100 27 -197 22 -85 23 -213 1 -262 -20 -46 -9 -48 38 -6 71 62 80
92 80 275 l0 163 40 27 c22 14 68 51 103 80 35 29 69 53 75 53 7 0 39 -8 72
-18 56 -17 60 -20 71 -58 18 -62 52 -122 76 -135 14 -7 55 -10 119 -7 l98 5 6
-46 c16 -122 87 -288 173 -405 l37 -51 6 140 c3 77 9 162 14 189 l8 48 21 -25
c27 -33 81 -47 185 -47 l83 0 122 -72 c190 -112 356 -222 356 -235 0 -7 5 -13
10 -13 16 0 12 -70 -4 -76 -8 -3 -28 4 -44 16 -28 21 -31 21 -61 6 -32 -17
-85 -82 -96 -117 -11 -33 -22 -12 -29 53 -9 80 -30 113 -86 140 -36 18 -63 22
-135 23 -89 0 -94 -1 -187 -47 -101 -50 -137 -57 -178 -33 -37 21 -68 18 -116
-10 -53 -31 -64 -63 -64 -193 l0 -93 -31 23 c-29 21 -41 23 -172 23 -98 0
-164 -5 -212 -17 -114 -27 -127 -28 -195 -11 -111 28 -181 -3 -223 -97 -18
-39 -21 -71 -25 -244 -3 -133 0 -217 8 -253 6 -29 14 -53 16 -53 19 0 86 46
120 82 61 64 78 93 137 231 30 69 62 138 71 152 16 24 46 35 46 16 0 -5 15
-19 34 -30 41 -25 94 -27 182 -5 84 21 109 12 124 -48 24 -96 34 -112 76 -132
40 -19 42 -21 53 -87 6 -37 20 -88 31 -114 26 -60 25 -117 -2 -210 l-22 -75
20 -27 c30 -40 44 -40 44 0 0 27 11 48 43 87 57 71 62 79 99 206 l33 111 40
11 c22 6 48 14 57 17 13 5 22 -4 39 -37 67 -133 116 -172 238 -191 54 -8 87
-18 91 -27 4 -8 24 -51 45 -95 51 -104 52 -153 7 -225 l-33 -52 38 7 c53 10
110 41 130 71 14 22 15 32 4 75 -7 28 -10 64 -7 82 7 38 41 97 56 97 6 0 10
-99 10 -284 0 -318 -3 -305 75 -314 31 -3 52 0 69 12 l25 16 5 307 c2 170 4
387 4 483 1 194 5 222 38 210 17 -7 24 -22 33 -72 12 -66 10 -88 -25 -221 -14
-55 -15 -75 -6 -105 11 -36 122 -175 132 -165 3 2 5 80 5 171 l0 167 47 99
c33 70 55 103 76 116 60 37 98 108 132 253 11 44 23 83 27 86 88 66 453 291
473 291 18 0 63 -92 91 -186 32 -107 53 -242 47 -309 -4 -57 12 -59 48 -5 52
79 67 225 40 400 -7 47 -12 86 -11 88 1 1 36 -9 78 -23 81 -27 159 -32 194
-12 25 14 49 44 86 108 14 25 42 60 62 78 45 39 91 41 225 6 135 -35 180 -33
221 7 18 18 42 55 55 82 l23 49 15 -36 c56 -134 126 -397 126 -471 0 -52 18
-55 61 -9 52 56 71 128 71 257 0 56 -8 146 -16 200 -18 117 -31 135 -138 192
-49 25 -88 38 -130 42 -59 5 -63 7 -124 68 -73 73 -94 79 -218 72 -89 -6 -215
-44 -344 -103 -133 -62 -182 -114 -182 -193 0 -37 -6 -50 -35 -79 -20 -20 -37
-34 -39 -32 -2 2 -9 60 -16 129 -22 234 -64 443 -96 474 -20 20 -68 20 -170 0
-87 -17 -78 -18 -254 32 -105 30 -277 -1 -347 -61 -37 -32 -38 -34 -40 -106
-1 -41 -2 -80 -2 -87 -1 -12 -28 -26 -75 -38 -19 -4 -25 -1 -30 19 -3 13 -24
41 -46 61 -39 35 -40 37 -40 104 0 44 5 75 15 88 8 10 15 26 15 35 0 18 104
116 337 316 l151 131 104 32 c112 35 176 64 196 89 8 10 11 33 8 64 l-5 48 85
62 c47 34 98 65 114 68 l30 6 0 -91 c0 -121 19 -203 76 -333 35 -81 51 -133
62 -208 20 -134 19 -359 -2 -453 -9 -40 -16 -78 -16 -83 0 -38 88 44 127 118
63 121 90 258 99 503 5 123 13 201 35 307 25 124 49 371 49 505 0 33 4 38 52
65 l52 30 103 -34 c145 -47 209 -52 262 -23 44 25 76 66 115 145 l24 50 30
-65 c63 -137 66 -154 69 -329 2 -157 3 -166 30 -218 17 -34 53 -79 95 -118 67
-62 68 -63 68 -115 0 -29 -7 -97 -16 -152 -8 -54 -14 -104 -11 -111 11 -33 82
159 93 251 9 86 -7 131 -65 180 -40 34 -51 51 -61 93 -16 66 -6 162 26 255 28
83 31 156 9 294 -22 142 -20 136 -72 156 -45 18 -155 23 -258 14 -33 -4 -49 2
-94 33 -53 37 -73 42 -161 38 -58 -3 -185 -35 -263 -66 -49 -20 -63 -23 -75
-12 -11 8 -66 12 -191 12 l-176 0 -93 48 c-151 79 -295 95 -452 51 -114 -32
-143 -68 -165 -200 -8 -48 -18 -91 -23 -96 -11 -11 -209 -47 -258 -48 -18 0
-38 8 -48 18 -15 17 -15 22 0 57 8 21 18 69 21 106 l6 69 95 30 c53 16 161 44
241 61 97 20 158 39 183 54 53 35 100 108 149 232 8 22 10 22 50 8 91 -32 155
-11 205 69 35 55 64 61 64 14 l0 -31 23 20 c12 12 42 24 67 28 95 15 125 45
143 143 8 40 22 81 33 93 20 22 32 23 196 3 73 -9 100 -1 148 42 43 39 77 41
65 4 -4 -12 -7 -67 -8 -123 -1 -134 17 -198 79 -266 25 -28 49 -51 54 -51 4 0
2 17 -5 38 -19 53 -28 146 -20 189 l7 37 31 -60 c72 -132 136 -203 228 -249
38 -20 54 -24 63 -15 27 26 17 360 -15 548 -14 81 -59 149 -116 176 l-41 20
171 79 c93 44 186 81 206 84 20 3 110 -5 201 -16 91 -12 213 -24 272 -28 103
-6 108 -5 153 21 25 15 62 50 81 77 20 27 37 49 39 49 2 0 28 -46 57 -103 66
-126 167 -278 249 -376 l63 -75 14 35 c8 19 17 83 19 144 5 117 -20 453 -36
484 -26 48 -232 128 -363 140 -94 9 -104 14 -190 89 -103 91 -283 126 -534
103 -241 -21 -336 -49 -383 -113 l-29 -40 -7 49 c-4 26 -14 81 -22 122 -8 40
-20 116 -26 168 -15 121 -22 127 -113 94 -85 -30 -119 -25 -220 32 -138 79
-231 85 -325 22 l-51 -35 7 43 c10 60 27 97 88 190 63 96 87 140 87 161 0 9
24 31 53 49 64 41 87 83 87 159 0 29 3 84 7 122 l6 68 126 101 c186 148 166
139 298 132 108 -6 115 -5 173 21 33 15 62 25 65 23 18 -19 36 -137 34 -229
-5 -217 -6 -207 50 -316 l52 -99 -12 -95 c-19 -159 6 -259 74 -300 49 -31 57
-26 40 23 -19 53 -12 178 17 292 25 101 26 165 2 196 -37 48 -35 57 25 177
l58 115 -2 106 c0 58 -8 162 -17 231 -9 68 -16 131 -16 139 0 12 -21 13 -127
8 -107 -4 -142 -2 -213 15 -86 20 -138 20 -222 -3 -49 -13 -107 -73 -193 -196
l-69 -101 -50 -5 c-45 -5 -56 -12 -94 -53 -23 -25 -45 -57 -48 -70 -7 -25 -10
-27 -164 -63 -47 -12 -96 -24 -109 -27 l-24 -7 6 109 c4 60 9 145 13 189 9
120 -26 213 -114 307 l-35 36 79 40 c101 51 227 95 329 116 44 9 112 32 152
51 123 60 392 264 508 384 l39 41 -44 2 c-82 4 -184 -3 -275 -19 -49 -8 -169
-18 -265 -22 -198 -8 -212 -12 -399 -116 -54 -30 -125 -62 -157 -72 -48 -15
-75 -34 -162 -113 -131 -120 -156 -140 -213 -173 -33 -19 -49 -23 -57 -15 -6
6 -41 13 -79 15 -71 5 -86 0 -210 -73 -27 -16 -35 -17 -56 -5 l-25 13 34 45
c30 39 84 180 84 218 0 15 165 156 307 264 80 59 86 62 161 71 151 17 183 32
358 172 72 58 138 107 147 111 10 4 57 11 105 17 146 18 216 32 245 49 26 15
87 94 87 113 0 20 19 5 31 -24 38 -92 187 -283 206 -264 10 9 6 242 -4 341
l-8 70 -50 18 c-39 14 -70 16 -143 13 -89 -5 -94 -4 -139 24 -76 48 -180 41
-351 -24 -159 -61 -202 -104 -243 -241 -31 -104 -62 -151 -117 -179 -26 -13
-133 -47 -237 -76 -265 -71 -275 -77 -427 -228 -142 -143 -167 -149 -94 -23
65 112 74 140 101 300 43 254 51 279 102 341 24 30 89 102 142 160 394 425
1063 1229 1377 1655 l29 40 -35 -27 c-59 -46 -270 -198 -406 -293 -164 -116
-280 -226 -396 -378 -107 -143 -550 -698 -553 -694 -1 1 4 40 11 87 17 111 29
407 20 492 -7 62 -9 67 -26 58 -29 -15 -112 -125 -200 -265 -45 -72 -111 -160
-146 -197 -83 -86 -115 -156 -159 -347 -43 -188 -54 -211 -55 -115 0 78 30
262 56 339 11 32 90 153 224 340 222 311 311 442 481 707 135 209 166 251 318
413 66 71 121 133 121 137 0 13 -260 -202 -352 -290 -48 -47 -140 -152 -204
-236 -65 -83 -143 -180 -173 -216 -83 -96 -116 -139 -213 -284 -48 -71 -88
-126 -88 -121 0 6 5 29 10 53 58 251 169 1104 200 1537 17 233 14 243 -38 113
-75 -190 -129 -377 -227 -783 -74 -307 -121 -603 -126 -783 l-1 -47 -8 51 c-4
28 -9 215 -11 415 l-3 364 82 475 c44 261 101 621 127 800 59 421 77 518 131
734 25 98 43 180 41 183 -5 4 -112 -291 -146 -402 -12 -38 -44 -180 -72 -315
-27 -135 -58 -281 -69 -326 -11 -45 -40 -209 -64 -365 l-43 -284 -6 295 c-4
162 -10 468 -13 680 l-6 385 36 97 c19 54 58 152 87 218 45 102 56 120 75 120
29 0 54 10 54 21 0 5 -14 9 -31 9 -17 0 -28 4 -24 10 3 6 17 10 30 10 12 0 37
14 55 30 18 17 38 30 45 30 20 0 28 17 12 27 -7 4 -16 16 -20 26 -5 13 -1 17
16 17 12 0 29 4 37 10 11 7 8 11 -15 20 -16 6 -37 9 -47 7 -10 -3 -18 -1 -18
4 0 5 10 9 23 9 35 1 102 36 87 45 -10 6 -7 11 10 17 29 11 21 19 -27 28 l-38
8 43 1 c50 1 54 23 6 31 -19 4 -25 8 -17 13 7 4 21 3 32 -3 11 -5 27 -10 35
-10 27 0 18 21 -14 33 -39 15 -33 33 10 29 20 -2 30 0 26 6 -3 6 3 13 14 17
31 10 24 25 -12 25 -24 0 -29 3 -20 12 9 9 18 9 37 0 35 -16 46 -15 39 3 -4 9
0 15 10 15 27 0 18 19 -11 26 -47 10 -49 11 -23 22 17 6 33 6 48 -1 27 -12 39
-3 23 17 -10 11 -9 15 6 18 15 3 12 7 -12 20 l-30 17 30 -2 c19 -1 29 2 27 11
-1 6 2 12 6 12 5 0 17 7 28 16 18 14 17 15 -15 11 -19 -2 -47 3 -63 11 -31 15
-49 9 -31 -9 8 -8 8 -18 1 -35 -9 -18 -16 -22 -35 -18 -28 8 -29 1 -2 -25 15
-14 17 -21 8 -26 -7 -5 -16 -1 -21 9 -13 23 -31 9 -24 -20 5 -18 3 -22 -9 -18
-8 4 -15 2 -15 -4 0 -6 -9 -8 -20 -5 -16 4 -20 0 -20 -21 0 -15 -4 -25 -9 -21
-19 11 -20 -13 -2 -37 11 -14 16 -30 12 -36 -5 -9 -11 -5 -19 13 -12 26 -32
34 -32 13 0 -6 7 -19 16 -29 11 -12 13 -23 7 -34 -8 -14 -11 -12 -21 10 -13
28 -32 25 -32 -5 0 -13 -5 -17 -15 -14 -20 8 -21 -49 0 -66 8 -7 12 -17 9 -22
-4 -5 -15 4 -25 22 -21 34 -43 31 -37 -4 4 -19 1 -22 -17 -18 -21 4 -22 1 -15
-42 4 -25 13 -52 20 -61 23 -28 1 -29 -26 -2 -30 30 -54 35 -54 12 0 -18 44
-65 60 -65 6 0 8 -5 5 -10 -4 -6 -12 -4 -21 5 -9 8 -20 15 -25 15 -17 0 -9
-29 14 -45 20 -14 21 -15 2 -13 -11 2 -31 11 -45 21 -13 9 -28 17 -32 17 -14
0 -9 -27 7 -40 13 -11 13 -15 3 -21 -10 -6 -7 -15 13 -35 l27 -26 -40 -87
c-22 -47 -59 -134 -83 -194 l-42 -107 -6 157 c-4 87 -7 321 -7 521 l0 362 23
-5 c27 -7 77 10 77 26 0 6 -9 13 -20 16 -19 5 -20 7 -4 24 9 10 13 22 10 27
-3 5 1 15 9 22 22 18 18 40 -6 40 -17 0 -19 3 -10 14 6 7 12 35 13 60 1 26 8
52 15 58 39 32 -21 54 -63 23 -26 -20 -34 -19 -34 5 0 11 6 20 14 20 17 0 66
56 66 75 0 7 7 18 15 25 46 38 -21 57 -69 19 -43 -34 -29 -2 19 44 43 42 58
77 33 77 -7 0 -27 -14 -45 -32 l-33 -32 0 36 c0 28 5 38 21 43 21 7 59 60 59
83 0 6 -7 12 -15 12 -12 0 -13 4 -5 19 14 27 13 71 -3 71 -7 0 -23 -7 -35 -16
-21 -15 -22 -14 -22 14 0 23 6 32 30 42 38 16 56 45 35 57 -13 8 -13 12 0 37
19 36 19 46 0 46 -8 0 -15 7 -15 15 0 18 -21 20 -40 3 -8 -7 -5 -2 6 12 32 38
56 92 45 103 -6 6 -21 3 -40 -6 -17 -9 -31 -11 -31 -6 0 5 11 14 23 20 21 10
57 56 57 74 0 3 -10 3 -21 0 -21 -7 -21 -6 -5 16 22 31 20 38 -6 31 -22 -5
-22 -5 -5 21 21 33 21 38 1 30 -14 -5 -15 -3 -5 15 14 26 15 54 1 32 -8 -12
-10 -10 -10 8 0 13 5 32 10 43 12 21 1 26 -18 7 -15 -15 -15 -3 0 25 6 12 12
35 13 50 2 23 -2 28 -17 24 -22 -6 -23 1 -3 23 9 9 12 25 8 39 -6 23 -7 23
-20 6 -12 -17 -13 -17 -13 -2 0 9 4 17 10 17 17 0 30 38 24 69 -7 36 -20 40
-29 10 l-7 -21 -22 21 c-24 23 -36 26 -36 12z m38 -426 c-3 -3 -9 2 -12 12 -6
14 -5 15 5 6 7 -7 10 -15 7 -18z m52 -194 c0 -6 -4 -13 -10 -16 -5 -3 -10 1
-10 9 0 9 5 16 10 16 6 0 10 -4 10 -9z m-30 -573 c0 -18 -2 -20 -9 -8 -6 8 -7
18 -5 22 9 14 14 9 14 -14z m40 -42 c0 -3 -4 -8 -10 -11 -5 -3 -10 -1 -10 4 0
6 5 11 10 11 6 0 10 -2 10 -4z m-40 -156 c0 -11 -2 -20 -5 -20 -2 0 -9 9 -15
20 -9 16 -8 20 5 20 8 0 15 -9 15 -20z m34 -175 c-25 -19 -34 -19 -34 0 0 10
10 15 27 15 26 0 26 -1 7 -15z m276 -575 c0 -5 -7 -10 -16 -10 -8 0 -12 5 -9
10 3 6 10 10 16 10 5 0 9 -4 9 -10z m-25 -40 c-3 -5 -10 -10 -16 -10 -5 0 -9
5 -9 10 0 6 7 10 16 10 8 0 12 -4 9 -10z m-1237 -355 c-3 -3 -9 2 -12 12 -6
14 -5 15 5 6 7 -7 10 -15 7 -18z m-95 -70 c-3 -9 -8 -14 -10 -11 -3 3 -2 9 2
15 9 16 15 13 8 -4z m627 -44 c0 -5 -11 -11 -25 -13 -20 -4 -23 -3 -14 8 13
16 39 19 39 5z m-843 -93 c-3 -8 -6 -5 -6 6 -1 11 2 17 5 13 3 -3 4 -12 1 -19z
m503 -4558 c80 -40 159 -83 176 -95 29 -22 31 -27 27 -72 -4 -42 -1 -53 20
-79 25 -29 82 -54 125 -54 40 0 44 -56 5 -71 -16 -6 -59 -26 -97 -45 -87 -43
-142 -45 -206 -7 -25 14 -109 56 -188 92 l-143 66 -24 59 c-23 57 -24 61 -10
130 8 39 27 103 41 143 l26 72 51 -33 c29 -19 117 -66 197 -106z m-871 -299
c36 -33 92 -56 122 -48 15 4 19 0 19 -21 0 -15 -5 -44 -10 -64 l-11 -37 -56
25 c-31 13 -85 30 -119 36 l-62 12 20 41 c17 33 55 85 64 85 1 0 16 -13 33
-29z m457 -228 c29 -19 144 -25 194 -11 22 7 29 2 53 -32 52 -77 135 -101 216
-62 l37 18 40 -74 c51 -98 104 -157 157 -176 23 -9 105 -25 182 -36 228 -33
209 -24 218 -102 6 -53 5 -73 -7 -97 -24 -45 -19 -94 15 -174 89 -205 89 -207
69 -207 -13 0 -21 13 -30 51 -8 33 -25 66 -46 89 -19 21 -54 79 -79 129 -85
174 -166 228 -429 291 -79 19 -217 26 -265 13 l-24 -6 7 -111 c3 -61 13 -140
21 -175 18 -74 18 -72 -59 -96 -54 -16 -162 -20 -170 -6 -3 4 -10 98 -15 207
-13 276 -25 312 -133 416 -77 73 -80 79 -74 111 4 19 20 54 37 77 l31 43 13
-31 c8 -17 26 -39 41 -49z m1045 -55 c8 -15 8 -18 0 -14 -6 4 -16 16 -22 28
-8 15 -8 18 0 14 6 -4 16 -16 22 -28z m904 -55 c14 -21 25 -41 25 -45 0 -5
-34 -8 -75 -8 -79 0 -94 11 -57 42 13 12 70 46 79 48 1 0 14 -17 28 -37z m74
-204 c1 -49 -25 -167 -34 -157 -2 1 2 59 8 127 11 125 25 141 26 30z m-84
-363 c0 -68 3 -79 32 -120 l32 -45 -34 -21 c-79 -49 -153 -168 -190 -305 l-18
-66 -62 -28 c-105 -48 -172 -124 -221 -251 -9 -25 -32 -61 -49 -80 -18 -19
-47 -57 -64 -84 l-31 -50 0 48 c0 34 7 56 24 79 36 48 53 88 72 162 15 61 24
75 98 154 78 84 82 90 109 181 64 219 111 304 230 428 39 39 71 72 71 72 1 0
1 -33 1 -74z m-695 -423 c0 -23 -5 -33 -15 -33 -16 0 -21 43 -9 75 10 24 24
-1 24 -42z m-880 -68 c42 -54 42 -55 27 -87 -40 -85 -27 -133 54 -195 l49 -37
-31 -13 c-18 -7 -58 -29 -91 -49 -60 -37 -84 -39 -121 -12 -16 12 -16 16 4 68
17 42 24 89 29 195 8 144 17 198 30 190 4 -2 26 -29 50 -60z m1884 19 c10 -74
7 -139 -6 -156 -7 -8 -49 -35 -93 -58 -112 -60 -197 -122 -236 -172 -18 -24
-52 -61 -75 -83 -31 -30 -47 -57 -64 -110 -30 -93 -54 -138 -97 -186 -49 -54
-112 -84 -219 -104 -49 -10 -97 -21 -106 -26 -15 -8 -18 -5 -18 17 0 18 22 53
73 112 113 134 317 362 476 535 128 139 156 163 226 202 44 24 89 51 100 59
29 22 32 21 39 -30z m-1531 -51 c8 -16 17 -47 20 -70 3 -24 16 -56 29 -72 12
-16 34 -47 46 -68 13 -21 60 -67 105 -103 79 -63 83 -69 107 -140 35 -101 40
-109 131 -207 l79 -85 0 -85 0 -84 -25 18 c-22 17 -65 97 -65 123 0 6 -9 28
-20 49 -19 38 -59 76 -149 143 -65 49 -169 247 -232 442 -27 83 -49 154 -49
158 0 16 10 8 23 -19z m-796 -274 c38 -13 41 -26 53 -214 5 -77 12 -155 16
-173 l7 -32 -84 36 c-75 32 -257 104 -349 138 -28 10 -41 25 -61 68 -26 51
-26 57 -15 114 l12 59 28 -47 c38 -64 79 -98 121 -98 26 0 50 13 107 59 40 32
82 68 92 80 22 24 31 25 73 10z m2751 -74 c124 -59 154 -63 233 -30 14 5 19
-6 30 -62 14 -75 17 -236 5 -325 l-7 -57 -42 -6 c-23 -3 -103 -5 -177 -3
l-134 3 -46 90 c-42 84 -45 94 -44 170 0 67 5 92 31 150 16 39 33 78 36 88 9
25 34 21 115 -18z m-2002 -43 c21 -17 120 -152 111 -152 -3 0 -37 38 -76 85
-68 81 -80 104 -35 67z m-164 -188 c1 -30 -1 -54 -6 -54 -5 0 -39 -16 -77 -35
-93 -47 -179 -75 -234 -75 l-45 0 0 67 c0 36 5 95 11 130 10 58 13 63 38 64
14 0 55 8 91 18 l65 17 77 -39 76 -38 4 -55z m348 -159 c71 -47 104 -76 123
-107 24 -41 25 -43 6 -50 -11 -4 -24 -19 -31 -33 -11 -24 -12 -24 -30 -8 -11
10 -35 45 -54 79 -33 59 -82 112 -149 161 l-30 22 33 1 c25 0 59 -17 132 -65z
m-1055 -254 c60 -28 132 -27 219 4 39 13 71 23 71 22 1 -1 21 -36 44 -77 84
-147 177 -237 275 -265 28 -8 148 -26 266 -41 118 -14 218 -29 222 -33 6 -5
29 -101 24 -101 0 0 -41 20 -91 45 -49 25 -92 45 -96 45 -4 0 13 -35 37 -77
l44 -78 -38 -5 c-21 -3 -54 -18 -73 -33 -20 -15 -39 -27 -44 -27 -4 0 -27 18
-51 40 -23 21 -54 42 -68 46 -37 9 -103 -26 -180 -97 -71 -66 -87 -69 -134
-25 -32 29 -55 75 -85 176 -32 104 -47 126 -93 139 -39 11 -79 5 -212 -29
-104 -26 -132 -26 -132 0 0 11 -16 38 -36 60 -40 44 -70 50 -114 25 -39 -22
-46 -19 -89 42 -48 67 -51 94 -15 164 14 28 34 83 43 122 l18 70 64 16 64 16
58 -61 c31 -34 78 -71 102 -83z m2170 50 c17 -7 13 -11 -28 -35 -26 -16 -111
-73 -188 -127 -77 -54 -149 -99 -159 -99 -10 0 -25 -11 -34 -25 -9 -14 -39
-36 -66 -50 -33 -17 -67 -47 -102 -91 l-53 -66 -3 80 -3 79 54 57 c46 47 65
59 123 77 94 29 147 57 232 124 40 31 85 63 100 71 29 15 94 18 127 5z m-755
-51 c17 0 20 -7 20 -40 0 -22 -2 -40 -4 -40 -8 0 -44 64 -50 90 -6 21 -5 22 4
8 6 -10 20 -18 30 -18z m1132 -245 l4 -35 -103 -55 c-56 -29 -130 -72 -165
-94 -34 -22 -64 -39 -65 -37 -1 1 6 29 15 61 l17 60 133 68 c74 37 139 67 147
67 7 0 15 -15 17 -35z m-2832 -228 l145 -72 7 -163 c9 -230 27 -259 164 -270
44 -3 83 1 125 13 78 21 102 16 188 -40 68 -46 69 -47 75 -99 9 -68 -7 -163
-38 -232 -25 -53 -25 -54 -68 -54 -57 0 -326 27 -364 36 -93 22 -132 65 -184
200 -44 118 -76 157 -147 184 -85 32 -212 58 -352 71 l-124 13 6 120 c4 67 12
146 19 176 l14 55 56 -3 c60 -4 90 7 194 74 57 36 111 63 129 63 6 1 75 -32
155 -72z m1932 -217 c16 0 11 -9 -25 -43 -28 -27 -48 -58 -55 -83 l-10 -39 -1
56 c-1 31 2 71 5 89 6 29 9 31 37 26 16 -3 38 -6 49 -6z m-678 -256 c18 -18
21 -50 5 -60 -15 -9 -26 5 -34 44 -7 35 4 42 29 16z m1502 -311 c29 -65 69
-213 79 -290 7 -52 7 -53 -20 -53 -14 0 -68 5 -118 11 -124 15 -163 4 -231
-64 -28 -29 -88 -106 -133 -172 -45 -66 -120 -161 -166 -210 -72 -78 -92 -93
-138 -108 -98 -30 -140 -65 -187 -153 l-41 -79 -1 119 c0 112 2 121 25 152 34
44 135 79 225 77 82 -2 97 10 105 86 13 125 11 121 56 121 22 0 55 6 73 14 55
23 66 48 66 151 l0 90 53 -3 c73 -5 108 24 131 108 14 48 21 60 38 60 59 0
128 70 128 129 0 23 17 71 25 71 3 0 17 -26 31 -57z m-1323 -304 c244 -237
248 -242 206 -299 l-22 -28 22 -46 c19 -39 21 -55 15 -115 -6 -65 -8 -70 -25
-60 -11 5 -48 70 -83 143 -35 73 -78 147 -95 164 -18 17 -92 77 -166 133 -74
56 -135 105 -135 109 0 4 7 24 15 43 19 45 19 110 1 170 l-14 47 26 -21 c15
-11 129 -119 255 -240z m-449 -257 c57 -36 59 -39 91 -127 76 -215 141 -251
432 -238 l133 6 0 -144 c-1 -191 6 -184 -139 -158 -130 23 -159 35 -218 92
-32 31 -43 49 -43 72 -1 82 -77 167 -232 258 -91 54 -96 59 -102 97 -7 43 3
180 13 179 3 0 32 -17 65 -37z m-450 -300 l109 -57 34 -90 c31 -78 34 -99 31
-160 -3 -58 -11 -87 -51 -170 -43 -92 -49 -100 -74 -98 -38 3 -47 16 -102 140
-66 152 -101 198 -166 222 -54 20 -178 41 -245 41 -46 0 -52 12 -40 82 13 78
19 91 44 83 66 -20 102 -17 191 18 123 47 118 45 140 46 11 0 69 -25 129 -57z
m660 -512 c107 -70 163 -96 253 -121 43 -12 88 -30 99 -41 20 -18 21 -22 8
-47 -17 -34 -6 -74 39 -140 28 -41 29 -48 28 -139 -1 -53 -4 -98 -6 -100 -2
-2 -26 30 -53 71 -65 96 -100 124 -160 132 -26 3 -56 8 -67 10 -40 8 -182 124
-264 216 -46 52 -90 98 -98 102 -21 13 -16 29 24 69 55 56 97 54 197 -12z
m1282 -116 c50 -90 92 -199 115 -303 10 -47 19 -89 19 -92 0 -3 -61 -9 -136
-12 -159 -7 -184 -16 -292 -107 -78 -65 -82 -64 -82 26 0 40 1 42 39 48 26 4
47 15 61 34 22 28 23 34 4 135 l-7 37 36 0 c51 0 77 26 85 85 6 44 11 52 41
66 42 20 60 52 61 107 0 23 4 42 10 42 5 0 26 -30 46 -66z m-436 -639 c-13
-14 -27 -25 -32 -25 -4 0 -8 11 -8 25 0 21 5 25 32 25 l31 0 -23 -25z m-1030
-162 c0 -28 47 -83 71 -83 21 0 39 -28 39 -60 0 -11 12 -32 26 -46 20 -20 33
-25 60 -22 l34 4 0 -56 -1 -55 -83 -37 c-99 -45 -128 -47 -202 -10 l-56 27 6
85 c8 93 36 227 61 287 l16 38 14 -25 c8 -14 14 -35 15 -47z m597 -150 c-2
-16 -4 -5 -4 22 0 28 2 40 4 28 2 -13 2 -35 0 -50z m-20 -445 c7 -6 13 -27 13
-47 l-1 -36 -16 30 c-8 17 -27 43 -42 58 l-26 28 30 -11 c16 -6 35 -16 42 -22z"/>
<path d="M4273 13787 c-2 -4 -9 -5 -14 -1 -11 7 -51 -35 -44 -46 2 -4 -6 -6
-19 -5 -17 2 -26 -3 -29 -17 -4 -12 -10 -17 -17 -13 -9 6 -10 -1 -5 -24 4 -20
3 -31 -4 -31 -6 0 -11 7 -11 15 0 8 -4 15 -10 15 -5 0 -10 -4 -10 -8 0 -4 -13
-16 -30 -25 -30 -18 -39 -44 -20 -63 7 -7 4 -16 -10 -29 -18 -16 -20 -17 -14
-2 3 9 3 25 -1 35 -6 16 -7 16 -20 -2 -8 -10 -18 -15 -23 -12 -12 7 -23 -43
-16 -75 5 -24 5 -23 -16 4 -28 36 -44 35 -37 -2 4 -19 2 -31 -6 -34 -9 -3 -8
-8 2 -21 9 -11 17 -14 24 -7 6 6 30 8 56 4 38 -5 44 -3 34 8 -20 20 -16 29 13
29 32 0 27 22 -7 30 -20 5 -16 7 19 12 46 7 81 36 59 50 -8 5 -6 8 6 8 9 0 17
5 17 11 0 5 5 7 10 4 6 -3 10 -1 10 5 0 6 -7 13 -15 16 -25 10 -6 25 22 18 17
-5 24 -3 19 4 -3 6 2 13 11 15 17 4 17 5 1 6 -18 1 -23 12 -12 24 4 3 13 0 21
-8 17 -18 33 -19 33 -4 0 5 5 7 10 4 20 -12 9 13 -12 29 -22 17 -19 17 31 1
20 -6 23 -4 18 9 -4 9 -1 16 5 16 7 0 3 7 -8 15 -18 14 -17 14 11 15 23 0 31
5 31 19 0 13 -7 18 -24 17 -13 0 -26 -4 -29 -9z m-178 -197 c3 -5 1 -10 -4
-10 -6 0 -11 5 -11 10 0 6 2 10 4 10 3 0 8 -4 11 -10z"/>
<path d="M2150 13540 c0 -6 -6 -10 -12 -9 -37 4 -54 -2 -54 -21 0 -17 5 -20
28 -15 23 5 27 4 22 -9 -3 -9 -1 -16 6 -16 6 0 8 -5 4 -11 -8 -13 33 -3 54 13
6 6 12 7 12 3 0 -4 -8 -14 -17 -21 -16 -12 -16 -15 -3 -24 22 -14 40 -12 46 5
4 8 13 15 22 15 13 0 12 -3 -4 -15 -17 -13 -17 -14 -1 -15 9 0 17 -5 17 -12 0
-6 8 -4 19 6 11 10 21 13 25 7 4 -5 2 -12 -4 -16 -5 -3 -10 -12 -10 -20 0 -14
29 -14 65 0 16 7 15 4 -5 -13 -21 -18 -22 -21 -7 -22 11 0 15 -4 11 -11 -5 -9
6 -10 40 -7 43 5 45 4 27 -9 -29 -20 -26 -35 6 -27 23 6 25 4 20 -15 -6 -26
18 -29 52 -5 15 11 26 13 32 7 7 -7 -1 -12 -21 -17 -36 -7 -32 -26 6 -26 13 0
24 -4 24 -10 0 -14 33 -13 48 2 8 8 12 8 12 1 0 -6 -7 -13 -15 -17 -8 -3 -15
-10 -15 -17 0 -6 6 -9 13 -6 10 4 13 -2 9 -20 -4 -23 -3 -24 17 -14 11 6 30
16 41 21 12 6 25 8 31 4 6 -3 -5 -13 -23 -22 -32 -17 -41 -40 -12 -34 8 2 14
-2 14 -8 0 -18 20 -11 44 15 20 22 25 23 36 10 10 -12 7 -15 -14 -21 -31 -7
-35 -24 -6 -24 12 0 20 -7 20 -16 0 -15 2 -15 26 1 40 26 54 3 18 -29 -26 -23
-27 -25 -8 -26 11 0 24 -4 30 -9 5 -6 25 -5 52 2 41 11 43 13 40 47 -2 22 -8
34 -16 32 -7 -1 -15 5 -18 13 -10 26 -34 17 -34 -12 0 -21 -3 -24 -12 -15 -9
9 -9 18 1 38 17 39 -3 54 -23 18 l-16 -29 7 45 c6 41 5 44 -10 31 -15 -12 -17
-11 -17 13 0 23 -3 25 -32 23 -21 -2 -38 3 -45 13 -11 13 -12 13 -13 -5 0 -13
-3 -16 -11 -8 -8 8 -7 17 2 31 15 25 6 40 -14 23 -18 -14 -50 19 -41 43 9 22
-12 20 -36 -4 -26 -26 -28 -25 -22 6 3 19 1 25 -7 20 -7 -5 -11 2 -11 19 0 32
-23 29 -28 -3 -5 -32 -22 -27 -22 6 -1 31 -24 67 -39 58 -5 -4 -12 -2 -16 4
-11 18 -25 10 -25 -15 0 -16 -5 -23 -13 -19 -7 2 -13 16 -12 31 0 21 -7 28
-37 39 -33 11 -39 11 -48 -4 -8 -14 -9 -13 -7 8 1 14 -3 25 -11 25 -7 0 -17 6
-21 14 -6 10 -13 11 -27 3 -14 -8 -23 -7 -36 5 -11 10 -18 12 -18 5 0 -7 -4
-12 -9 -12 -5 0 -7 9 -4 20 3 11 0 20 -6 20 -6 0 -11 -5 -11 -10z m185 -100
c3 -5 1 -10 -4 -10 -6 0 -11 5 -11 10 0 6 2 10 4 10 3 0 8 -4 11 -10z m525
-384 c0 -2 -7 -7 -16 -10 -8 -3 -12 -2 -9 4 6 10 25 14 25 6z"/>
<path d="M2925 13047 c-6 -28 -10 -33 -29 -30 -13 3 -32 -4 -46 -16 -25 -20
-25 -20 -3 -21 15 0 21 -5 17 -14 -7 -17 54 -30 99 -21 29 5 27 4 -10 -14 -53
-25 -57 -46 -9 -38 28 4 35 2 39 -13 3 -11 -1 -21 -10 -24 -20 -8 -6 -26 21
-26 12 0 27 -5 32 -10 6 -6 35 -11 65 -12 45 -2 54 1 53 15 -1 9 2 14 7 11 5
-3 9 2 9 10 0 9 -5 16 -10 16 -7 0 -7 6 0 19 29 55 -8 55 -39 1 -12 -22 -29
-40 -38 -40 -14 0 -14 3 1 25 18 27 21 55 6 55 -6 0 -6 10 1 27 7 18 6 30 -1
37 -13 13 -49 -29 -50 -57 0 -33 -24 -12 -26 23 -1 24 1 29 8 19 7 -10 8 -7 3
11 -4 14 -8 33 -9 42 -3 26 -14 32 -31 18 -13 -11 -15 -9 -15 14 0 39 -28 33
-35 -7z m132 -163 c-3 -3 -12 -4 -19 -1 -8 3 -5 6 6 6 11 1 17 -2 13 -5z"/>
<path d="M3093 12784 c-25 -11 -12 -25 20 -22 17 2 32 8 32 13 0 11 -33 17
-52 9z"/>
</g>
</svg>
