<?xml version="1.0" standalone="no"?>
<!DOCTYPE svg PUBLIC "-//W3C//DTD SVG 20010904//EN"
 "http://www.w3.org/TR/2001/REC-SVG-20010904/DTD/svg10.dtd">
<svg version="1.0" xmlns="http://www.w3.org/2000/svg"
 width="1342.000000pt" height="1536.000000pt" viewBox="0 0 1342.000000 1536.000000"
 preserveAspectRatio="xMidYMid meet">
<metadata>
Created by potrace 1.16, written by Peter Selinger 2001-2019
</metadata>
<g transform="translate(0.000000,1536.000000) scale(0.100000,-0.100000)"
fill="#000000" stroke="none">
<path d="M2333 15334 c-105 -52 -214 -201 -262 -357 -71 -234 -50 -486 108
-1267 85 -416 115 -590 135 -775 35 -331 30 -449 -25 -562 -52 -107 -114 -143
-389 -223 -390 -113 -566 -243 -1050 -770 -197 -214 -259 -277 -505 -505 -71
-66 -155 -153 -187 -194 -103 -129 -158 -265 -158 -392 0 -157 112 -395 244
-517 114 -105 225 -153 521 -227 318 -79 447 -132 551 -227 191 -175 243 -440
194 -993 -32 -371 -60 -509 -146 -718 -85 -208 -97 -251 -97 -362 0 -73 8
-140 31 -251 18 -84 39 -223 47 -311 19 -200 28 -236 108 -408 113 -245 149
-373 151 -542 l1 -93 48 0 c58 0 84 -22 112 -95 11 -28 48 -106 83 -174 53
-107 62 -132 62 -179 0 -48 2 -53 18 -47 75 32 112 43 116 36 3 -4 10 -30 16
-57 22 -96 71 -140 200 -174 72 -19 121 -49 180 -109 67 -69 113 -154 141
-258 18 -64 22 -117 26 -296 8 -319 -12 -575 -97 -1277 -47 -385 -63 -551 -85
-840 -35 -475 -79 -698 -177 -895 -70 -140 -195 -267 -315 -321 -28 -13 -116
-42 -194 -64 -271 -79 -359 -145 -395 -297 -31 -133 33 -202 186 -203 l75 0
-55 -30 c-64 -35 -120 -91 -120 -120 0 -80 211 -174 481 -214 478 -72 866 21
1057 254 58 70 116 194 142 301 11 46 36 192 55 324 129 884 243 1254 748
2451 91 214 188 445 217 514 29 69 53 126 55 128 1 2 45 -24 96 -56 240 -151
533 -309 1049 -567 551 -275 840 -430 1100 -588 693 -423 1141 -872 1415
-1421 123 -244 151 -364 99 -425 -64 -77 -168 -71 -864 48 -162 27 -352 55
-422 62 -173 16 -668 7 -803 -15 -287 -46 -474 -131 -611 -278 -126 -135 -149
-275 -61 -374 47 -55 100 -77 193 -82 85 -5 162 11 236 49 l37 19 -5 -48 c-7
-61 24 -124 83 -169 202 -151 803 -190 1768 -112 279 23 537 24 1130 8 826
-22 874 -22 971 -5 158 27 253 75 309 155 27 39 30 50 30 120 -1 74 -4 84 -53
182 -28 57 -83 146 -122 198 -38 52 -68 96 -66 98 1 2 84 -19 182 -46 1022
-279 2152 -358 3334 -231 113 13 206 24 208 25 9 8 -64 160 -107 226 -182 275
-501 475 -1046 653 -77 25 -292 88 -478 141 -336 95 -540 157 -565 173 -10 7
-5 42 22 168 142 656 182 976 173 1389 -8 341 -41 563 -132 882 -223 777 -712
1401 -1520 1940 -325 218 -665 400 -1355 729 -888 422 -1197 586 -1545 818
-269 179 -452 329 -750 616 -650 626 -1256 1100 -1815 1420 -287 164 -380 250
-441 410 -37 96 -49 216 -59 545 -6 226 -14 341 -25 390 -8 39 -62 210 -120
380 -119 356 -138 437 -138 590 -1 206 52 315 301 614 117 142 193 258 276
421 147 289 242 596 297 960 30 197 33 507 6 625 -54 233 -187 375 -352 375
-104 0 -255 -63 -385 -161 -230 -173 -408 -453 -603 -949 -47 -118 -91 -232
-98 -252 -7 -21 -16 -38 -20 -38 -17 0 -170 362 -219 519 -66 211 -74 276 -75
611 -2 366 -14 437 -93 546 -55 76 -131 92 -219 48z"/>
</g>
</svg>
