<?xml version="1.0" standalone="no"?>
<!DOCTYPE svg PUBLIC "-//W3C//DTD SVG 20010904//EN"
 "http://www.w3.org/TR/2001/REC-SVG-20010904/DTD/svg10.dtd">
<svg version="1.0" xmlns="http://www.w3.org/2000/svg"
 width="5548.000000pt" height="3736.000000pt" viewBox="0 0 5548.000000 3736.000000"
 preserveAspectRatio="xMidYMid meet">
<metadata>
Created by potrace 1.16, written by Peter Selinger 2001-2019
</metadata>
<g transform="translate(0.000000,3736.000000) scale(0.100000,-0.100000)"
fill="#000000" stroke="none">
<path d="M29103 37174 c-171 -354 -408 -911 -684 -1606 -52 -131 -97 -238
-101 -238 -5 0 -8 18 -8 41 0 37 -89 1205 -110 1454 -6 61 -10 182 -10 270 0
91 -4 155 -9 150 -8 -10 -34 -191 -46 -320 -26 -293 -58 -1657 -44 -1935 l9
-185 -44 -87 c-59 -116 -168 -309 -173 -304 -2 2 7 100 21 217 84 706 195
1972 172 1948 -2 -2 -21 -92 -41 -199 -19 -107 -69 -368 -110 -580 -96 -496
-121 -635 -199 -1096 -73 -428 -118 -643 -137 -655 -19 -11 -38 8 -45 47 -4
20 9 135 30 281 19 137 54 383 76 548 81 598 162 1092 248 1523 22 105 36 192
32 192 -7 0 -142 -421 -199 -620 -79 -278 -199 -784 -272 -1150 -24 -118 -45
-208 -47 -198 -4 22 44 642 68 878 35 339 130 1223 145 1354 14 116 14 164 1
125 -19 -56 -248 -1144 -300 -1426 -80 -431 -186 -1314 -186 -1545 0 -70 -12
-118 -30 -118 -5 0 -24 30 -41 66 -42 88 -63 98 -135 60 -30 -16 -56 -27 -58
-25 -2 2 -10 46 -17 97 -15 104 -19 75 61 412 28 118 100 458 160 755 60 297
125 616 145 709 19 93 34 174 32 180 -7 21 -197 -570 -332 -1034 -124 -424
-145 -491 -145 -464 0 18 -73 647 -99 853 l-27 213 22 84 c24 93 18 110 -12
37 l-20 -48 -43 310 c-24 171 -48 315 -53 320 -6 6 -8 -40 -4 -125 3 -74 9
-265 12 -423 l6 -289 -43 -109 c-23 -60 -44 -107 -46 -105 -2 2 -8 149 -13
327 -14 455 -39 825 -60 883 -4 11 -10 -77 -13 -195 -7 -224 -29 -585 -73
-1149 l-26 -335 -103 -240 c-134 -313 -199 -450 -351 -737 -74 -140 -131 -238
-140 -238 -18 0 -18 -8 11 108 17 69 44 271 89 682 89 805 112 979 141 1074
49 164 151 593 143 602 -3 2 -24 -49 -47 -115 -57 -161 -83 -224 -76 -186 32
185 108 1178 86 1130 -5 -11 -27 -135 -50 -275 -40 -248 -63 -373 -211 -1130
l-72 -365 -103 -240 c-56 -132 -141 -324 -189 -426 -80 -173 -193 -462 -246
-624 -21 -66 -53 -116 -65 -103 -6 6 18 142 119 678 60 319 95 544 271 1755
100 687 133 967 97 830 -5 -22 -28 -120 -50 -217 -36 -158 -52 -204 -147 -427
-199 -471 -328 -863 -459 -1393 -61 -245 -107 -390 -183 -568 -56 -130 -98
-203 -116 -197 -7 2 -30 57 -52 124 -22 66 -46 132 -54 146 -13 24 -9 44 42
234 71 258 121 470 186 773 80 377 123 599 119 612 -2 6 -25 -47 -50 -118 -62
-172 -344 -948 -400 -1099 -88 -235 -221 -565 -227 -559 -3 3 -11 38 -18 77
-11 72 -11 73 28 177 75 204 252 698 344 960 51 146 96 273 100 283 4 9 3 17
-2 17 -11 0 -336 -656 -516 -1040 -181 -387 -214 -449 -222 -425 -26 71 -61
135 -93 168 l-36 37 43 103 c193 459 403 1095 400 1210 0 27 -4 22 -24 -34
-27 -79 -173 -395 -292 -634 -95 -189 -370 -704 -385 -720 -6 -6 -8 6 -4 35
22 166 101 1084 117 1344 6 103 16 210 23 237 7 27 10 49 6 49 -17 0 -42 -90
-95 -342 -30 -145 -75 -346 -99 -448 -43 -183 -43 -184 -51 -135 -10 60 -15
49 -39 -77 -21 -113 -79 -303 -151 -498 -110 -298 -163 -456 -216 -640 -29
-102 -56 -189 -60 -194 -4 -4 -15 3 -24 17 -17 27 -85 220 -85 244 0 7 34 85
75 173 156 333 489 1170 471 1187 -3 3 -17 -15 -32 -39 -15 -23 -134 -212
-265 -419 -298 -472 -357 -574 -540 -942 l-149 -298 0 116 0 117 92 171 c126
238 303 597 367 747 243 568 373 837 510 1049 63 98 -183 -166 -301 -322 -198
-263 -437 -646 -597 -957 l-95 -185 -12 40 c-7 22 -13 47 -13 56 -1 9 -7 22
-15 28 -16 14 -12 28 -111 -329 -65 -232 -88 -300 -182 -525 -90 -215 -104
-234 -148 -201 -18 13 -16 21 48 212 75 225 148 498 301 1119 59 237 109 441
113 454 4 18 3 22 -6 16 -10 -5 -12 -2 -8 11 25 85 108 511 106 548 0 21 0 21
-10 1 -41 -89 -364 -869 -456 -1100 -63 -159 -116 -291 -118 -293 -2 -2 -12 2
-24 10 -17 11 -24 9 -48 -8 -15 -12 -38 -40 -51 -62 -33 -59 -77 -244 -102
-430 -12 -86 -25 -175 -29 -197 l-7 -40 -22 85 c-13 47 -27 92 -32 100 -9 14
-15 3 -62 -110 -9 -21 -14 -4 -35 115 -67 399 -181 965 -243 1210 -39 154
-113 395 -122 395 -5 0 -6 -15 -3 -32 3 -18 14 -139 25 -268 36 -414 63 -617
135 -1012 25 -136 45 -253 45 -260 0 -7 -11 -30 -23 -51 l-24 -39 -33 139
c-71 298 -225 801 -335 1098 l-63 170 9 105 c10 123 24 627 17 620 -3 -3 -47
-188 -99 -413 l-93 -407 -18 32 -17 33 5 -90 c4 -73 0 -117 -23 -234 l-28
-144 -53 141 c-55 143 -89 208 -78 147 18 -100 69 -552 70 -610 0 -38 -17
-194 -37 -345 -20 -151 -44 -355 -53 -454 -17 -169 -19 -179 -41 -189 -38 -17
-51 6 -63 118 -18 158 -57 378 -96 532 l-35 143 20 127 c24 154 143 1014 170
1238 31 248 71 755 71 888 0 41 -18 1 -35 -78 -38 -177 -140 -587 -244 -978
-60 -226 -124 -469 -142 -540 -28 -112 -33 -125 -45 -110 -12 16 -13 12 -8
-27 4 -33 -6 -93 -40 -230 -24 -102 -54 -234 -66 -295 -12 -60 -24 -117 -27
-125 -3 -9 -25 28 -54 89 -27 57 -51 102 -54 99 -3 -2 1 -52 9 -109 8 -57 22
-178 31 -268 15 -158 15 -169 -5 -340 -21 -169 -23 -178 -57 -228 -67 -100
-163 -182 -163 -140 0 32 -33 289 -55 430 -25 158 -92 454 -141 617 -39 130
-96 290 -103 290 -4 0 -4 -33 1 -72 4 -40 12 -185 18 -323 11 -275 12 -289 36
-553 17 -181 17 -183 -3 -210 -23 -31 -54 -39 -72 -18 -39 47 -57 327 -42 641
6 127 15 376 21 555 5 179 12 388 16 465 4 77 4 137 0 134 -19 -17 -112 -403
-193 -799 l-38 -185 -7 116 c-11 169 -30 204 -74 136 -101 -155 -149 -258
-252 -542 -108 -299 -150 -436 -188 -612 -17 -76 -34 -133 -40 -133 -7 0 -38
32 -70 72 l-59 71 -12 -79 c-18 -109 -43 -213 -54 -220 -20 -12 -39 72 -69
292 -17 126 -35 258 -41 294 -12 74 -47 219 -57 235 -11 18 -20 -57 -32 -270
-7 -115 -15 -221 -19 -235 l-8 -25 -18 35 c-11 22 -33 138 -61 323 -93 618
-174 1025 -280 1396 -55 191 -184 510 -160 396 71 -353 105 -790 141 -1832 7
-222 11 -413 8 -425 -18 -81 -25 -98 -39 -98 -18 0 -28 24 -54 128 -39 157
-84 245 -106 210 -5 -7 -12 -130 -16 -273 -3 -143 -7 -261 -7 -263 -1 -2 -15
5 -32 15 -37 22 -93 86 -144 168 -21 33 -52 78 -70 100 -18 22 -119 213 -225
423 l-192 384 22 76 c13 43 58 185 101 316 44 132 77 241 75 243 -5 5 -132
-200 -205 -332 -67 -121 -241 -471 -286 -577 -23 -53 -32 -65 -42 -56 -19 16
-24 7 -30 -58 -4 -47 -34 -124 -140 -364 -74 -168 -151 -353 -171 -412 -24
-69 -42 -108 -51 -108 -12 0 -13 41 -8 263 9 435 -14 933 -58 1227 -17 112
-50 279 -58 286 -2 3 -8 -55 -12 -128 -3 -73 -11 -191 -16 -263 -20 -284 -30
-830 -20 -1159 9 -315 8 -356 -8 -356 -4 0 -11 168 -14 373 -7 385 -16 563
-68 1292 -16 237 -33 544 -36 683 -3 140 -9 248 -13 240 -15 -26 -69 -276 -94
-428 -41 -253 -44 -286 -101 -995 -49 -618 -76 -908 -84 -923 -6 -10 -11 -8
-23 10 -16 25 -14 7 -78 833 -55 707 -106 1252 -117 1241 -13 -13 -75 -613
-103 -996 -18 -251 -28 -421 -48 -798 l-7 -133 -48 113 c-37 88 -47 125 -47
168 0 30 -9 163 -20 295 -31 370 -43 719 -38 1068 3 175 2 315 -2 310 -12 -12
-96 -370 -129 -548 -53 -285 -79 -522 -102 -925 -13 -232 -6 -373 37 -729 14
-117 23 -216 20 -218 -6 -6 -66 86 -92 142 -18 38 -19 73 -18 725 1 533 5 708
16 788 8 56 11 102 7 102 -9 0 -72 -168 -108 -290 -43 -142 -97 -417 -117
-590 -14 -119 -16 -211 -12 -520 4 -311 3 -366 -7 -320 -26 116 -255 1260
-271 1353 -9 54 -19 96 -22 93 -2 -3 1 -91 8 -196 6 -106 10 -193 8 -196 -3
-2 -15 53 -28 123 -12 71 -26 120 -30 112 -17 -34 -50 -386 -50 -541 0 -53 -9
-168 -20 -255 -24 -190 -43 -421 -65 -763 -9 -140 -20 -264 -24 -275 -9 -22
-55 159 -111 427 -16 80 -42 186 -56 235 -15 48 -34 117 -44 153 -47 174 -89
531 -99 848 -5 156 -12 247 -19 254 -14 14 -26 -16 -36 -87 -4 -27 -28 -171
-53 -320 l-47 -270 1 -315 c1 -173 6 -351 12 -395 10 -81 62 -288 107 -424 13
-41 22 -76 20 -78 -2 -3 -18 15 -34 39 -17 24 -49 61 -72 83 -52 50 -115 142
-210 310 -104 183 -217 352 -228 341 -2 -2 3 -15 11 -28 24 -38 191 -583 204
-666 6 -34 5 -36 -11 -22 -10 8 -42 50 -71 95 -108 162 -385 468 -513 565 -88
67 -189 117 -204 102 -14 -14 1 -37 94 -145 39 -45 88 -104 109 -132 46 -62
226 -352 285 -460 45 -83 178 -404 171 -411 -4 -5 -96 98 -141 159 -16 21 -30
36 -32 34 -5 -4 27 -179 55 -304 12 -51 21 -114 21 -140 0 -48 -1 -48 -18 -25
-9 12 -44 84 -76 160 -59 137 -76 169 -76 141 0 -7 11 -122 25 -254 14 -132
28 -271 31 -310 l5 -70 -21 25 c-37 42 -75 128 -130 295 -29 88 -74 219 -100
290 -47 129 -114 376 -144 530 -9 44 -29 181 -46 305 -31 220 -55 351 -70 379
-11 20 -34 -27 -50 -102 -11 -46 -11 -120 -1 -380 6 -177 11 -374 11 -437 0
-63 7 -187 15 -275 16 -175 20 -591 6 -614 -13 -20 -28 43 -36 154 -3 50 -9
101 -12 115 -6 22 -7 23 -14 5 -4 -11 -8 -47 -8 -80 l-1 -60 -31 50 c-17 28
-43 64 -58 80 -15 17 -40 51 -55 77 -28 50 -73 82 -100 72 -19 -7 -34 -58 -42
-144 -15 -145 -34 -102 -64 140 -25 208 -29 230 -39 230 -5 0 -18 -21 -29 -47
-25 -57 -26 -51 -12 119 5 68 14 240 20 383 5 143 17 309 25 369 8 61 13 111
11 113 -5 5 -64 -154 -131 -347 -31 -91 -77 -217 -102 -280 -110 -276 -158
-453 -254 -935 -33 -165 -61 -304 -63 -310 -4 -14 -111 427 -136 560 -35 189
-139 868 -155 1007 -8 73 -22 239 -31 368 -21 309 -28 347 -38 215 -4 -55 -15
-149 -24 -210 -33 -217 -19 -1222 23 -1595 15 -137 31 -324 45 -525 5 -71 12
-157 16 -190 4 -41 3 -57 -4 -50 -12 12 -94 309 -152 549 -61 256 -155 588
-204 729 -61 171 -92 293 -171 677 -36 178 -68 327 -71 329 -13 13 20 -568 42
-728 21 -160 83 -421 154 -656 34 -110 63 -225 66 -255 5 -52 5 -54 -11 -35
-9 11 -48 83 -86 160 -138 280 -208 400 -317 549 -61 83 -137 178 -169 211
-98 101 -126 142 -254 365 -196 345 -299 493 -325 467 -3 -3 7 -29 21 -58 29
-56 147 -338 160 -379 4 -14 40 -113 80 -220 142 -379 276 -830 289 -970 l6
-65 -30 59 c-16 32 -40 72 -53 90 -36 46 -54 86 -93 199 -20 55 -62 158 -94
227 -32 69 -86 199 -120 290 -34 91 -98 244 -142 340 -45 96 -95 209 -113 250
-53 125 -91 193 -130 235 l-36 40 5 -32 c3 -17 28 -94 57 -170 91 -246 140
-403 204 -658 65 -255 89 -390 100 -550 4 -49 13 -140 21 -200 8 -61 14 -135
12 -165 l-4 -55 -17 40 c-48 110 -46 109 -47 10 l-2 -90 -19 40 c-23 49 -23
36 -4 -80 8 -49 15 -106 15 -125 -1 -34 -1 -34 -17 -15 -20 25 -164 322 -210
433 -44 107 -59 156 -133 442 -96 372 -193 670 -298 920 -48 117 -55 119 -26
9 38 -150 52 -231 94 -573 23 -176 53 -388 67 -471 34 -190 40 -476 11 -535
-9 -19 -22 -71 -28 -114 -6 -44 -12 -82 -14 -84 -11 -11 -27 15 -62 98 -57
139 -63 132 -38 -39 6 -34 4 -42 -6 -36 -30 19 -74 153 -151 466 -143 582
-143 584 -110 242 11 -115 22 -271 26 -348 11 -287 55 -1242 59 -1300 6 -85
-7 -44 -44 137 -29 146 -175 753 -227 943 -13 50 -36 115 -50 145 -22 46 -27
51 -31 32 -2 -13 5 -58 17 -100 11 -43 29 -149 41 -236 11 -88 30 -200 41
-250 42 -185 51 -291 56 -658 7 -458 2 -492 -61 -418 -23 28 -86 199 -86 234
0 8 -19 43 -43 78 -23 35 -55 92 -71 128 -15 36 -47 97 -72 137 -111 178 -143
278 -259 808 -79 364 -106 475 -112 475 -3 0 -2 -26 1 -57 3 -32 11 -133 16
-225 11 -182 24 -256 69 -399 73 -233 110 -428 117 -619 l5 -135 -21 37 c-20
37 -83 212 -200 555 -60 174 -104 273 -168 373 -54 86 -124 182 -128 177 -3
-2 11 -37 30 -78 19 -41 58 -128 86 -194 62 -142 115 -241 134 -248 25 -10 85
-180 96 -274 6 -48 22 -136 36 -195 21 -95 24 -129 24 -310 l-1 -203 -37 70
c-20 39 -51 90 -68 115 -17 25 -43 69 -58 98 -39 77 -210 526 -347 912 -66
184 -143 399 -171 478 -28 78 -53 141 -55 138 -8 -8 36 -231 77 -386 23 -85
67 -258 100 -385 32 -126 67 -264 79 -305 11 -41 27 -124 36 -185 24 -160 63
-375 90 -490 13 -55 31 -154 40 -220 9 -66 25 -169 36 -230 21 -123 25 -225 8
-225 -39 0 -148 182 -222 370 -93 235 -139 410 -197 763 -48 283 -71 389 -101
452 -24 51 -43 69 -35 33 8 -34 81 -492 116 -728 16 -113 36 -240 44 -283 22
-129 -1 -73 -56 137 -29 109 -54 191 -56 183 -3 -17 7 -121 33 -316 9 -67 14
-125 12 -128 -5 -5 -75 203 -137 407 l-40 135 5 -225 c3 -124 7 -295 10 -380
5 -186 4 -183 -75 165 -68 296 -123 500 -152 562 l-23 48 -3 -130 c-2 -71 4
-238 13 -370 10 -133 15 -250 13 -260 -2 -12 -20 28 -41 95 -20 63 -42 122
-48 130 -16 23 -3 -74 32 -224 55 -238 61 -295 66 -583 4 -178 2 -273 -5 -273
-13 0 -143 218 -186 311 -43 94 -77 207 -165 544 -83 319 -108 405 -125 423
-10 10 -14 -48 -19 -295 -4 -169 -7 -382 -8 -473 0 -193 -8 -188 -44 26 -31
189 -53 375 -65 574 -6 90 -14 168 -19 173 -21 21 -58 -145 -96 -428 -15 -110
-31 -207 -36 -215 -6 -10 -8 134 -3 398 6 392 5 414 -11 410 -10 -1 -27 -21
-39 -43 -20 -39 -21 -53 -21 -434 0 -297 -3 -395 -12 -398 -31 -11 -112 171
-231 518 -73 213 -112 313 -119 305 -4 -4 141 -541 168 -621 20 -63 -14 -1
-169 300 -162 317 -213 405 -252 440 l-23 20 6 -20 c3 -11 22 -77 41 -146 41
-146 56 -186 136 -364 79 -174 90 -220 90 -382 0 -111 -2 -133 -15 -133 -8 0
-17 12 -21 28 -19 86 -20 87 -46 90 -16 2 -28 -3 -31 -12 -4 -9 -16 -82 -27
-163 -22 -160 -27 -183 -39 -183 -13 0 -21 65 -22 180 -1 128 -10 106 -38
-103 -33 -236 -40 -217 -42 103 -2 416 -12 430 -63 85 -31 -210 -39 -245 -50
-234 -3 2 -12 81 -21 174 -23 239 -44 325 -80 325 -22 0 -35 -58 -46 -209 -17
-240 -20 -271 -29 -271 -5 0 -14 17 -20 38 -28 101 -32 187 -28 601 2 233 0
411 -4 395 -13 -47 -86 -500 -98 -609 -7 -55 -15 -254 -18 -442 -4 -188 -10
-345 -14 -349 -5 -4 -8 24 -8 62 0 38 -7 123 -15 189 -8 66 -15 125 -15 130
-3 36 -20 -50 -31 -160 l-13 -130 -22 140 c-12 77 -38 208 -58 292 -20 83 -47
225 -61 315 -39 256 -63 390 -78 432 l-13 39 -21 -64 c-51 -156 -55 -779 -8
-1229 14 -135 30 -306 36 -380 10 -132 30 -1012 24 -1019 -5 -5 -24 70 -46
176 -23 116 -36 291 -44 598 -9 375 -23 585 -60 922 -19 171 -35 351 -36 400
0 88 0 88 -15 49 -7 -21 -26 -93 -41 -160 -26 -113 -28 -137 -28 -356 0 -216
3 -260 31 -405 14 -71 -27 8 -101 198 -95 244 -144 358 -145 334 0 -28 46
-224 95 -402 24 -88 46 -178 50 -200 l6 -40 -20 35 c-10 19 -58 143 -105 275
-109 300 -162 437 -193 495 l-24 45 5 -110 c3 -60 12 -147 21 -192 34 -180 78
-528 86 -693 25 -483 31 -600 40 -674 5 -45 11 -180 14 -301 4 -204 4 -217
-10 -175 -8 24 -29 121 -45 215 -17 93 -46 251 -65 350 -50 263 -62 356 -90
699 -40 477 -131 1101 -165 1139 -16 18 -22 -193 -18 -678 4 -477 6 -509 32
-695 14 -107 33 -226 41 -265 32 -152 13 -131 -64 73 -70 183 -105 248 -284
522 -170 260 -203 307 -266 375 -86 93 -80 67 31 -139 92 -168 346 -676 339
-676 -2 0 -106 100 -229 222 -131 129 -227 217 -230 210 -5 -16 56 -141 139
-282 34 -58 95 -163 137 -235 41 -71 115 -193 164 -270 49 -77 128 -216 175
-309 l85 -169 -180 184 c-245 251 -357 384 -516 612 -26 37 -51 67 -56 67 -17
0 12 -125 75 -322 57 -178 98 -328 91 -335 -3 -3 -12 10 -20 28 -7 19 -34 79
-59 134 -25 55 -94 242 -152 415 -59 173 -108 316 -109 318 -6 6 5 -313 15
-412 5 -60 30 -200 54 -310 24 -111 46 -217 50 -236 3 -19 -81 138 -188 350
-106 212 -204 401 -216 420 l-22 35 6 -35 c4 -19 29 -102 56 -185 56 -174 161
-583 214 -834 20 -96 51 -233 70 -305 18 -72 43 -183 55 -246 11 -63 30 -162
40 -220 48 -255 110 -669 125 -830 9 -96 28 -239 41 -317 27 -160 29 -182 14
-167 -24 24 -115 252 -162 403 -27 90 -74 227 -105 305 -85 220 -122 354 -252
916 -39 168 -96 393 -126 500 -54 189 -106 437 -160 765 -28 174 -82 419 -97
448 -17 33 -28 6 -28 -69 0 -97 15 -234 45 -409 13 -77 26 -167 30 -200 3 -33
30 -231 60 -440 30 -209 66 -465 80 -570 54 -402 66 -479 100 -627 69 -304
123 -565 135 -643 6 -44 22 -146 36 -226 13 -81 24 -155 23 -165 0 -11 -20 37
-43 106 -24 69 -82 211 -128 315 -115 256 -142 342 -193 620 -39 212 -75 355
-103 410 l-26 50 -6 -38 c-9 -52 6 -392 25 -562 21 -181 53 -323 116 -513 28
-84 49 -155 46 -158 -2 -3 -55 68 -118 158 -204 294 -329 446 -359 436 -7 -2
3 -31 29 -79 22 -42 72 -152 112 -245 39 -93 105 -239 147 -324 199 -413 352
-734 352 -742 0 -5 -10 -8 -22 -6 -22 3 -99 87 -177 193 -59 78 -128 200 -307
542 -189 359 -195 373 -310 648 -45 110 -116 275 -158 367 -91 202 -125 300
-215 623 -38 138 -101 342 -139 455 -237 695 -293 839 -347 890 -33 31 -48 18
-40 -34 9 -56 107 -469 150 -633 19 -73 48 -214 65 -315 38 -220 78 -380 160
-633 34 -104 81 -265 105 -356 80 -303 256 -839 368 -1124 41 -104 114 -298
162 -430 48 -132 125 -337 170 -455 46 -118 86 -224 90 -235 4 -11 -13 14 -37
55 -25 41 -65 104 -90 140 -25 36 -79 124 -120 195 -41 72 -99 168 -129 215
-30 47 -81 132 -113 190 -32 58 -96 168 -141 245 -103 176 -288 510 -350 635
-26 52 -84 157 -128 233 -44 76 -132 251 -197 390 -64 139 -149 315 -188 392
-60 120 -126 262 -210 458 -12 26 -23 47 -25 47 -6 0 12 -117 27 -179 8 -31
22 -97 30 -147 9 -50 39 -168 67 -264 28 -95 61 -224 74 -286 13 -62 40 -152
60 -201 47 -110 130 -318 179 -444 20 -52 61 -138 92 -190 56 -96 130 -244
224 -449 29 -63 92 -176 140 -250 47 -74 115 -184 150 -245 83 -144 281 -450
385 -595 116 -161 191 -320 183 -386 l-3 -27 -50 40 c-139 110 -523 519 -608
648 -36 55 -106 149 -156 209 -79 96 -105 138 -201 325 -60 119 -146 275 -190
346 -44 72 -126 220 -182 330 -104 207 -332 603 -421 735 -66 96 -207 240
-236 240 -19 0 -21 -5 -21 -62 0 -94 25 -194 68 -278 21 -41 67 -131 102 -200
35 -69 104 -195 155 -280 108 -182 128 -219 228 -406 41 -77 127 -219 190
-315 147 -223 213 -338 237 -418 11 -35 18 -66 16 -68 -2 -3 -24 17 -47 44
-104 116 -134 139 -227 178 -50 21 -108 52 -129 70 -55 47 -156 95 -199 95
-39 0 -215 -72 -235 -96 -7 -8 -14 -62 -16 -127 -4 -96 -2 -119 15 -163 36
-89 130 -412 177 -608 70 -292 195 -595 319 -775 40 -58 119 -189 175 -291
147 -266 323 -529 511 -765 126 -158 220 -302 220 -336 0 -35 67 -192 120
-279 21 -36 42 -85 46 -110 l7 -45 -36 46 c-36 47 -61 64 -78 53 -5 -3 -9 -55
-9 -115 0 -90 -3 -111 -16 -116 -19 -7 -66 26 -117 84 -21 24 -43 43 -48 43
-5 0 7 -44 26 -97 85 -236 81 -272 -24 -221 -106 51 -266 235 -592 680 -199
271 -259 335 -259 278 0 -44 165 -319 318 -528 148 -203 272 -352 424 -508 82
-83 148 -157 148 -165 0 -8 16 -69 34 -136 40 -142 51 -203 42 -239 -6 -22 -9
-24 -23 -12 -9 7 -25 27 -36 43 -10 17 -16 22 -13 12 3 -10 9 -44 13 -74 5
-45 4 -54 -7 -48 -10 6 -11 3 -6 -16 16 -50 18 -69 9 -69 -18 0 -45 37 -127
177 -45 75 -87 138 -93 140 -6 2 5 -45 24 -104 29 -85 37 -128 40 -203 5 -118
-3 -133 -49 -98 -33 25 -46 42 -181 238 -76 111 -114 143 -144 124 -46 -29
-26 -61 182 -295 164 -184 209 -248 238 -337 14 -42 61 -156 105 -252 90 -198
126 -290 113 -290 -9 0 -76 70 -124 130 l-28 35 22 -40 c13 -22 56 -91 96
-153 82 -126 117 -191 109 -199 -20 -20 -176 139 -306 310 -23 32 -44 57 -47
57 -7 0 29 -57 192 -305 83 -126 154 -238 158 -247 8 -23 -5 -23 -56 3 -61 31
-142 102 -329 290 -91 92 -177 173 -190 180 -14 7 -4 -8 27 -42 70 -75 128
-153 227 -304 126 -191 279 -445 269 -445 -5 0 -44 33 -87 73 l-77 72 70 -95
c157 -212 365 -560 335 -560 -16 0 -107 99 -180 195 -79 105 -107 138 -79 93
129 -209 279 -502 340 -668 40 -109 69 -228 57 -235 -10 -6 -81 73 -128 143
-19 28 -36 52 -37 52 -1 0 60 -124 136 -276 77 -151 139 -280 139 -285 0 -6
-8 -6 -20 1 -21 11 -51 50 -323 415 -178 238 -262 333 -160 180 86 -128 233
-376 280 -470 50 -98 96 -225 83 -225 -17 0 -43 32 -145 176 -123 174 -217
296 -222 290 -3 -2 60 -125 140 -273 260 -482 367 -710 422 -897 14 -49 25
-93 25 -99 0 -17 -37 22 -97 102 -79 105 -81 106 -33 21 119 -213 282 -600
251 -600 -15 0 -83 81 -196 235 -115 157 -158 210 -120 150 169 -266 254 -419
242 -431 -18 -18 -154 144 -417 496 -151 202 -192 254 -155 195 132 -210 307
-545 400 -765 59 -141 117 -300 113 -312 -2 -5 -97 109 -211 253 -115 143
-211 258 -214 255 -3 -3 58 -120 136 -260 78 -140 170 -315 206 -388 60 -125
121 -286 111 -296 -9 -8 -69 67 -203 255 -75 106 -138 191 -140 189 -2 -2 33
-68 78 -147 204 -363 330 -634 329 -710 -1 -21 -8 -16 -60 38 -32 34 -100 118
-151 185 -95 127 -126 164 -94 114 140 -226 285 -516 340 -677 36 -110 54
-199 39 -199 -4 0 -23 15 -42 33 -19 17 -33 28 -30 22 2 -5 56 -116 120 -245
114 -232 192 -413 186 -432 -4 -11 -12 0 -228 312 -144 209 -212 302 -168 230
282 -466 383 -670 417 -853 6 -32 5 -44 -3 -41 -6 3 -45 45 -86 95 -77 92 -96
109 -64 61 65 -99 123 -198 155 -267 63 -138 98 -275 69 -275 -26 0 -92 44
-174 115 l-88 78 59 -89 c33 -49 74 -114 91 -145 36 -63 94 -200 88 -206 -2
-2 -35 36 -74 85 -40 49 -79 95 -88 103 -15 12 -16 10 -9 -21 3 -19 22 -91 41
-160 41 -149 64 -267 64 -323 l0 -41 -38 37 c-21 20 -42 37 -46 37 -13 0 -1
-107 29 -255 14 -71 29 -166 32 -210 6 -79 6 -80 -14 -62 -11 9 -44 60 -73
112 -30 52 -55 93 -57 91 -2 -1 6 -29 17 -61 11 -32 20 -60 20 -63 0 -12 -45
38 -106 119 -37 49 -69 87 -71 85 -2 -1 8 -42 22 -90 14 -47 25 -94 25 -103 0
-10 -34 17 -89 70 -49 48 -94 87 -100 87 -21 0 -11 -48 35 -177 71 -201 92
-271 109 -367 20 -117 19 -136 -3 -136 -21 0 -54 34 -149 155 -39 50 -81 99
-93 110 l-21 19 7 -29 c4 -17 24 -73 44 -125 80 -202 126 -371 143 -527 10
-84 -15 -63 -123 102 -80 120 -130 188 -136 182 -2 -2 20 -89 50 -193 52 -182
68 -250 80 -341 10 -70 -20 -57 -119 52 -48 52 -91 95 -96 95 -16 0 -10 -92
16 -249 33 -200 42 -320 25 -350 -10 -20 -17 -22 -48 -17 -86 13 -77 34 -74
-174 2 -102 0 -195 -3 -207 -8 -31 -39 -29 -66 4 l-22 28 6 -55 c3 -30 11
-100 17 -154 12 -107 8 -161 -14 -169 -14 -5 -54 12 -103 43 -12 8 -26 11 -30
6 -10 -10 -6 -159 6 -251 16 -110 24 -279 17 -318 -12 -63 -56 -55 -124 25
-19 21 -38 38 -43 38 -7 0 -9 -48 -7 -127 l3 -128 -48 -3 c-41 -3 -50 -7 -60
-30 -6 -15 -26 -46 -44 -70 -18 -23 -40 -68 -50 -98 -14 -45 -25 -61 -55 -80
-21 -13 -44 -34 -51 -46 -8 -13 -26 -43 -41 -68 -14 -25 -35 -56 -46 -70 -11
-14 -27 -56 -36 -95 -9 -38 -27 -101 -40 -138 -21 -60 -24 -85 -24 -215 0
-143 -1 -147 -27 -186 -25 -34 -28 -51 -32 -130 -2 -50 0 -155 4 -233 7 -132
9 -143 26 -143 30 0 55 -52 77 -163 26 -129 75 -236 118 -257 17 -8 65 -46
105 -84 44 -41 106 -85 154 -110 l79 -42 71 -119 c38 -65 77 -121 85 -125 8
-4 44 -17 80 -30 36 -12 94 -33 130 -46 89 -32 233 -33 356 -2 75 19 94 20
150 11 35 -6 94 -25 129 -42 36 -16 81 -33 100 -37 50 -9 210 31 270 68 108
67 388 92 540 48 105 -30 213 -27 355 10 219 57 271 85 682 357 91 61 181 114
200 118 18 4 45 14 60 21 26 14 27 13 44 -34 10 -26 36 -96 59 -157 l42 -110
219 -5 c218 -5 219 -5 274 -34 30 -16 78 -46 105 -66 74 -55 109 -70 159 -70
53 0 201 32 309 67 84 27 88 27 393 7 l91 -6 101 51 c56 28 119 66 140 85 58
52 78 59 145 51 l60 -6 56 60 c55 60 58 61 109 61 50 0 53 2 69 35 18 38 19
38 158 39 53 1 61 7 80 69 23 69 41 97 64 97 11 0 73 32 138 72 65 40 143 80
173 90 30 10 97 43 150 72 114 64 168 85 343 130 73 19 207 64 298 100 166 65
369 129 534 168 68 16 136 22 278 26 l189 4 31 -29 c49 -46 79 -63 109 -63 21
0 28 5 28 20 0 27 5 26 73 -16 32 -20 61 -33 64 -30 4 3 1 31 -6 62 -7 30 -10
58 -7 61 2 3 35 -9 71 -27 75 -36 83 -34 100 28 10 32 14 37 40 36 17 -1 50
-9 75 -19 32 -12 58 -15 90 -10 25 4 78 10 119 13 41 4 76 12 78 17 2 6 14 28
26 50 18 32 29 40 51 40 24 0 31 6 42 37 18 53 53 96 83 103 14 3 49 -1 76
-10 77 -23 93 -20 109 20 17 41 36 44 79 13 46 -33 139 -38 177 -9 17 12 44
21 65 21 20 0 57 11 83 24 34 17 69 25 128 28 93 5 157 31 295 120 165 107
209 122 432 143 172 16 228 33 329 98 73 46 173 130 274 229 l81 79 44 -118
44 -118 3 97 c4 154 28 129 97 -102 68 -226 87 -236 131 -70 29 108 62 190 77
190 10 0 4 -273 -9 -440 -6 -68 -5 -74 9 -60 9 8 42 62 73 120 58 106 140 238
131 210 -2 -8 -23 -71 -45 -140 -45 -139 -75 -274 -70 -315 3 -27 4 -27 36 18
85 119 209 399 312 707 69 206 104 274 124 242 3 -5 15 -87 26 -183 29 -248
56 -345 100 -369 28 -15 36 11 50 160 6 67 19 143 28 168 16 43 44 73 57 61 3
-4 12 -44 21 -90 16 -94 39 -153 54 -144 6 4 26 38 45 76 20 38 37 69 40 69 2
0 21 -14 40 -32 35 -30 38 -31 73 -18 35 12 36 12 63 -21 41 -51 53 -31 57 98
4 82 7 102 15 87 6 -10 54 -121 107 -245 109 -254 152 -337 205 -392 60 -62
82 -41 84 79 1 41 -14 120 -45 245 -69 283 -80 483 -28 540 39 43 63 12 124
-159 52 -148 106 -256 148 -301 34 -35 35 -36 44 -14 7 15 4 60 -11 153 -25
158 -27 206 -6 214 20 7 38 -13 96 -113 l49 -84 10 -136 c22 -288 78 -488 213
-757 140 -279 159 -308 434 -652 215 -268 285 -346 482 -537 73 -72 173 -177
222 -235 49 -58 143 -156 209 -219 117 -110 194 -204 357 -437 34 -49 104
-137 155 -196 51 -58 172 -198 269 -310 280 -323 546 -570 904 -838 180 -135
264 -207 570 -486 327 -298 488 -424 613 -482 49 -22 63 -24 138 -19 l83 6 38
-62 c48 -81 161 -228 226 -296 29 -30 82 -73 118 -97 36 -23 99 -72 139 -108
43 -38 92 -73 119 -82 25 -10 72 -33 103 -52 41 -25 70 -34 107 -36 38 -2 57
-9 76 -26 14 -13 28 -20 32 -17 11 12 -22 80 -117 237 -121 201 -139 228 -217
313 -111 123 -145 219 -92 259 15 11 46 22 70 25 41 5 48 2 111 -50 94 -77
187 -126 259 -138 58 -9 143 -35 260 -78 75 -27 171 -31 197 -8 26 23 30 22
101 -24 115 -75 204 -119 242 -119 37 0 128 40 150 66 21 26 -6 85 -72 158
-66 72 -61 83 21 45 25 -12 95 -37 155 -56 89 -27 137 -36 250 -44 229 -16
459 -21 474 -11 10 7 12 20 7 45 -6 31 -17 42 -79 82 -40 25 -137 78 -215 117
-112 54 -161 85 -220 137 -121 106 -162 181 -122 221 29 29 168 29 237 -1 81
-36 333 -98 396 -99 21 0 69 -5 106 -11 57 -10 81 -9 147 5 43 10 126 24 184
31 58 8 137 23 175 34 39 11 89 24 113 31 34 9 42 15 42 34 0 54 -82 115 -187
139 -104 24 -416 236 -530 362 -82 88 -98 124 -84 180 6 24 11 58 11 75 0 36
19 46 146 79 74 19 87 19 145 7 38 -8 97 -11 144 -8 53 3 108 -1 159 -12 91
-19 186 -20 236 -3 26 9 43 26 67 65 43 73 34 92 -66 138 -42 19 -94 44 -116
56 -133 70 -185 95 -230 110 -62 21 -287 154 -377 222 -36 28 -103 71 -148 95
-44 25 -104 67 -133 95 -61 60 -78 104 -102 271 -37 254 -88 368 -251 561
-116 137 -171 185 -283 248 -45 26 -106 62 -135 80 -77 49 -107 56 -252 56
-73 0 -135 4 -138 9 -3 5 7 40 23 77 l28 69 49 -1 c44 -2 102 -18 191 -55 30
-12 34 -11 48 6 42 56 73 159 156 515 72 311 115 447 135 428 19 -20 23 -124
17 -434 -6 -336 -2 -388 25 -329 23 49 41 144 57 285 15 137 41 299 49 308 9
8 16 -40 36 -231 21 -198 35 -288 50 -317 7 -12 11 -9 22 15 9 22 12 96 11
295 -1 146 2 258 6 250 5 -8 16 -80 25 -160 35 -304 80 -528 111 -559 15 -15
17 -15 30 2 25 34 34 142 39 452 5 295 19 500 36 518 12 13 35 -102 70 -336
61 -413 126 -657 174 -657 39 0 37 103 -4 335 -32 177 -50 323 -50 399 0 112
19 67 36 -85 64 -592 119 -837 191 -847 52 -8 55 135 9 459 -42 297 -41 350 4
134 34 -168 78 -351 106 -444 37 -122 117 -314 170 -406 93 -161 223 -313 199
-232 -4 12 -42 99 -85 192 -118 255 -157 372 -199 585 -32 166 -42 252 -48
440 -6 165 2 358 14 346 3 -3 9 -63 14 -134 9 -158 37 -317 84 -480 55 -194
126 -345 146 -310 14 25 -9 144 -76 398 -74 285 -89 358 -77 391 l9 24 16 -32
c9 -17 41 -121 71 -230 63 -229 71 -253 87 -253 16 0 6 111 -26 270 -28 140
-32 204 -12 198 6 -2 66 -111 132 -242 66 -131 132 -252 147 -269 l27 -32 0
31 c1 38 -42 190 -108 388 -28 82 -50 151 -48 152 2 2 34 -70 72 -159 117
-277 224 -478 225 -424 0 29 -37 170 -85 317 -81 253 -91 309 -43 250 38 -47
69 -121 139 -333 121 -364 175 -485 195 -433 4 9 -8 92 -26 184 -49 254 -54
454 -7 285 30 -106 46 -276 52 -553 3 -151 9 -297 12 -325 l6 -50 9 38 c4 21
24 156 44 300 19 144 49 326 65 405 33 159 75 302 89 302 27 0 21 -177 -16
-510 -20 -182 -28 -421 -15 -440 9 -13 12 -12 25 5 24 32 44 118 71 305 14 96
35 225 46 285 37 201 131 535 150 535 14 0 6 -81 -36 -355 -19 -121 -45 -315
-59 -431 -14 -116 -28 -231 -32 -255 -4 -24 -4 -42 -1 -39 3 3 66 230 140 505
75 275 141 511 147 525 l10 25 -4 -25 c-35 -188 -85 -535 -115 -805 -28 -256
-33 -305 -27 -305 16 0 94 258 185 610 38 151 109 412 156 579 47 168 85 311
85 320 0 63 43 -138 75 -350 8 -53 26 -213 40 -355 35 -352 64 -532 90 -554
39 -32 46 149 15 396 -10 87 -22 197 -25 244 l-5 85 35 -125 c97 -343 213
-650 273 -720 18 -21 23 -23 32 -10 15 21 6 77 -55 365 -62 289 -80 427 -71
540 16 198 40 163 96 -135 60 -317 123 -510 194 -585 39 -41 63 -45 72 -10 10
39 -9 124 -89 400 l-72 250 0 142 c0 98 4 146 12 154 16 16 24 -5 80 -216 118
-448 129 -481 190 -546 83 -89 125 -64 103 61 -6 36 -24 117 -40 180 -64 258
-75 392 -36 483 29 72 44 41 141 -289 181 -619 225 -729 225 -565 0 37 -7 131
-16 207 -24 206 -10 374 29 361 19 -6 58 -114 74 -202 16 -96 20 -319 11 -660
-4 -155 -3 -222 2 -175 23 199 35 266 71 408 21 84 61 210 89 280 51 129 116
245 134 239 31 -10 29 -145 -5 -327 -29 -152 -68 -293 -159 -575 -44 -137 -83
-268 -87 -290 l-6 -40 27 24 c75 69 120 182 221 550 93 342 266 891 329 1048
l24 58 7 -50 c5 -27 5 -153 2 -279 -7 -260 -21 -375 -92 -726 -25 -124 -48
-263 -51 -310 l-6 -85 30 45 c58 86 155 407 242 805 92 417 168 655 210 655 5
0 14 -17 21 -37 18 -54 6 -259 -30 -521 -45 -326 -61 -645 -31 -627 12 8 28
124 40 290 6 83 15 178 21 213 22 143 90 295 118 266 19 -18 59 -221 81 -409
22 -194 48 -351 60 -374 4 -8 1 -29 -6 -48 -8 -19 -26 -80 -39 -136 -41 -171
-132 -379 -258 -584 -53 -86 -96 -192 -111 -271 -4 -23 -2 -31 6 -26 15 9 11
4 -94 -153 -48 -73 -88 -135 -88 -140 0 -4 19 11 43 33 23 22 55 51 71 64 28
23 27 22 -9 -30 -21 -30 -74 -99 -117 -152 -43 -53 -78 -102 -78 -108 0 -13
29 -7 125 25 99 33 145 40 145 24 0 -39 -99 -138 -274 -273 -73 -57 -77 -61
-52 -64 15 -2 41 1 58 7 17 6 33 10 34 8 2 -2 -26 -39 -63 -83 -100 -119 -160
-217 -184 -298 -37 -128 -65 -160 -294 -342 -60 -47 -117 -93 -125 -102 -13
-13 -12 -14 12 -8 15 3 50 20 78 36 82 48 50 19 -67 -61 -121 -83 -203 -157
-203 -182 0 -21 15 -21 120 -1 45 8 85 13 88 10 10 -11 -36 -51 -90 -78 -29
-15 -106 -52 -170 -82 -108 -51 -126 -65 -224 -158 -107 -104 -131 -122 -259
-196 -38 -22 -99 -66 -135 -97 -71 -61 -109 -84 -197 -117 -32 -12 -86 -38
-120 -59 -86 -53 -133 -76 -216 -106 -39 -14 -110 -45 -157 -68 -47 -24 -110
-48 -140 -55 -30 -7 -84 -21 -118 -31 -35 -10 -67 -17 -71 -15 -4 3 -73 10
-153 16 -120 9 -161 8 -239 -5 -52 -8 -121 -15 -155 -15 -89 0 -348 -55 -398
-84 -43 -25 -119 -100 -151 -150 -18 -27 -77 -58 -335 -177 -108 -49 -130 -63
-220 -134 -81 -65 -98 -74 -174 -92 -38 -8 -85 -30 -126 -57 -36 -24 -86 -55
-112 -70 -75 -42 -224 -249 -254 -354 -26 -90 -63 -335 -52 -354 5 -11 20 -18
38 -18 24 0 51 22 157 130 90 91 137 131 158 135 17 3 44 12 60 19 36 16 185
10 185 -8 0 -42 -33 -198 -55 -262 -35 -101 -31 -156 14 -196 36 -32 77 -45
100 -31 9 6 48 68 87 139 68 123 74 131 140 176 57 38 77 47 115 47 114 2 143
-23 140 -119 -1 -44 4 -70 19 -97 11 -21 27 -55 35 -76 19 -50 60 -67 163 -67
43 0 116 -5 161 -11 71 -10 85 -9 106 5 14 9 63 30 108 45 45 16 119 43 165
60 46 17 88 31 93 31 5 0 2 -14 -7 -31 -25 -49 -44 -120 -44 -166 0 -78 69
-95 179 -43 35 17 102 37 148 45 77 14 97 13 207 -2 112 -16 353 -23 481 -14
28 2 122 -2 210 -10 194 -16 262 -16 475 -2 142 10 182 17 285 48 66 20 181
66 257 103 130 64 135 65 108 35 -16 -18 -34 -52 -40 -75 -6 -24 -17 -62 -25
-86 -17 -51 -8 -54 61 -17 34 18 62 25 103 25 74 0 227 -32 279 -59 55 -28 92
-27 197 9 103 35 157 37 257 11 174 -45 227 -53 261 -42 22 8 88 9 205 4 l173
-8 62 63 c34 34 71 65 82 68 11 4 52 26 92 51 66 41 77 52 146 161 76 118 204
365 227 435 7 21 32 61 56 88 24 27 44 56 44 64 0 8 9 24 21 36 l21 21 24 -23
c13 -12 24 -28 24 -36 0 -7 4 -13 9 -13 5 0 11 24 15 53 14 107 17 117 38 114
16 -2 29 17 66 93 34 68 53 96 67 98 21 3 227 295 445 632 168 260 165 257
208 284 45 28 65 59 111 171 53 127 89 195 146 270 56 76 108 164 168 286 20
42 70 126 110 185 126 190 379 526 453 604 59 63 81 97 138 214 38 76 87 167
111 201 23 34 50 84 60 111 10 27 33 88 51 136 18 47 42 128 54 180 13 51 35
140 51 198 16 58 35 145 44 194 15 88 25 119 25 78 0 -31 14 -34 44 -11 30 23
58 76 105 194 52 128 102 179 117 118 4 -14 4 -117 1 -227 -3 -111 -3 -209 1
-219 7 -16 10 -15 34 10 27 28 58 97 85 188 25 84 74 205 83 205 15 0 17 -82
8 -294 -10 -231 -8 -298 8 -303 24 -8 49 76 104 342 55 264 158 578 213 643
10 12 13 11 17 -9 6 -23 -19 -242 -40 -357 -30 -166 -57 -584 -46 -695 8 -74
30 -112 59 -101 28 10 47 58 63 156 35 219 171 788 194 811 4 5 11 -49 14
-120 12 -234 27 -397 47 -522 11 -69 22 -127 25 -130 24 -25 88 225 144 564
14 83 44 159 62 153 20 -7 56 -116 94 -283 74 -325 133 -441 149 -292 4 34 2
114 -4 176 -7 62 -10 115 -8 117 2 3 26 -28 52 -68 99 -149 190 -264 299 -377
99 -103 99 -100 -8 263 -50 170 -68 276 -47 276 14 0 92 -78 230 -229 94 -102
149 -146 203 -161 43 -13 58 16 58 116 0 90 -3 110 -55 334 -19 85 -38 188
-42 229 -6 68 -5 73 13 70 19 -4 31 -21 164 -229 81 -128 163 -220 180 -203
15 14 0 160 -30 290 -11 47 -19 91 -17 96 3 11 32 -34 128 -198 67 -114 134
-195 162 -195 10 0 20 12 24 28 10 37 10 221 0 365 -8 110 -7 119 9 115 11 -2
53 -68 112 -178 122 -226 204 -350 301 -452 l79 -83 -45 -74 c-25 -41 -87
-162 -139 -270 -130 -272 -178 -350 -296 -477 -55 -60 -133 -156 -174 -214
-271 -391 -305 -431 -392 -456 -31 -9 -74 -25 -94 -35 -20 -10 -79 -30 -131
-43 -102 -27 -308 -123 -389 -183 -26 -19 -103 -101 -172 -183 -69 -81 -141
-158 -160 -169 -27 -17 -62 -24 -158 -32 -68 -6 -183 -24 -255 -40 -167 -37
-305 -58 -458 -69 -66 -5 -212 -16 -325 -24 -342 -25 -449 -48 -697 -149 -170
-69 -221 -101 -351 -217 -132 -117 -163 -137 -255 -160 -139 -35 -189 -68
-327 -213 l-94 -98 22 -68 c28 -87 28 -97 -5 -104 -37 -8 -195 -103 -248 -149
-59 -52 -111 -134 -147 -231 -26 -68 -32 -101 -36 -195 -5 -124 1 -142 39
-122 13 7 94 81 179 165 85 84 166 158 178 164 49 26 135 50 212 61 72 10 88
9 160 -11 43 -11 83 -26 88 -32 5 -7 14 -48 20 -92 7 -62 18 -93 45 -140 54
-90 63 -102 123 -148 95 -72 121 -84 197 -91 39 -4 98 -14 131 -22 41 -11 96
-15 175 -13 268 6 494 -4 636 -28 50 -8 142 -19 205 -24 63 -4 142 -13 175
-19 44 -9 102 -9 220 -1 317 21 397 23 572 11 294 -20 458 5 790 120 259 90
453 224 577 398 65 90 230 212 287 212 26 0 143 -78 190 -126 38 -39 53 -41
94 -14 25 17 40 19 92 14 60 -6 62 -6 76 22 21 41 51 65 142 114 44 23 103 63
131 89 101 93 271 238 344 295 41 33 129 111 196 175 66 64 147 141 180 171
58 54 150 163 210 246 39 57 383 422 436 466 24 19 66 49 93 68 89 59 216 171
395 346 96 94 191 181 210 192 31 20 36 20 52 5 14 -13 20 -13 33 -3 11 9 18
10 29 1 20 -17 40 6 81 93 46 98 62 111 139 111 49 0 67 5 90 22 16 13 40 23
53 23 38 0 60 16 89 65 29 50 52 57 105 30 37 -20 93 -22 114 -5 8 7 27 51 42
99 29 97 43 117 84 126 19 4 35 18 45 36 8 17 25 34 38 39 13 5 43 35 68 67
43 56 46 58 89 57 24 0 66 -4 92 -9 42 -7 51 -5 72 15 13 12 26 33 29 46 25
99 46 132 134 206 l87 74 40 -38 c50 -48 122 -97 153 -105 52 -13 50 31 -6
200 l-36 108 59 59 c33 33 63 59 66 58 4 -2 51 -55 105 -118 178 -209 382
-409 404 -395 23 14 -36 158 -186 453 -63 122 -114 227 -114 233 0 27 32 -7
110 -119 123 -174 195 -263 313 -385 103 -106 127 -123 127 -90 0 36 -54 191
-124 356 -40 95 -76 183 -79 195 -5 23 -5 23 14 6 20 -18 47 -58 244 -359 103
-155 242 -315 276 -315 39 0 23 96 -74 450 -40 143 -55 279 -37 325 17 44 50
75 80 75 35 0 101 -48 141 -103 38 -50 129 -237 194 -396 56 -138 158 -342
183 -364 47 -42 47 -41 47 253 0 303 1 311 65 383 35 40 64 47 79 19 34 -63
65 -268 76 -497 8 -151 34 -394 44 -414 5 -8 11 32 16 100 18 310 79 526 194
692 102 148 116 105 116 -360 0 -188 3 -345 8 -349 26 -27 56 69 112 369 39
206 83 361 151 536 81 207 180 371 224 371 11 0 20 -2 20 -5 0 -2 7 -30 16
-62 14 -47 18 -134 24 -468 4 -227 13 -446 19 -490 12 -79 42 -165 58 -165 48
1 69 90 112 476 35 305 57 437 106 629 44 173 73 230 89 178 14 -45 47 -270
71 -483 27 -242 79 -514 119 -625 22 -60 78 -145 96 -145 24 0 39 35 45 105 9
93 3 161 -40 430 -62 392 -58 416 25 165 140 -421 344 -805 522 -983 79 -79
89 -44 29 109 -21 54 -71 175 -110 268 -121 286 -201 548 -201 663 0 34 4 64
9 67 11 7 45 -31 70 -81 11 -23 59 -131 106 -240 76 -174 336 -683 417 -815
35 -56 50 -62 41 -15 -11 58 -100 301 -176 483 -105 248 -164 411 -193 534
-32 133 -50 367 -34 449 41 207 103 267 162 156 14 -27 50 -126 78 -220 174
-575 273 -839 354 -940 13 -16 28 -26 32 -22 4 4 -3 63 -16 130 -13 67 -25
159 -28 205 -5 96 6 122 65 150 23 10 40 27 44 42 4 14 8 99 9 190 1 91 5 192
9 225 l7 60 27 -59 c15 -32 27 -60 27 -62 0 -7 142 -246 196 -330 161 -251
275 -357 266 -250 -4 47 -20 88 -116 299 -62 135 -128 317 -126 346 1 3 20
-34 44 -84 85 -181 248 -421 474 -703 189 -235 304 -351 322 -322 11 18 -13
126 -70 315 -133 436 -158 590 -126 773 16 94 38 152 56 152 31 0 82 -169 154
-515 70 -337 90 -423 103 -457 30 -76 43 -49 83 168 18 99 49 225 76 305 64
192 96 237 116 163 14 -53 37 -257 48 -430 13 -210 33 -354 49 -354 11 0 44
102 96 292 82 302 233 605 325 653 25 13 28 12 38 -9 22 -48 22 -116 2 -296
-23 -207 -37 -554 -25 -645 l7 -60 14 30 c8 17 45 159 83 316 70 286 154 558
209 678 16 35 31 57 33 50 3 -8 0 -120 -5 -249 -11 -281 4 -458 38 -447 26 8
55 139 75 339 36 353 95 568 130 475 20 -53 40 -179 56 -347 19 -220 32 -294
55 -323 l19 -22 21 47 c22 51 39 245 40 473 0 107 20 239 39 258 13 13 38 -79
72 -263 49 -264 59 -302 90 -332 15 -16 38 -28 52 -28 55 0 60 123 18 415 -22
150 -26 220 -12 195 5 -8 32 -116 61 -240 106 -457 173 -622 322 -801 52 -63
84 -75 93 -36 8 31 -27 186 -92 412 -90 309 -115 426 -117 542 -1 85 2 105 16
119 17 17 19 14 47 -47 15 -35 60 -167 99 -294 132 -428 182 -548 273 -646 74
-80 119 -37 100 97 -20 135 -83 383 -136 534 -41 115 -98 380 -88 406 8 21 37
17 61 -8 11 -13 75 -129 142 -258 141 -270 164 -311 274 -475 149 -221 295
-396 390 -466 67 -50 75 -13 21 101 -34 72 -35 74 -8 40 15 -19 61 -73 101
-120 41 -47 80 -94 87 -105 27 -40 78 -469 100 -835 9 -140 20 -302 25 -360
14 -165 8 -654 -8 -673 -8 -9 -37 -29 -66 -46 -85 -48 -179 -159 -238 -281
-70 -143 -218 -366 -317 -475 -44 -49 -81 -93 -81 -97 0 -4 -42 -41 -92 -82
-67 -54 -113 -84 -163 -103 -108 -41 -251 -101 -345 -145 -73 -35 -98 -54
-179 -137 -125 -128 -163 -189 -208 -330 -53 -167 -48 -298 13 -337 39 -26 63
-7 155 122 46 64 102 132 125 150 22 19 97 61 167 93 84 40 130 68 138 83 21
42 62 78 96 84 42 8 75 -13 111 -69 15 -23 39 -58 53 -77 14 -19 37 -55 50
-80 13 -25 32 -56 41 -69 10 -13 22 -40 28 -61 15 -55 63 -115 112 -138 l43
-21 95 23 c52 13 120 27 150 31 80 10 263 70 327 106 48 28 58 30 78 19 13 -7
29 -25 35 -40 17 -40 89 -106 140 -129 55 -24 138 -37 286 -47 106 -6 115 -5
245 30 93 25 146 46 174 66 22 16 67 48 100 71 33 23 81 62 107 86 26 23 53
43 60 43 7 0 49 -30 93 -67 109 -91 146 -105 275 -111 86 -3 128 1 230 22 69
14 172 30 229 36 56 5 106 12 111 15 5 3 80 12 167 21 371 36 401 43 441 119
16 29 23 88 37 310 6 82 3 116 -14 190 -11 50 -25 147 -30 215 -20 238 -78
502 -190 850 -55 173 -112 358 -126 410 -14 52 -64 212 -111 355 -72 223 -84
270 -84 328 0 78 14 92 63 63 16 -9 32 -14 35 -11 3 3 -2 56 -12 118 -23 144
-21 170 19 177 l30 5 3 78 c2 57 7 79 17 84 22 8 19 39 -19 202 -63 265 -66
306 -59 747 l6 394 51 -72 c61 -87 139 -174 144 -160 9 28 -118 414 -170 518
-14 27 -31 94 -25 94 2 0 30 -43 63 -96 59 -96 121 -164 149 -164 54 0 9 250
-131 720 -65 218 -75 303 -38 308 34 5 146 -108 268 -273 145 -194 185 -226
206 -170 11 29 -1 97 -66 383 -24 106 -44 195 -44 198 0 2 7 4 15 4 26 0 102
-78 208 -214 134 -173 256 -299 319 -330 28 -14 55 -23 59 -20 22 13 -9 232
-48 338 -8 22 -41 115 -73 206 -33 91 -72 202 -89 246 -16 45 -27 85 -24 88
15 14 76 -42 206 -189 270 -305 430 -445 507 -445 26 0 26 28 1 101 -34 100
-91 198 -256 443 -90 134 -175 267 -189 295 -29 55 -33 91 -13 91 8 0 90 -38
183 -85 185 -94 329 -145 482 -170 173 -29 174 -27 31 96 -174 149 -409 404
-409 445 0 30 74 15 181 -35 103 -48 288 -121 309 -121 19 0 10 14 -42 68
l-53 55 35 -7 c120 -22 494 -56 613 -56 l42 0 -67 38 c-96 54 -94 57 13 18
144 -52 220 -57 203 -12 -15 40 -411 356 -633 505 -50 34 -91 63 -91 64 0 1
75 -16 168 -40 92 -23 176 -42 187 -43 34 0 402 -186 513 -258 12 -8 22 -12
22 -10 0 3 -54 45 -120 93 -66 49 -118 90 -116 92 2 3 37 -5 78 -17 40 -12 82
-24 93 -27 11 -3 -64 51 -166 119 -102 68 -214 146 -250 173 -87 66 -190 157
-185 162 4 5 417 -158 605 -238 62 -27 116 -49 119 -49 3 0 -86 53 -199 119
-112 65 -271 158 -354 208 l-150 89 3 49 c2 28 6 52 8 54 1 2 38 -6 81 -17 43
-12 112 -28 153 -37 85 -18 317 -114 524 -217 76 -38 140 -68 142 -66 2 2 -86
58 -195 123 l-199 120 309 7 310 8 302 -94 c166 -52 354 -113 417 -135 63 -22
115 -39 117 -37 3 3 -465 232 -561 274 l-58 26 48 21 49 22 160 -53 c88 -29
266 -78 395 -109 129 -32 266 -65 303 -75 38 -10 65 -14 60 -10 -4 3 -60 37
-123 75 -115 67 -356 227 -630 416 -80 55 -195 130 -257 167 -61 37 -110 68
-109 70 2 1 74 -22 162 -52 87 -31 159 -54 161 -53 4 5 -470 201 -587 243 -8
3 33 -20 92 -52 59 -32 106 -59 105 -60 -2 -2 -47 9 -102 23 -55 14 -194 47
-308 74 -166 38 -219 55 -258 80 -27 17 -49 33 -49 36 0 11 374 -9 520 -29
161 -21 389 -22 439 -1 26 10 29 9 -269 131 -157 64 -401 174 -397 178 1 1
101 8 222 14 224 11 385 28 385 40 0 9 -162 45 -265 60 -44 6 -215 24 -381 39
-218 20 -306 31 -322 42 -20 15 -3 16 201 23 478 15 666 25 756 41 52 8 98 18
104 22 5 3 -6 11 -24 18 -19 7 -81 34 -138 60 -58 25 -172 69 -255 96 -232 77
-493 213 -472 247 10 17 45 15 231 -13 91 -14 207 -28 258 -31 50 -3 159 -17
242 -30 82 -13 154 -24 160 -24 5 1 -17 15 -50 32 l-60 32 80 18 c44 10 91 20
104 24 31 7 20 16 -64 48 -159 62 -316 129 -312 132 2 3 42 -5 88 -16 46 -11
121 -25 167 -30 52 -7 139 -31 239 -65 86 -31 158 -54 159 -52 2 2 -33 25 -78
53 -76 45 -80 49 -53 52 63 6 135 24 135 33 0 18 -139 75 -310 129 -91 28
-199 63 -240 76 -41 13 -161 72 -267 131 l-193 108 68 17 c108 28 123 25 329
-63 239 -103 531 -222 653 -266 197 -72 490 -172 490 -167 0 2 -244 126 -542
274 l-542 270 104 0 c58 0 136 3 174 7 l68 6 -6 50 c-7 48 -6 49 16 44 13 -3
41 -8 63 -12 34 -5 30 -1 -30 24 -69 28 -70 29 -78 74 -9 45 -43 83 -176 191
l-36 29 70 -7 c39 -3 95 -8 125 -11 l55 -5 -55 20 c-30 12 -95 32 -145 45 -84
22 -88 24 -62 34 118 45 427 174 424 177 -1 2 -63 -1 -137 -6 -135 -9 -275
-11 -232 -3 12 2 22 8 22 13 0 11 -87 43 -180 65 l-74 18 39 35 c22 18 85 67
141 107 l100 74 109 11 c60 6 111 13 114 15 7 7 -21 15 -84 23 l-60 7 147 93
146 93 134 14 c73 9 157 19 185 25 68 12 153 49 153 66 0 20 -105 37 -190 31
-61 -4 -71 -3 -50 6 13 7 39 28 57 47 41 45 31 57 -63 72 -84 13 -392 2 -779
-28 -105 -8 -104 1 5 40 91 32 146 64 134 76 -6 6 -47 13 -92 17 l-82 8 88 79
c76 68 97 81 161 102 90 28 103 39 68 55 -15 7 -27 15 -27 19 0 3 40 41 89 83
l89 77 79 1 c43 1 107 4 143 8 l65 6 -97 34 -97 34 50 55 c27 30 60 72 72 94
l22 40 100 -6 100 -5 -103 20 c-92 19 -104 24 -117 49 -14 27 -69 67 -150 108
l-40 21 45 1 c25 0 151 -5 280 -11 129 -5 276 -7 325 -3 l90 7 -50 13 c-27 8
-156 37 -285 65 -129 29 -237 53 -239 55 -2 2 13 19 34 37 49 42 50 76 4 123
-19 19 -54 47 -79 62 l-45 27 245 6 c299 8 277 6 261 22 -9 9 -78 12 -282 11
-148 0 -269 3 -269 7 0 4 37 31 83 60 45 29 145 94 222 144 l140 92 180 42
c194 45 728 185 766 201 44 18 -245 1 -511 -30 -107 -12 -177 -13 -164 -1 5 5
43 20 84 35 l75 25 -100 -6 c-55 -3 -145 -8 -200 -12 -82 -6 -109 -4 -151 10
-27 9 -70 20 -93 24 -32 5 -40 10 -30 17 10 6 3 8 -21 5 -35 -5 -304 37 -349
54 -23 9 -23 10 -5 31 11 11 70 65 131 118 106 91 121 100 233 145 127 51 262
122 295 157 l20 20 -65 -6 c-36 -4 -103 -14 -150 -24 l-85 -18 -15 30 c-18 35
-84 73 -254 148 l-119 52 174 56 c153 50 274 99 244 99 -5 1 -50 -6 -100 -14
-129 -21 -138 -19 -70 16 137 72 183 121 170 180 -5 24 -3 29 12 30 12 0 9 5
-12 14 -29 13 -85 75 -67 75 4 0 84 -11 177 -25 221 -33 406 -42 505 -25 l75
13 -140 23 c-77 13 -212 42 -300 64 -172 43 -617 183 -650 204 -42 28 -110 97
-90 92 136 -36 644 -119 910 -150 70 -8 39 6 -80 38 -55 14 -142 39 -193 54
l-94 28 58 13 c70 16 104 47 104 93 0 41 -12 59 -108 166 -46 51 -68 82 -58
82 9 0 59 -7 112 -15 53 -9 98 -14 100 -12 2 1 -57 18 -131 36 l-135 33 -51
56 c-28 31 -46 58 -40 60 6 2 66 -3 134 -12 467 -60 1070 -105 1054 -79 -7 11
-221 93 -527 201 -159 57 -165 60 -168 88 -2 16 -17 47 -34 69 -17 22 -36 46
-42 54 -12 16 19 13 239 -24 76 -13 141 -23 142 -21 2 1 -16 8 -39 15 -175 52
-706 278 -784 334 -105 74 -463 347 -469 357 -3 6 0 10 7 10 7 0 87 9 178 20
91 11 183 20 205 20 27 0 35 3 25 9 -31 18 -177 31 -335 31 -105 0 -165 4
-165 10 0 6 32 45 72 88 l71 77 147 50 c167 58 215 83 215 111 0 17 -9 19
-106 22 -58 1 -146 -1 -195 -6 -89 -9 -89 -9 -136 22 -26 17 -48 34 -48 37 0
3 73 27 163 53 191 56 234 73 221 86 -12 11 -160 27 -334 36 -74 4 -138 11
-141 16 -3 5 -3 25 0 46 l6 37 236 26 c130 15 241 28 248 30 6 2 -88 22 -209
43 -169 30 -220 43 -216 53 4 10 -11 13 -71 13 l-76 0 5 43 c3 23 24 90 47
150 l43 107 76 1 77 1 -63 13 c-34 7 -65 15 -69 19 -3 3 -2 16 4 29 l11 23
118 -18 c179 -26 577 -37 989 -28 198 5 405 10 460 11 55 1 91 3 80 6 -156 35
-352 92 -613 177 -402 133 -642 202 -907 260 -115 26 -218 50 -227 54 -15 6
-10 15 28 60 l46 52 101 1 c56 1 116 4 132 8 27 6 24 8 -30 18 -33 7 -84 15
-113 18 l-52 7 40 50 c22 28 40 55 40 60 0 17 -62 -2 -158 -48 -89 -42 -99
-44 -180 -44 l-87 0 3 45 c5 54 -18 47 252 80 113 13 221 26 240 29 19 2 -78
3 -216 2 l-251 -3 17 56 c32 102 36 109 77 120 158 44 393 116 385 119 -9 3
-281 -31 -358 -44 l-32 -6 31 100 31 99 86 28 c147 48 580 242 580 260 0 6 2
6 -345 -46 -148 -22 -362 -58 -474 -81 -198 -39 -205 -40 -218 -22 -9 12 -13
39 -11 72 l3 53 129 54 c71 29 136 61 145 70 15 15 11 16 -54 10 -38 -3 -103
-10 -143 -16 -40 -5 -78 -9 -83 -9 -5 0 -9 23 -9 50 0 41 3 50 18 50 9 0 35 5
57 11 34 10 37 13 20 20 -11 4 -39 8 -62 8 -32 1 -43 5 -48 21 -14 43 -63 64
-159 68 -68 3 -94 8 -103 20 -18 23 -16 52 4 52 37 0 143 23 138 30 -2 4 -33
13 -67 20 -99 19 -98 19 -98 51 0 16 5 29 12 29 6 0 92 -9 191 -21 98 -11 181
-18 184 -16 7 7 -245 97 -319 114 -61 14 -69 18 -66 37 3 20 11 21 133 28 177
10 326 33 383 59 62 28 53 31 -158 59 -218 29 -428 65 -465 79 -48 19 -12 31
95 31 174 0 493 30 545 51 l20 8 -20 0 c-11 1 -137 10 -280 21 -143 12 -351
25 -463 29 -112 5 -206 12 -210 16 -3 3 0 10 8 15 20 12 180 49 261 59 75 10
67 11 -161 20 l-155 6 -13 45 c-7 25 -23 77 -36 115 -12 39 -24 76 -27 84 -3
11 87 42 361 128 335 104 474 145 1112 325 120 34 217 63 215 64 -2 2 -75 -3
-162 -11 -88 -7 -266 -19 -395 -25 -405 -18 -597 -36 -835 -75 -49 -8 -97 -14
-105 -14 -31 1 415 130 660 191 l255 63 -335 3 c-387 3 -629 -8 -882 -43 -200
-28 -216 -29 -203 -16 6 5 69 21 140 36 167 35 336 75 354 85 45 24 -164 62
-344 63 -124 0 -278 -20 -342 -44 -32 -12 -35 -9 -20 20 8 16 87 67 225 145
117 66 208 122 202 124 -14 5 -227 -62 -298 -94 -30 -13 -58 -24 -62 -24 -4 0
2 31 13 69 25 86 20 101 -33 101 l-42 0 59 52 c172 155 273 262 259 275 -16
17 -227 -91 -341 -174 -32 -24 -62 -43 -65 -43 -6 0 16 142 23 145 16 9 138
110 157 130 l25 27 -25 -7 c-14 -4 -52 -22 -85 -39 -33 -17 -63 -32 -67 -34
-5 -2 -8 6 -8 17 0 14 13 27 38 40 l37 20 -40 0 c-22 1 -85 -6 -139 -14 -134
-20 -126 -22 -114 23 12 46 23 60 51 65 19 4 19 4 -4 6 l-25 1 22 88 c13 48
23 96 23 107 1 18 25 27 199 73 108 29 305 84 437 124 132 39 294 86 360 104
142 38 122 41 -115 14 -96 -11 -312 -26 -480 -35 -168 -9 -365 -22 -438 -30
-178 -20 -163 -22 -148 22 l13 37 146 43 c173 50 377 123 467 167 l65 31 -105
3 c-105 3 -138 -1 -345 -38 -115 -21 -445 -39 -445 -25 0 5 19 50 43 101 30
68 49 96 67 104 23 9 23 10 2 6 -19 -4 -22 0 -20 22 3 26 1 27 -44 25 -35 -1
-72 -14 -139 -48 -50 -26 -94 -44 -97 -40 -8 8 40 101 80 156 32 44 78 68 333
171 319 129 325 149 20 63 -82 -23 -163 -45 -180 -49 -29 -7 -29 -7 -11 13 20
22 124 57 556 186 468 140 519 157 487 166 -57 15 -413 21 -597 10 -228 -14
-346 -28 -760 -90 -271 -40 -347 -48 -460 -47 l-134 1 -12 55 c-6 30 -14 62
-18 71 -8 19 -48 39 -79 39 -33 0 -132 -50 -264 -133 -137 -86 -163 -101 -170
-93 -3 3 0 27 7 54 10 42 16 51 43 59 18 6 181 64 362 128 353 126 672 230
1117 365 153 46 276 86 274 87 -7 7 -220 -29 -460 -78 -282 -56 -590 -127
-971 -223 -143 -36 -261 -61 -263 -56 -2 6 -23 10 -47 10 l-44 0 110 138 c60
75 161 209 225 298 l115 161 147 71 c185 89 428 198 687 309 229 98 280 123
315 152 l25 21 -55 -16 c-194 -56 -808 -344 -1077 -506 -27 -16 -4 23 130 224
124 185 168 260 185 312 13 38 21 71 18 73 -15 16 -281 -193 -611 -481 -88
-77 -173 -151 -190 -165 l-30 -26 25 26 c14 14 92 91 175 170 152 146 245 245
245 261 0 5 -27 -22 -59 -59 -68 -78 -161 -169 -311 -303 -58 -52 -140 -128
-183 -168 -44 -41 -82 -70 -86 -66 -4 5 -15 34 -24 65 -24 79 -55 120 -113
149 l-50 25 183 285 c101 157 259 400 352 540 150 228 251 393 251 414 0 4
-22 -19 -48 -51 -27 -32 -120 -134 -207 -228 -188 -202 -374 -414 -584 -662
-85 -101 -158 -183 -162 -183 -4 0 -17 13 -28 28 -22 31 -99 76 -147 86 l-32
7 26 47 25 47 -42 -47 -43 -48 -194 0 c-107 0 -194 3 -194 8 1 24 100 133 158
173 85 58 127 115 126 172 -1 38 8 53 114 192 261 337 679 863 837 1050 131
156 184 225 172 225 -3 0 -31 -33 -63 -72 -102 -127 -242 -265 -489 -481 -132
-116 -362 -331 -511 -479 l-271 -268 -34 13 c-19 8 -77 25 -129 37 -52 12 -98
25 -102 29 -3 3 29 47 72 96 86 98 138 181 123 196 -22 22 -133 -33 -309 -152
l-132 -89 -113 18 -113 18 180 116 c98 63 307 197 463 298 376 240 483 312
477 318 -8 7 -257 -74 -456 -150 -296 -113 -531 -217 -966 -426 l-251 -121
-94 10 c-138 14 -197 26 -235 50 -19 11 -34 24 -34 27 1 20 258 155 366 193
143 50 264 104 264 118 0 5 -8 14 -17 20 -10 5 -16 12 -13 14 15 14 391 208
625 322 410 200 618 294 988 445 70 29 126 54 124 56 -2 3 -78 -14 -168 -37
-246 -61 -517 -154 -1389 -472 -173 -63 -391 -141 -483 -173 l-168 -57 -98 12
c-54 7 -104 16 -111 21 -24 15 22 58 180 167 267 183 703 497 994 716 155 115
298 221 319 235 62 41 33 37 -49 -7 -111 -60 -253 -160 -664 -470 -201 -151
-437 -329 -525 -394 -88 -66 -166 -125 -174 -131 -12 -9 -13 -8 -6 4 20 34
774 1006 791 1021 23 19 286 178 397 238 42 24 77 44 77 46 0 2 -42 -15 -92
-37 -51 -22 -203 -85 -338 -140 -380 -156 -475 -196 -787 -337 -251 -114 -296
-131 -341 -131 l-52 0 139 158 c157 177 218 237 446 443 226 203 495 451 495
456 0 2 -20 -12 -43 -31 -24 -20 -46 -34 -48 -32 -2 3 -69 -29 -149 -70 -250
-129 -680 -339 -805 -394 -66 -29 -209 -95 -318 -146 -177 -84 -213 -97 -338
-124 -77 -17 -182 -44 -234 -60 -107 -32 -106 -38 -10 79 47 57 94 96 215 181
207 144 552 370 785 515 230 142 387 246 381 253 -3 2 -108 -45 -233 -106
-410 -198 -663 -315 -663 -306 0 7 197 228 355 399 239 259 601 634 793 823
108 105 192 192 187 192 -13 0 -162 -107 -267 -192 -89 -71 -171 -145 -399
-359 -80 -74 -246 -225 -370 -334 -123 -110 -271 -245 -329 -300 -154 -147
-398 -375 -403 -375 -3 0 15 55 40 123 149 415 265 834 251 902 -1 9 -54 -95
-117 -232 -136 -297 -275 -570 -401 -788 -129 -222 -153 -257 -189 -278 -32
-19 -32 -18 15 45 54 72 114 195 114 232 0 60 -18 68 -79 36 -64 -32 -155
-111 -370 -317 l-203 -197 32 65 c97 192 161 287 282 420 232 254 444 497 537
614 19 24 38 38 -199 -155 -227 -185 -206 -170 -191 -142 56 105 398 665 497
813 117 176 147 230 108 198 -9 -7 -129 -150 -266 -317 -389 -472 -818 -969
-818 -947 0 2 17 49 39 102 92 233 133 405 130 544 l-3 87 296 413 c162 228
350 493 418 589 100 141 728 1017 878 1224 20 27 29 45 19 40 -9 -5 -103 -81
-209 -169 -176 -146 -493 -449 -646 -618 -56 -61 -64 -66 -81 -55 -17 11 -32
7 -103 -27 -190 -91 -392 -248 -640 -497 -148 -148 -158 -156 -158 -128 0 43
-24 96 -52 113 -19 13 -33 14 -77 5 -56 -10 -197 -75 -289 -135 -30 -18 -52
-30 -49 -26 489 807 814 1365 770 1318 -6 -5 -36 -48 -69 -95 -79 -114 -172
-230 -468 -585 -138 -165 -289 -351 -336 -412 -74 -99 -89 -114 -120 -119 -82
-13 -190 -38 -263 -61 -44 -13 -81 -23 -83 -20 -2 2 13 28 34 58 306 434 332
468 429 540 84 64 153 126 153 140 0 5 -18 9 -40 9 l-40 0 29 48 c16 26 32 58
36 70 6 21 5 22 -12 14 -10 -6 -44 -38 -76 -71 l-59 -61 -113 -15 c-206 -27
-547 -109 -828 -199 -76 -24 -134 -39 -129 -32 5 6 77 102 161 213 181 242
285 372 440 553 242 284 667 755 776 860 31 30 66 67 76 83 l20 27 -26 -10
c-68 -26 -225 -142 -425 -315 -168 -144 -242 -218 -616 -611 l-352 -371 -69
-25 c-37 -14 -70 -21 -71 -16 -2 5 -27 -5 -55 -21 -29 -16 -108 -52 -177 -81
-69 -29 -252 -115 -408 -191 -155 -76 -279 -132 -275 -126 108 183 433 620
992 1332 502 641 531 675 695 845 67 68 112 117 101 109 -79 -60 -309 -249
-400 -328 -60 -53 -377 -360 -704 -684 -326 -323 -595 -586 -598 -584 -11 12
26 69 104 160 137 160 138 159 -23 24 -19 -16 -34 -27 -34 -25 0 2 63 192 140
423 164 490 230 740 165 627 -40 -71 -99 -208 -155 -362 -96 -265 -215 -523
-390 -845 -73 -136 -91 -160 -184 -255 -56 -58 -167 -177 -247 -265 -147 -161
-257 -270 -266 -261 -6 6 84 159 199 340 117 182 211 347 211 366 -1 8 10 45
23 82 13 37 26 90 30 117 12 89 -3 80 -251 -153 -220 -207 -224 -210 -230
-204 -3 2 0 31 7 64 9 49 61 143 313 574 166 283 360 614 430 735 70 121 202
346 293 500 90 154 167 285 170 290 11 22 -18 -15 -115 -145 -96 -127 -157
-202 -599 -730 -99 -118 -209 -252 -244 -298 -35 -46 -66 -79 -68 -74 -1 5 17
94 42 198 61 258 114 500 122 554 l6 45 -34 -50 c-137 -198 -202 -366 -311
-805 l-44 -175 -5 83 c-3 45 -9 87 -15 93 -21 21 -80 -25 -253 -201 -167 -168
-220 -210 -254 -197 -23 9 -3 73 99 312 143 338 235 631 235 753 0 25 18 65
62 141 65 112 302 489 460 731 116 178 295 471 371 605 77 137 131 305 98 305
-15 0 -107 -108 -188 -220 -111 -153 -156 -212 -258 -335 -50 -60 -135 -168
-189 -239 -110 -144 -329 -412 -480 -586 -127 -147 -225 -275 -347 -451 -53
-77 -144 -198 -202 -267 -164 -198 -151 -186 -121 -117 39 92 44 105 44 128 0
21 0 21 -19 2 -16 -16 -81 -127 -175 -297 -16 -30 -66 -40 -66 -14 0 27 72
154 159 281 332 482 415 622 436 738 6 32 5 37 -12 37 -23 0 -121 -58 -183
-108 -25 -20 -112 -98 -193 -172 -82 -74 -165 -148 -185 -163 -20 -16 -38 -32
-40 -37 -5 -13 -142 -133 -147 -128 -4 4 35 132 71 235 12 32 38 61 115 128
55 47 118 97 140 112 22 14 38 28 35 30 -2 2 -51 -12 -110 -30 -58 -19 -106
-31 -106 -26 0 4 16 52 35 106 19 54 35 103 35 108 -1 6 -31 -48 -68 -119
l-67 -129 -105 -42 c-58 -23 -136 -56 -174 -74 -38 -17 -71 -29 -74 -27 -12
13 72 416 128 615 21 75 98 332 170 571 153 505 180 606 220 830 33 184 34
188 21 175 -5 -6 -23 -61 -41 -124 -17 -63 -46 -153 -64 -200 -64 -165 -332
-715 -427 -877 -85 -145 -237 -382 -314 -489 -39 -55 -84 -118 -98 -140 -15
-22 -27 -37 -27 -34 0 11 108 245 167 364 33 66 63 131 67 145 11 40 -109 -92
-267 -295 -77 -99 -220 -281 -318 -405 l-179 -226 -117 -39 c-65 -22 -123 -41
-130 -43 -17 -5 66 196 156 377 113 225 236 450 814 1486 95 169 165 317 139
290 -6 -5 -56 -89 -112 -185 -155 -267 -261 -418 -452 -646 -287 -342 -401
-480 -472 -572 -74 -96 -81 -102 -115 -102 -57 -1 -127 -30 -248 -103 -97 -59
-304 -227 -315 -256 -5 -15 -210 -232 -215 -228 -11 11 141 555 293 1052 146
474 222 739 244 846 26 125 25 129 -9 39 -33 -88 -71 -165 -156 -315 -34 -60
-117 -216 -185 -345 -250 -480 -323 -616 -353 -660 -120 -174 -495 -617 -570
-671 l-42 -31 -3 34 c-2 18 23 125 57 243 32 116 67 246 76 290 9 44 108 355
220 690 177 532 217 664 238 798 2 15 1 27 -3 27 -10 0 -76 -115 -127 -220
-169 -354 -215 -439 -307 -565 -53 -71 -146 -202 -207 -290 -62 -88 -156 -221
-209 -295 -135 -187 -211 -305 -276 -426 -31 -57 -58 -104 -61 -104 -9 0 10
65 46 160 28 72 61 129 133 230 261 368 392 608 657 1207 268 605 517 1242
491 1258 -5 3 -35 -50 -68 -117 -109 -228 -365 -696 -746 -1363 -172 -302
-212 -365 -214 -342 -2 19 26 95 87 231 110 248 223 525 285 704 47 136 53
162 37 162 -12 0 -64 -80 -57 -88 13 -12 -264 -520 -480 -882 -142 -239 -245
-384 -380 -541 -110 -128 -224 -224 -238 -201 -10 17 180 347 300 519 97 139
207 319 417 683 94 162 210 364 259 448 117 202 418 615 653 895 94 111 45 76
-95 -70 -73 -76 -123 -124 -111 -108 12 17 47 56 78 88 87 89 41 67 -54 -25
-91 -89 -205 -229 -350 -428 -50 -69 -166 -213 -258 -320 -93 -107 -259 -301
-370 -430 -182 -211 -335 -367 -335 -342 0 16 227 684 316 930 67 183 232 616
271 710 3 6 1 12 -4 12 -11 0 -343 -670 -431 -870 -89 -201 -232 -536 -339
-795 -181 -438 -192 -445 -59 -34 84 261 322 1022 405 1294 69 229 93 368 37
209 -35 -97 -93 -239 -199 -489 -44 -104 -140 -338 -212 -519 -119 -295 -153
-364 -168 -339 -7 10 175 643 293 1023 51 162 108 347 127 410 52 169 121 440
112 440 -4 0 -29 -55 -55 -122 -26 -68 -110 -262 -187 -433 -206 -459 -296
-668 -380 -880 -78 -198 -177 -471 -196 -540 -9 -33 -27 -54 -112 -125 -122
-101 -247 -224 -508 -498 -106 -112 -195 -201 -198 -199 -2 2 13 87 34 188
l37 183 196 275 c483 679 792 1139 991 1474 73 122 156 262 186 311 29 49 52
93 51 97 -2 5 -50 -57 -108 -138 -216 -301 -466 -631 -686 -905 -347 -431
-585 -718 -598 -718 -6 0 -34 -11 -62 -24 l-51 -24 8 42 c4 22 26 183 49 356
42 310 43 317 92 445 80 208 132 360 178 515 24 80 70 201 102 269 32 68 57
126 54 128 -2 2 -20 -22 -40 -54 -20 -31 -36 -55 -36 -52 0 3 20 91 45 196 51
220 98 465 93 491 -2 9 -18 -41 -37 -111 -18 -71 -61 -216 -95 -322 -58 -177
-68 -200 -131 -294 -38 -55 -70 -99 -72 -97 -6 6 35 232 58 314 11 41 40 123
64 183 25 59 45 114 45 121 0 15 -68 -99 -120 -202 -49 -97 -87 -212 -149
-443 -28 -103 -53 -193 -57 -200 -13 -23 -188 -256 -190 -254 -5 5 193 783
205 805 7 13 10 26 8 29 -10 10 -37 -45 -81 -167 -111 -310 -247 -696 -285
-811 -33 -101 -52 -140 -97 -202 -30 -42 -57 -77 -59 -77 -2 0 1 15 6 33 13
43 49 258 49 288 0 16 -46 -45 -146 -196 -176 -266 -239 -370 -383 -632 -141
-259 -184 -333 -189 -328 -7 7 29 116 92 278 95 241 107 274 93 254 -6 -10
-41 -64 -76 -119 -36 -56 -67 -96 -69 -90 -2 6 80 143 181 304 269 427 466
762 455 773 -2 2 -35 -35 -73 -83 -71 -89 -485 -591 -687 -832 -62 -75 -131
-159 -152 -188 -22 -28 -41 -50 -43 -48 -12 12 172 558 321 953 97 257 113
293 138 321 14 13 17 22 9 22 -9 0 -11 6 -6 18 17 42 13 43 -7 1 -15 -30 -64
-85 -138 -155 -63 -60 -107 -98 -99 -84 58 92 189 323 185 327 -2 2 -39 -42
-82 -99 -170 -226 -534 -668 -550 -668 -3 0 5 19 19 43 13 23 100 179 192 347
92 168 192 347 222 399 29 52 52 98 51 103 -6 18 -377 -510 -546 -778 -29 -46
-42 -60 -38 -41 4 15 29 152 57 305 49 268 51 279 89 337 22 32 37 61 35 63
-2 2 -18 -11 -35 -30 -24 -25 -30 -28 -26 -13 14 57 107 642 105 662 -1 18
-41 -135 -89 -342 -28 -121 -65 -273 -82 -338 l-31 -117 -107 -123 c-123 -141
-272 -294 -633 -648 -208 -204 -257 -248 -252 -224 4 17 56 136 115 265 140
303 241 534 347 790 47 113 87 208 90 213 2 4 0 7 -4 7 -5 0 -47 -71 -95 -157
-47 -87 -124 -228 -171 -313 -46 -85 -119 -222 -160 -305 -42 -82 -77 -142
-77 -133 0 14 45 426 65 588 5 41 3 38 -20 -28 -14 -40 -55 -139 -91 -220 -36
-81 -82 -190 -101 -242 -57 -160 -159 -497 -193 -645 l-32 -140 -147 -142
c-80 -78 -146 -141 -147 -140 -3 3 53 158 134 372 95 252 102 276 142 480 45
236 289 984 462 1419 21 54 37 101 34 103 -16 16 -293 -573 -467 -992 -55
-132 -149 -341 -209 -465 -65 -135 -133 -295 -170 -400 -76 -214 -176 -469
-225 -570 -20 -41 -34 -68 -32 -60 38 136 208 798 281 1097 57 231 127 486
170 620 76 235 90 283 81 283 -10 0 -34 -58 -80 -195 -26 -77 -61 -169 -77
-205 -27 -61 -34 -69 -130 -135 -132 -91 -143 -97 -83 -42 28 25 47 48 44 51
-3 3 -56 -28 -118 -69 l-112 -75 4 177 c3 98 8 193 12 211 7 29 5 32 -16 32
-19 0 -36 -19 -84 -92 -153 -235 -829 -1138 -890 -1188 -19 -15 -20 -14 -39
31 l-15 36 77 88 c155 181 289 357 377 497 345 553 511 802 527 791 13 -7 28
16 28 45 0 23 0 23 -32 5 -56 -31 -404 -387 -607 -621 -107 -122 -196 -221
-198 -218 -2 2 10 61 27 132 17 71 56 239 86 374 30 135 75 325 100 424 25 98
42 181 39 184 -3 3 -6 3 -8 1 -23 -32 -209 -447 -333 -740 -148 -352 -160
-375 -181 -371 -13 2 -23 5 -23 7 0 1 9 28 21 61 38 109 139 521 189 776 41
202 56 261 78 297 32 51 65 131 58 138 -2 2 -17 -12 -32 -33 l-29 -37 -7 41
c-6 37 2 65 71 244 103 265 205 578 193 590 -6 6 -21 -12 -40 -49 -48 -95
-194 -332 -349 -569 l-145 -222 -137 -93 c-75 -51 -127 -83 -117 -70 11 12 35
31 53 42 40 25 43 40 6 30 -59 -17 -175 -84 -353 -202 -102 -68 -191 -128
-197 -132 -10 -6 -10 -2 -2 20 150 384 219 597 309 943 73 285 83 316 107 342
15 16 15 18 0 18 -31 0 -68 -69 -217 -407 -56 -125 -143 -309 -195 -408 -128
-247 -275 -513 -275 -497 0 34 -25 3 -62 -75 -107 -231 -179 -375 -184 -371
-2 3 16 61 42 129 25 68 73 201 106 294 61 174 91 267 439 1352 109 342 213
658 230 702 55 145 25 107 -68 -85z m-3797 -1271 c-136 -597 -194 -904 -225
-1193 -28 -254 -60 -686 -61 -815 l-1 -40 -23 27 c-29 33 -41 121 -33 242 5
78 110 710 183 1100 57 308 191 892 202 882 2 -2 -17 -94 -42 -203z m4553
-292 c-7 -23 -18 -46 -25 -52 -7 -6 -4 13 9 45 25 63 34 67 16 7z m-3270 -721
c6 -140 18 -354 27 -475 l17 -220 -52 -138 c-75 -199 -151 -377 -162 -377 -5
0 -7 10 -4 23 19 88 36 455 50 1112 l6 280 47 165 47 165 7 -140 c4 -77 12
-255 17 -395z m3140 398 c-46 -118 -96 -235 -205 -480 -63 -141 -148 -351
-188 -465 -105 -295 -96 -271 -108 -249 -6 11 -7 44 -3 85 7 74 28 121 310
721 89 190 172 366 183 393 28 64 37 60 11 -5z m4942 -145 c-21 -55 -46 -111
-56 -124 l-17 -24 5 40 c4 36 94 221 103 212 2 -2 -14 -49 -35 -104z m-13827
-163 c40 -200 122 -535 216 -886 33 -121 60 -229 60 -239 0 -27 -69 -95 -97
-95 -27 0 -42 27 -72 126 -12 40 -27 77 -35 83 -8 7 -33 69 -56 139 -40 119
-43 137 -51 287 -9 170 -37 474 -45 487 -7 11 29 299 36 291 4 -5 23 -91 44
-193z m12482 -296 c-175 -405 -335 -761 -421 -939 l-82 -171 -57 -22 c-65 -25
-91 -28 -83 -9 3 6 39 84 80 172 97 209 175 398 257 621 l67 182 167 207 c93
113 170 205 172 202 2 -2 -43 -111 -100 -243z m-2681 -9 l-43 -190 -53 -47
c-30 -26 -55 -46 -56 -44 -2 2 41 109 94 239 53 130 98 235 100 234 1 -2 -18
-88 -42 -192z m1980 -62 c-35 -127 -80 -303 -100 -390 l-36 -158 -107 -99
c-59 -55 -158 -151 -221 -215 l-113 -116 51 87 c84 143 106 209 82 247 -15 23
-72 5 -167 -53 -49 -30 -90 -52 -92 -51 -2 2 50 68 115 147 179 217 436 547
547 700 55 76 101 136 102 135 2 -2 -26 -107 -61 -234z m1774 82 c-8 -30 -46
-100 -102 -184 -85 -128 -117 -158 -83 -78 16 40 189 318 194 313 1 -2 -3 -25
-9 -51z m-3364 -87 c-169 -357 -266 -551 -270 -546 -3 3 -2 87 1 186 l7 181
157 156 c87 85 160 155 163 155 3 0 -23 -60 -58 -132z m-2013 -5 c-39 -49
-151 -156 -178 -171 -12 -6 28 38 90 98 61 60 113 110 114 110 2 0 -10 -17
-26 -37z m-3454 -259 l-32 -229 -13 50 c-7 28 -21 66 -32 86 -18 36 -18 37 9
96 15 33 42 99 60 146 18 48 34 86 36 84 2 -2 -10 -107 -28 -233z m668 -100
c-29 -316 -59 -539 -69 -513 -39 99 -80 158 -118 171 -5 2 12 55 39 118 27 63
73 177 102 252 30 76 55 136 57 134 2 -2 -3 -75 -11 -162z m-1820 34 c-19 -58
-46 -127 -61 -154 -14 -27 -24 -44 -23 -38 10 37 112 303 115 300 2 -2 -12
-51 -31 -108z m-822 -79 c-77 -209 -125 -302 -146 -281 -5 5 14 54 50 123 33
63 79 160 103 216 24 56 45 100 47 99 2 -2 -22 -73 -54 -157z m9285 24 c-85
-158 -201 -367 -209 -376 -4 -5 -10 10 -13 33 -3 23 -13 50 -22 60 -15 17 -13
21 37 77 29 33 98 115 153 181 55 67 101 122 103 122 2 0 -20 -44 -49 -97z
m-2343 -60 c-12 -40 -36 -240 -52 -435 -10 -115 -20 -208 -23 -208 -4 0 -24
34 -45 75 -44 83 -104 152 -141 161 -14 3 -25 8 -25 9 0 2 18 52 40 111 39
106 40 109 137 206 97 98 119 114 109 81z m-13759 -266 c23 -89 45 -170 49
-180 3 -10 -30 18 -75 62 l-82 79 28 101 c15 56 30 101 33 101 3 0 24 -73 47
-163z m3322 -112 c1 -24 -6 -35 -29 -48 -28 -17 -30 -17 -30 -2 0 18 27 130
37 155 7 16 21 -52 22 -105z m-3309 -350 c33 -111 57 -252 45 -263 -22 -21
-170 191 -227 326 -24 57 -24 55 29 241 l15 54 55 -129 c30 -71 67 -174 83
-229z m17363 116 c-15 -86 -20 -97 -61 -142 -25 -28 -47 -48 -50 -45 -2 3 24
68 59 145 35 77 64 139 66 137 1 -1 -5 -44 -14 -95z m-17663 -484 c0 -82 -8
-90 -35 -36 -14 27 -14 35 1 84 23 71 34 54 34 -48z m-2063 -409 c-3 -8 -6 -5
-6 6 -1 11 2 17 5 13 3 -3 4 -12 1 -19z m25382 -425 c-65 -151 -87 -178 -193
-242 -134 -80 -72 29 162 287 47 50 86 92 87 92 2 0 -24 -62 -56 -137z m1468
-705 c-3 -8 -6 -5 -6 6 -1 11 2 17 5 13 3 -3 4 -12 1 -19z m1764 -817 c-37
-46 -153 -156 -181 -171 -32 -17 -24 2 30 73 37 49 66 75 112 100 35 19 65 35
66 36 2 0 -10 -16 -27 -38z m828 -503 c-61 -95 -132 -202 -158 -236 -46 -63
-47 -64 -161 -107 -63 -24 -116 -43 -117 -41 -3 2 75 140 170 302 20 34 55 59
198 147 96 59 175 107 176 107 1 0 -47 -78 -108 -172z m-526 -245 c-15 -21
-69 -93 -121 -159 l-93 -122 -151 -56 c-104 -39 -162 -56 -187 -54 l-36 3 85
65 c73 56 519 360 528 360 2 0 -9 -17 -25 -37z m513 -320 c-29 -43 -103 -148
-162 -234 -84 -120 -128 -174 -194 -232 -109 -97 -294 -247 -299 -242 -2 2 4
25 13 51 11 33 45 78 123 163 91 98 562 570 571 571 1 0 -22 -35 -52 -77z
m3724 -967 c0 -7 -159 -126 -310 -231 -346 -242 -485 -355 -769 -631 l-127
-123 -129 -9 c-72 -5 -131 -9 -132 -8 -3 3 268 202 452 333 215 152 580 398
780 523 99 63 191 122 204 132 24 18 31 21 31 14z m-430 -979 c0 -2 -61 -59
-136 -127 -112 -103 -369 -370 -501 -519 l-30 -35 -67 35 c-37 19 -84 48 -104
65 l-37 32 99 63 c118 76 770 487 774 488 1 1 2 0 2 -2z m-45853 -6922 c48
-60 117 -157 155 -214 69 -104 166 -287 157 -296 -3 -2 -34 48 -69 112 -44 80
-103 163 -191 271 -119 145 -179 230 -195 277 -12 35 50 -30 143 -150z m50856
-12368 c115 -69 119 -72 113 -100 -3 -16 -6 -42 -6 -58 0 -20 -5 -29 -16 -29
-31 0 -254 236 -254 269 0 14 6 11 163 -82z m-32229 -1164 c26 -52 56 -169 86
-343 16 -96 30 -176 30 -177 0 -2 4 -3 9 -3 5 0 14 33 21 73 25 155 65 267 94
267 26 0 66 -135 82 -275 9 -88 20 -99 32 -34 6 30 20 102 32 162 23 121 46
179 70 175 20 -4 55 -113 81 -253 28 -157 29 -159 39 -149 5 5 19 47 30 92 24
98 37 129 64 160 53 60 68 13 75 -230 3 -108 10 -200 14 -205 16 -16 45 43 82
166 38 128 92 261 106 261 19 0 42 -115 69 -349 21 -185 35 -251 50 -251 16 0
56 90 84 190 31 108 87 254 119 308 l22 37 3 -58 c4 -82 -17 -188 -111 -544
l-82 -313 -69 0 c-38 0 -97 5 -131 11 -48 8 -90 7 -195 -6 -224 -27 -250 -28
-337 -11 -91 17 -152 45 -258 116 -38 26 -85 55 -104 64 -18 10 -52 35 -75 55
-22 21 -51 44 -64 50 -48 25 -163 231 -232 415 -32 86 -38 111 -29 123 15 17
17 111 6 308 -7 114 -6 147 3 139 6 -6 37 -79 69 -163 62 -159 83 -201 104
-201 22 0 48 58 78 176 30 122 59 196 86 226 22 24 30 23 47 -9z m7391 -1330
c-9 -54 -19 -100 -22 -103 -7 -7 5 103 18 163 19 83 22 42 4 -60z m7059 -471
c3 -5 -4 -21 -15 -38 l-19 -29 0 38 c0 26 4 37 14 37 8 0 17 -4 20 -8z m-356
-131 c52 -65 105 -135 119 -155 l26 -36 -28 -40 c-15 -22 -29 -39 -30 -38 -13
14 -193 388 -188 388 5 0 50 -54 101 -119z"/>
<path d="M33831 35929 c-6 -18 -9 -34 -7 -36 2 -2 9 10 15 28 6 18 9 34 7 36
-2 2 -9 -10 -15 -28z"/>
<path d="M33806 35865 c-9 -26 -7 -32 5 -12 6 10 9 21 6 23 -2 3 -7 -2 -11
-11z"/>
<path d="M33786 35815 c-9 -26 -7 -32 5 -12 6 10 9 21 6 23 -2 3 -7 -2 -11
-11z"/>
<path d="M33761 35749 c-6 -18 -9 -34 -7 -36 2 -2 9 10 15 28 6 18 9 34 7 36
-2 2 -9 -10 -15 -28z"/>
<path d="M33736 35685 c-9 -26 -7 -32 5 -12 6 10 9 21 6 23 -2 3 -7 -2 -11
-11z"/>
<path d="M33716 35635 c-9 -26 -7 -32 5 -12 6 10 9 21 6 23 -2 3 -7 -2 -11
-11z"/>
<path d="M33691 35569 c-6 -18 -9 -34 -7 -36 2 -2 9 10 15 28 6 18 9 34 7 36
-2 2 -9 -10 -15 -28z"/>
<path d="M33666 35505 c-9 -26 -7 -32 5 -12 6 10 9 21 6 23 -2 3 -7 -2 -11
-11z"/>
<path d="M33646 35455 c-9 -26 -7 -32 5 -12 6 10 9 21 6 23 -2 3 -7 -2 -11
-11z"/>
<path d="M33536 35185 c-9 -26 -7 -32 5 -12 6 10 9 21 6 23 -2 3 -7 -2 -11
-11z"/>
<path d="M33516 35135 c-9 -26 -7 -32 5 -12 6 10 9 21 6 23 -2 3 -7 -2 -11
-11z"/>
<path d="M45822 29111 c-39 -29 -60 -51 -47 -51 4 0 30 18 57 40 58 46 51 54
-10 11z"/>
<path d="M48550 28517 c-56 -24 -119 -56 -110 -57 8 0 160 67 167 74 10 10 2
7 -57 -17z"/>
<path d="M2851 28359 c-1 -15 6 -42 14 -60 18 -43 19 -10 0 46 -11 34 -13 36
-14 14z"/>
<path d="M52878 21213 c18 -2 45 -2 60 0 15 2 0 4 -33 4 -33 0 -45 -2 -27 -4z"/>
<path d="M2106 13913 c43 -75 125 -203 130 -203 6 0 -37 74 -99 173 -54 85
-75 105 -31 30z"/>
<path d="M54720 10221 c23 -15 127 -54 115 -43 -9 8 -77 37 -115 49 -13 4 -13
3 0 -6z"/>
</g>
</svg>
