<?xml version="1.0" standalone="no"?>
<!DOCTYPE svg PUBLIC "-//W3C//DTD SVG 20010904//EN"
 "http://www.w3.org/TR/2001/REC-SVG-20010904/DTD/svg10.dtd">
<svg version="1.0" xmlns="http://www.w3.org/2000/svg"
 width="377.000000pt" height="430.000000pt" viewBox="0 0 377.000000 430.000000"
 preserveAspectRatio="xMidYMid meet">
<metadata>
Created by potrace 1.16, written by Peter Selinger 2001-2019
</metadata>
<g transform="translate(0.000000,430.000000) scale(0.100000,-0.100000)"
fill="#000000" stroke="none">
<path d="M3080 4283 c-35 -12 -48 -13 -63 -3 -15 9 -22 8 -35 -3 -10 -8 -32
-22 -51 -32 -27 -13 -35 -14 -42 -4 -9 16 -82 -59 -100 -104 l-12 -28 -316 3
c-322 3 -538 -5 -623 -24 -64 -13 -98 -4 -166 46 -109 82 -315 121 -400 76
-20 -10 -66 -33 -102 -49 -36 -17 -78 -40 -95 -51 -41 -27 -44 -28 -95 -43
-51 -14 -62 -37 -34 -68 17 -19 17 -20 -5 -26 -16 -4 -21 -12 -19 -28 1 -12
-5 -30 -15 -39 -9 -10 -17 -24 -17 -32 0 -9 -10 -14 -28 -14 -37 0 -46 -10
-25 -25 11 -8 14 -18 8 -31 -4 -10 -7 -25 -6 -33 1 -8 -3 -17 -10 -22 -10 -6
-10 -11 0 -23 11 -13 24 -169 21 -268 0 -25 3 -27 27 -22 16 3 36 -1 47 -9 15
-11 17 -17 7 -35 -10 -20 -9 -23 14 -32 15 -6 31 -10 38 -10 8 0 8 -3 -1 -12
-17 -17 -15 -28 5 -28 9 0 32 -5 50 -12 28 -10 42 -9 88 7 30 10 58 15 62 11
4 -4 7 -22 7 -41 l0 -34 71 -6 c63 -6 75 -4 122 19 28 15 70 42 93 61 23 19
52 35 65 35 30 0 33 -8 97 -258 l21 -83 -21 -44 c-12 -25 -42 -70 -67 -100
-27 -33 -51 -76 -60 -109 -12 -41 -27 -65 -65 -100 -59 -56 -93 -71 -190 -86
-41 -7 -103 -21 -137 -31 -86 -25 -229 -35 -279 -19 -44 14 -89 52 -110 93
-26 48 -54 33 -88 -48 -17 -38 -31 -72 -33 -74 -1 -2 -52 4 -113 14 -81 12
-136 15 -208 10 -97 -7 -97 -7 -181 -64 -102 -68 -112 -81 -89 -118 15 -24 22
-28 56 -25 59 5 63 -15 12 -60 -23 -21 -51 -38 -62 -38 -34 0 -14 -24 45 -54
l58 -29 72 16 c39 9 73 14 75 13 1 -2 -22 -13 -52 -26 -64 -26 -110 -81 -104
-127 3 -24 8 -28 41 -31 20 -2 37 -7 37 -11 0 -4 -13 -20 -29 -35 -36 -34 -57
-107 -40 -138 10 -19 17 -20 80 -15 38 3 69 2 69 -3 0 -5 -15 -20 -33 -34
l-32 -26 83 0 c69 0 91 4 133 25 75 39 132 46 286 36 152 -10 293 -46 490
-123 l103 -40 -15 -26 c-7 -15 -33 -45 -56 -67 -61 -58 -169 -218 -169 -249 0
-26 -1 -26 -28 -12 -15 7 -60 19 -100 25 -41 6 -95 23 -122 36 -40 20 -64 25
-127 25 -102 0 -177 -19 -181 -46 -3 -27 6 -36 62 -62 29 -14 45 -27 40 -32
-5 -5 -53 -16 -106 -24 -99 -15 -125 -24 -148 -50 -10 -13 -10 -20 3 -39 11
-17 31 -26 77 -35 34 -6 69 -17 78 -24 13 -11 11 -14 -19 -18 -32 -5 -34 -8
-37 -47 -4 -48 -3 -48 98 -56 51 -5 231 -61 282 -88 13 -7 59 -44 103 -84 45
-40 106 -88 136 -107 69 -44 114 -112 124 -186 4 -29 15 -69 25 -90 9 -20 23
-59 29 -87 28 -112 83 -162 236 -213 170 -57 230 -62 343 -28 26 7 72 19 102
26 30 7 93 27 140 46 47 18 117 42 155 54 39 11 108 43 155 71 47 28 118 67
159 85 40 19 99 54 130 78 31 23 67 49 81 56 13 7 57 42 97 76 40 35 81 64 90
64 10 0 33 14 51 31 41 39 164 192 219 274 42 63 110 209 133 285 7 25 35 104
61 176 54 147 72 232 88 414 26 296 -2 693 -53 750 -17 17 -84 193 -115 295
-37 126 -146 355 -190 402 -23 23 -41 47 -41 52 0 21 48 41 111 47 58 5 113
19 237 61 45 16 97 62 112 101 6 14 18 22 33 22 36 0 60 32 52 69 -6 27 -4 31
22 36 53 12 55 14 49 39 -5 19 -1 25 16 29 l22 6 -23 24 -22 25 32 25 c35 27
35 57 -1 57 -19 0 -21 4 -15 29 5 22 2 32 -12 40 -15 8 -16 13 -5 30 18 30 15
59 -8 73 -11 7 -20 20 -20 29 0 9 -11 21 -25 27 -14 6 -25 20 -25 30 0 13 -12
22 -40 31 -27 8 -44 20 -50 35 -9 25 -29 36 -61 36 -11 0 -30 11 -42 24 -13
14 -36 28 -51 32 -15 3 -30 13 -33 20 -3 8 -19 14 -38 14 -19 0 -37 5 -40 10
-3 6 -30 10 -60 10 -38 0 -54 4 -59 15 -7 19 -19 18 -76 -2z"/>
</g>
</svg>
