<?xml version="1.0" standalone="no"?>
<!DOCTYPE svg PUBLIC "-//W3C//DTD SVG 20010904//EN"
 "http://www.w3.org/TR/2001/REC-SVG-20010904/DTD/svg10.dtd">
<svg version="1.0" xmlns="http://www.w3.org/2000/svg"
 width="1536.000000pt" height="841.000000pt" viewBox="0 0 1536.000000 841.000000"
 preserveAspectRatio="xMidYMid meet">
<metadata>
Created by potrace 1.16, written by Peter Selinger 2001-2019
</metadata>
<g transform="translate(0.000000,841.000000) scale(0.100000,-0.100000)"
fill="#000000" stroke="none">
<path d="M3709 8365 c-25 -8 -97 -51 -160 -96 -73 -52 -172 -109 -278 -161
-206 -100 -257 -132 -356 -227 -44 -42 -95 -84 -114 -94 -21 -11 -31 -22 -28
-31 7 -18 -49 -98 -169 -244 -52 -62 -111 -138 -132 -170 -54 -80 -209 -383
-232 -455 -61 -186 -64 -471 -9 -887 30 -222 33 -270 33 -510 1 -245 3 -268
20 -295 14 -22 21 -55 25 -125 6 -87 9 -99 39 -139 17 -24 32 -50 32 -57 0 -7
6 -14 13 -17 17 -5 12 -126 -13 -311 -11 -82 -20 -166 -20 -187 0 -34 -6 -43
-57 -85 -94 -76 -257 -278 -297 -368 -19 -43 -30 -56 -47 -56 -17 0 -20 -4
-15 -23 4 -17 -5 -35 -34 -71 -27 -32 -47 -71 -61 -119 -26 -88 -59 -153 -138
-276 -34 -52 -61 -105 -61 -118 0 -12 -23 -69 -51 -125 -51 -101 -52 -103 -61
-231 -9 -133 -18 -167 -43 -167 -12 0 -15 -15 -15 -66 0 -63 -11 -104 -29
-104 -5 0 -39 25 -76 55 -86 70 -135 72 -135 5 0 -27 40 -92 74 -119 16 -13
13 -16 -26 -34 -34 -16 -56 -19 -118 -14 -116 8 -196 39 -287 112 -94 75 -131
95 -175 95 -54 0 -81 -20 -98 -72 -9 -25 -22 -53 -29 -62 -18 -22 -70 -20
-133 4 -71 27 -96 25 -149 -8 -87 -55 -113 -105 -88 -168 17 -47 4 -69 -52
-93 -28 -11 -58 -21 -65 -21 -14 0 -84 -125 -84 -150 0 -8 11 -36 24 -63 26
-53 28 -52 69 29 43 85 107 94 257 35 59 -23 99 -31 185 -36 151 -10 151 -10
115 -88 -48 -100 -35 -178 37 -219 l29 -17 -4 58 c-8 112 34 138 239 147 74 3
150 10 169 15 20 5 71 35 115 68 64 49 94 64 159 81 124 33 156 51 231 130 39
40 108 98 155 129 102 68 187 173 273 339 96 184 187 445 187 534 0 61 15 85
67 108 27 12 78 51 118 89 141 138 225 191 225 144 1 -38 40 -101 102 -163 69
-70 115 -140 182 -285 31 -66 64 -114 122 -180 44 -49 108 -127 142 -172 34
-45 87 -104 119 -130 31 -26 113 -97 182 -156 488 -419 1324 -774 2011 -852
143 -17 418 -17 481 0 57 15 75 -56 43 -164 -22 -76 -67 -122 -126 -128 -40
-5 -60 1 -145 41 -119 55 -173 61 -199 21 -15 -24 -16 -32 -1 -105 9 -44 14
-86 11 -93 -3 -8 -28 -13 -72 -15 -97 -3 -151 26 -232 123 -91 111 -149 132
-211 77 -26 -23 -33 -38 -36 -79 -6 -55 13 -153 29 -153 5 0 24 11 42 25 18
14 38 25 44 25 15 0 42 -53 42 -84 0 -27 -23 -35 -177 -56 -99 -13 -112 -9
-223 80 -135 108 -203 130 -285 90 -43 -21 -73 -61 -86 -118 -8 -37 8 -152 21
-152 4 0 13 14 20 30 40 96 125 90 255 -16 33 -27 69 -54 80 -60 22 -12 30
-43 21 -80 -13 -52 -168 -124 -265 -124 -28 0 -99 9 -158 21 -196 38 -288 27
-369 -44 -74 -65 -107 -159 -90 -253 l7 -37 21 21 c12 11 33 42 47 68 50 91
120 107 352 79 172 -20 223 -17 395 30 92 25 177 58 294 114 175 84 228 101
309 101 123 0 437 -56 477 -84 15 -12 16 -17 5 -45 -16 -37 -131 -158 -187
-194 -21 -15 -69 -35 -106 -47 -43 -13 -74 -29 -87 -46 -26 -33 -45 -125 -36
-183 11 -82 53 -204 66 -195 5 3 9 45 9 94 0 122 6 135 86 172 42 20 69 39 74
53 6 16 27 30 65 44 91 34 109 46 142 98 17 26 66 90 108 141 77 93 94 104
135 82 14 -8 42 -3 112 20 52 16 129 37 173 46 128 26 181 62 252 172 62 96
94 187 123 353 35 199 53 259 85 289 29 27 38 26 265 -25 209 -47 546 -45 793
5 64 13 121 34 187 67 125 63 176 64 283 8 50 -26 93 -40 139 -46 43 -5 86
-19 120 -38 228 -127 1018 -300 1553 -341 222 -17 752 -14 990 5 589 47 1166
144 1554 262 150 45 622 232 725 287 283 150 626 376 626 411 0 8 41 42 91 76
49 34 145 114 212 179 67 64 137 126 155 139 18 12 44 45 57 72 23 45 55 75
67 63 3 -3 8 6 12 20 4 15 32 43 71 72 36 26 68 57 71 68 4 12 70 86 149 166
127 130 143 150 154 195 7 29 34 83 66 130 65 96 83 157 95 327 5 77 18 158
34 218 30 111 32 147 10 179 -15 21 -23 23 -70 19 -78 -7 -212 -75 -244 -125
-14 -20 -88 -86 -165 -146 -77 -60 -210 -177 -295 -261 -144 -141 -337 -316
-438 -394 -23 -19 -42 -40 -42 -48 0 -13 -113 -104 -130 -104 -4 0 -23 -15
-41 -33 -36 -35 -179 -127 -203 -131 -8 -1 -23 -9 -33 -18 -10 -8 -135 -74
-278 -146 -215 -109 -298 -145 -477 -207 -120 -41 -307 -99 -417 -129 -109
-30 -237 -68 -283 -84 -223 -79 -1378 -155 -1703 -113 -110 14 -397 73 -522
106 -139 37 -243 81 -399 171 -78 44 -171 95 -208 112 -36 17 -66 36 -66 42 0
6 -3 9 -8 7 -4 -3 -23 11 -42 30 -19 19 -53 43 -75 53 -70 31 -77 43 -100 195
-21 144 -30 166 -90 246 -48 64 -82 135 -70 147 2 2 36 -3 76 -12 96 -22 533
-40 581 -24 72 24 152 95 204 181 30 48 38 73 49 160 13 98 15 103 49 133 45
39 131 68 282 95 64 11 147 30 183 42 36 11 94 21 127 21 77 1 94 -12 141
-111 40 -84 56 -94 75 -50 23 56 17 146 -15 199 -62 107 -193 160 -265 109
-36 -25 -84 -38 -162 -46 -124 -12 -181 -26 -284 -70 -113 -48 -127 -51 -222
-34 -58 10 -64 13 -93 57 -18 26 -47 66 -66 90 -28 34 -35 53 -35 86 0 57 37
126 77 145 18 9 33 22 33 30 0 7 6 11 14 8 10 -4 13 -1 9 9 -3 9 1 14 11 14
31 0 76 30 157 105 85 78 140 105 211 105 56 0 76 -14 89 -63 13 -49 35 -77
61 -77 15 0 18 8 18 43 0 107 -55 195 -151 245 -54 29 -72 33 -112 29 -58 -5
-98 -32 -109 -73 -11 -44 -125 -120 -271 -184 -70 -30 -82 -39 -112 -86 -18
-28 -38 -55 -43 -58 -6 -3 -31 -1 -55 6 -65 17 -117 -1 -183 -64 -90 -85 -122
-176 -101 -285 l9 -43 -34 6 c-75 12 -126 27 -180 51 -57 25 -67 43 -24 43 12
0 31 7 42 15 19 15 19 15 -5 35 -44 38 -129 14 -146 -40 -6 -20 -7 -19 -48 4
-140 81 -412 105 -526 46 -44 -22 -88 -79 -129 -168 -25 -52 -27 -67 -26 -167
1 -73 10 -155 28 -244 14 -73 26 -151 26 -172 l0 -38 -72 30 c-279 115 -718
200 -1168 224 -190 10 -295 24 -398 51 -91 24 -113 26 -377 29 -154 1 -300 6
-325 10 -25 5 -67 23 -95 42 -29 19 -73 38 -108 44 -69 14 -71 17 -86 143 -16
135 -53 193 -96 149 -15 -15 -17 -30 -12 -108 7 -104 -2 -132 -28 -91 -21 31
-34 139 -34 286 -1 79 -5 114 -19 140 -16 34 -19 35 -66 32 -58 -3 -62 1 -132
95 -30 41 -82 94 -121 123 -74 57 -281 161 -464 234 -112 44 -138 51 -297 76
-83 14 -109 31 -131 87 -19 50 -165 242 -189 249 -34 11 -48 22 -81 65 l-33
44 6 82 c10 122 -1 151 -80 213 -79 62 -93 87 -75 137 16 44 10 104 -30 278
-35 152 -44 229 -35 279 6 30 11 36 32 36 19 0 34 14 70 71 29 44 48 87 51
112 8 63 19 71 60 46 32 -20 36 -20 51 -6 13 14 14 22 4 55 l-12 39 96 144
c98 148 160 219 191 219 10 0 86 59 168 130 102 89 175 143 228 171 105 55
192 128 392 328 100 101 175 169 183 166 7 -2 10 0 7 5 -3 6 -2 10 4 10 6 0 8
6 5 14 -3 7 18 34 48 62 104 95 138 168 138 292 0 63 -1 66 -39 103 -47 43
-121 74 -246 100 -123 26 -221 25 -330 -1 -130 -32 -275 -25 -495 25 -194 44
-363 55 -441 30z"/>
</g>
</svg>
