<?xml version="1.0" standalone="no"?>
<!DOCTYPE svg PUBLIC "-//W3C//DTD SVG 20010904//EN"
 "http://www.w3.org/TR/2001/REC-SVG-20010904/DTD/svg10.dtd">
<svg version="1.0" xmlns="http://www.w3.org/2000/svg"
 width="1536.000000pt" height="1245.000000pt" viewBox="0 0 1536.000000 1245.000000"
 preserveAspectRatio="xMidYMid meet">
<metadata>
Created by potrace 1.16, written by Peter Selinger 2001-2019
</metadata>
<g transform="translate(0.000000,1245.000000) scale(0.100000,-0.100000)"
fill="#000000" stroke="none">
<path d="M15265 12363 c-5 -55 -19 -119 -38 -173 -16 -47 -46 -153 -67 -237
-29 -117 -44 -161 -68 -194 -40 -54 -483 -475 -543 -517 -26 -17 -70 -40 -98
-51 -28 -11 -69 -34 -91 -50 l-40 -29 -363 -6 c-199 -3 -371 -7 -382 -8 -31
-2 -308 23 -331 30 -28 9 -256 251 -407 430 -99 118 -118 146 -113 166 5 19
-14 51 -96 162 -55 77 -117 158 -136 182 -43 52 -227 166 -256 158 -10 -3 -32
2 -47 9 -41 22 -47 0 -11 -38 16 -18 53 -77 82 -132 30 -55 76 -131 103 -169
27 -38 54 -84 59 -103 6 -22 3 -110 -7 -261 -17 -230 -15 -306 9 -397 23 -85
29 -321 10 -430 -18 -107 -16 -160 15 -295 11 -52 23 -135 27 -185 l6 -90 -41
-49 c-42 -49 -49 -70 -30 -81 6 -5 4 -11 -6 -19 -15 -11 -15 -13 -1 -25 19
-16 21 -74 4 -89 -22 -18 -197 -88 -388 -156 -242 -85 -893 -283 -1505 -457
-269 -76 -555 -159 -634 -184 -121 -39 -187 -52 -425 -86 -252 -36 -307 -41
-541 -46 -150 -3 -365 0 -510 7 -137 7 -659 16 -1160 20 -1050 9 -1016 6
-1695 121 -341 57 -375 61 -515 60 -82 0 -253 -9 -380 -20 l-230 -19 -445
-115 c-245 -64 -537 -139 -650 -167 -113 -28 -256 -71 -318 -95 -62 -25 -212
-69 -335 -100 -138 -34 -245 -66 -282 -85 -33 -17 -127 -83 -209 -147 -109
-85 -165 -137 -212 -197 -121 -151 -138 -220 -154 -596 -6 -135 -15 -320 -21
-412 -13 -179 -9 -229 23 -353 14 -57 23 -132 28 -260 4 -104 19 -261 36 -370
l28 -191 -58 -99 c-32 -54 -108 -173 -169 -264 -99 -150 -125 -181 -263 -316
-132 -130 -154 -155 -154 -181 0 -141 147 -237 363 -237 78 0 83 2 196 59 88
45 131 74 177 120 l61 61 7 -127 c9 -189 5 -204 -73 -302 -99 -125 -365 -387
-456 -450 -44 -30 -186 -124 -315 -208 -129 -84 -266 -176 -305 -204 -170
-126 -381 -260 -444 -282 -36 -13 -115 -32 -176 -44 -200 -38 -215 -47 -275
-166 l-33 -64 7 -122 c29 -531 71 -1025 101 -1187 8 -42 21 -127 30 -189 13
-88 26 -136 60 -215 35 -84 56 -161 113 -427 39 -179 73 -343 77 -365 4 -22
36 -132 72 -245 100 -315 146 -382 325 -476 l113 -59 180 0 c135 -1 196 -5
245 -18 90 -23 181 -21 261 6 57 19 70 21 105 10 65 -19 125 -15 217 16 178
61 240 110 261 213 8 40 25 81 44 107 41 56 66 133 60 185 -8 71 -71 190 -142
269 -69 77 -172 147 -215 147 -13 0 -72 -15 -130 -34 -129 -42 -189 -51 -233
-38 -18 6 -50 13 -71 17 -43 7 -64 27 -101 96 -24 42 -35 96 -76 367 -58 375
-100 680 -100 725 0 24 12 46 46 85 25 29 58 59 73 66 41 21 441 153 534 176
45 11 210 61 367 111 157 50 391 119 520 154 165 44 281 82 390 128 l155 64 5
-106 c6 -104 7 -109 65 -236 33 -71 91 -190 128 -264 71 -140 325 -556 383
-627 50 -62 300 -286 422 -379 249 -190 669 -476 787 -536 117 -59 125 -62
294 -90 154 -25 275 -37 551 -52 59 -4 118 4 274 34 109 21 215 44 235 50 43
15 139 104 180 168 40 62 81 188 81 248 0 30 -7 59 -19 78 -31 49 -208 247
-254 283 -83 66 -111 75 -232 75 -98 0 -129 -5 -289 -46 -98 -26 -188 -47
-201 -47 -51 0 -111 32 -175 94 -36 35 -157 137 -269 226 -168 136 -215 179
-273 254 -89 115 -113 157 -132 232 -21 81 -20 134 3 219 l20 70 304 300 c271
266 336 338 585 636 204 245 312 384 396 510 102 155 275 369 297 369 5 0 24
-30 43 -67 l33 -67 8 42 c7 41 8 42 25 27 16 -15 21 -13 63 36 l46 52 113 9
c136 11 245 6 263 -13 7 -8 20 -40 29 -72 23 -78 41 -76 89 13 l38 70 133 0
c97 0 153 -5 207 -19 180 -46 580 -74 914 -64 132 4 225 13 350 34 94 15 235
35 315 44 164 18 398 55 574 91 154 31 150 31 130 -7 -11 -22 -13 -34 -5 -42
6 -6 12 -9 14 -6 2 2 13 17 25 33 12 16 22 27 22 25 0 -2 -9 -35 -19 -72 -13
-44 -16 -65 -8 -60 7 4 51 36 99 70 109 80 196 117 254 108 23 -3 49 -11 57
-18 9 -7 115 -213 235 -459 166 -338 231 -481 265 -585 46 -138 67 -261 67
-386 0 -52 -3 -57 -63 -128 -65 -76 -135 -139 -197 -177 -37 -22 -126 -110
-154 -152 -9 -13 -16 -38 -17 -55 -1 -55 -23 -92 -86 -144 -90 -74 -111 -106
-135 -207 -23 -97 -34 -114 -90 -150 -73 -46 -78 -57 -78 -163 0 -56 -9 -145
-22 -214 -21 -113 -21 -120 -5 -195 23 -105 81 -217 132 -253 51 -37 185 -62
301 -57 79 3 84 5 152 51 39 26 99 76 135 111 74 73 90 107 138 304 17 70 37
138 44 152 21 40 454 453 459 438 3 -7 32 -168 66 -358 71 -399 89 -479 126
-552 52 -102 174 -284 258 -383 61 -72 104 -135 151 -225 36 -69 118 -210 183
-315 134 -216 143 -224 297 -272 l90 -28 275 3 c151 1 302 7 336 14 45 8 83 8
147 0 77 -10 96 -9 162 8 191 49 205 55 305 138 82 67 100 88 122 138 43 99
43 102 -12 212 -45 90 -60 109 -163 208 -62 60 -140 125 -172 144 l-59 35
-136 0 c-74 0 -160 4 -190 9 -63 9 -145 -6 -173 -31 -23 -22 -29 -15 -67 92
-55 150 -75 189 -163 312 -120 167 -135 199 -147 318 -22 222 -27 445 -19 945
14 920 51 1516 103 1654 40 106 51 121 110 152 58 30 66 43 41 64 -11 9 -13
16 -5 24 5 5 10 20 10 32 0 21 2 21 30 11 16 -6 33 -8 37 -3 4 4 6 35 5 69 -2
46 8 100 37 207 36 137 39 143 48 110 5 -19 16 -35 24 -35 11 0 16 22 21 96 6
83 14 114 61 235 115 293 522 1120 634 1288 95 141 157 270 178 371 10 44 60
190 112 325 143 370 152 394 194 549 21 78 53 186 69 240 l30 96 103 59 c56
33 123 77 148 98 26 21 49 38 51 38 3 0 13 -19 24 -41 l18 -42 12 28 11 27 23
-37 c14 -23 26 -61 29 -98 12 -117 49 -76 81 88 26 137 28 145 45 145 9 0 16
17 20 48 3 26 12 82 20 125 15 76 37 296 51 489 5 82 10 104 33 137 86 127
109 164 162 265 53 102 60 122 79 236 13 81 20 172 20 259 l0 133 -51 150 -52
149 18 82 c27 124 23 182 -26 342 -63 210 -68 166 50 439 53 122 104 307 141
511 15 83 19 131 14 196 -6 73 -3 95 15 147 11 34 21 83 21 110 0 58 -25 165
-39 170 -6 2 -13 19 -17 38 -3 19 -12 34 -19 34 -9 0 -15 -26 -20 -87z"/>
</g>
</svg>
