<?xml version="1.0" standalone="no"?>
<!DOCTYPE svg PUBLIC "-//W3C//DTD SVG 20010904//EN"
 "http://www.w3.org/TR/2001/REC-SVG-20010904/DTD/svg10.dtd">
<svg version="1.0" xmlns="http://www.w3.org/2000/svg"
 width="1536.000000pt" height="1509.000000pt" viewBox="0 0 1536.000000 1509.000000"
 preserveAspectRatio="xMidYMid meet">
<metadata>
Created by potrace 1.16, written by Peter Selinger 2001-2019
</metadata>
<g transform="translate(0.000000,1509.000000) scale(0.100000,-0.100000)"
fill="#000000" stroke="none">
<path d="M3310 15084 c-105 -10 -343 -47 -445 -70 -186 -41 -369 -101 -618
-200 -411 -164 -498 -177 -1017 -149 -447 23 -625 13 -845 -50 -146 -42 -376
-163 -375 -198 1 -20 84 -77 145 -98 98 -34 152 -41 420 -49 329 -10 441 -33
638 -131 138 -70 381 -240 449 -316 39 -43 192 -414 313 -758 29 -82 96 -262
148 -400 157 -410 189 -547 190 -790 0 -356 -70 -678 -308 -1405 -157 -481
-379 -1270 -460 -1635 -97 -441 -133 -814 -105 -1096 42 -411 208 -854 501
-1339 61 -102 164 -273 227 -380 275 -467 362 -557 819 -851 404 -260 511
-346 1038 -834 478 -442 628 -563 970 -779 375 -238 652 -433 746 -526 109
-108 131 -220 75 -383 -75 -221 -206 -415 -437 -646 -108 -108 -164 -157 -542
-479 -119 -102 -186 -168 -278 -279 -148 -175 -210 -226 -330 -266 -45 -15
-550 -110 -766 -144 -91 -15 -189 -17 -613 -18 l-505 0 -97 -27 c-232 -64
-344 -158 -425 -359 -25 -62 -106 -394 -101 -411 2 -5 22 12 44 39 23 26 73
83 111 125 264 290 400 319 1068 223 132 -19 292 -39 355 -44 505 -44 977 -7
1419 111 111 30 128 32 381 38 264 7 265 7 360 39 419 142 689 198 1125 232
499 38 736 -84 792 -408 8 -49 16 -89 18 -91 5 -6 26 99 37 190 31 247 -68
443 -272 541 -112 53 -179 68 -330 74 -153 6 -191 1 -890 -109 -94 -15 -184
-22 -295 -22 -143 -1 -165 1 -206 20 -25 12 -57 37 -70 55 -20 29 -24 45 -23
109 2 153 109 365 371 733 47 66 121 183 166 261 174 305 240 383 383 451 118
56 159 94 209 191 104 201 256 283 475 255 91 -12 166 -30 419 -101 194 -54
291 -66 428 -51 172 18 306 58 760 225 325 120 466 137 816 96 103 -11 303
-25 445 -30 268 -10 338 -19 453 -63 36 -14 243 -115 460 -224 298 -151 425
-209 519 -240 135 -45 314 -83 385 -83 l44 0 -45 106 c-24 58 -44 107 -44 109
0 2 21 -3 48 -11 130 -41 465 -120 802 -189 917 -186 1084 -251 1795 -701 266
-168 496 -286 665 -341 120 -40 278 -73 346 -73 l32 0 4 66 c4 60 7 69 37 96
18 16 29 33 25 38 -5 4 -67 49 -139 100 -161 115 -241 176 -671 506 -801 616
-968 727 -1809 1204 -595 338 -777 463 -1210 830 -687 583 -802 686 -1086 970
-276 275 -302 305 -704 800 -612 753 -827 1000 -1309 1505 -549 574 -928 1015
-1317 1535 -227 303 -313 446 -482 795 -62 127 -195 397 -297 600 -200 397
-252 520 -299 697 -60 226 -92 401 -236 1293 -181 1124 -342 1529 -776 1950
-162 158 -396 330 -589 433 -161 87 -372 156 -575 187 -96 16 -440 27 -535 19z"/>
</g>
</svg>
