<?xml version="1.0" standalone="no"?>
<!DOCTYPE svg PUBLIC "-//W3C//DTD SVG 20010904//EN"
 "http://www.w3.org/TR/2001/REC-SVG-20010904/DTD/svg10.dtd">
<svg version="1.0" xmlns="http://www.w3.org/2000/svg"
 width="3145.000000pt" height="5334.000000pt" viewBox="0 0 3145.000000 5334.000000"
 preserveAspectRatio="xMidYMid meet">
<metadata>
Created by potrace 1.16, written by Peter Selinger 2001-2019
</metadata>
<g transform="translate(0.000000,5334.000000) scale(0.100000,-0.100000)"
fill="#000000" stroke="none">
<path d="M29860 53330 c-243 -6 -330 -12 -425 -29 -319 -57 -553 -156 -876
-372 -194 -130 -261 -187 -285 -246 -9 -20 -20 -79 -25 -131 -12 -113 -45
-224 -88 -291 -38 -59 -117 -135 -164 -157 -33 -16 -34 -19 -26 -48 14 -47 11
-144 -6 -206 -31 -114 -46 -252 -55 -497 -9 -246 -9 -254 11 -288 31 -52 33
-129 10 -345 -110 -1010 -254 -1480 -643 -2100 -203 -324 -366 -612 -658
-1165 -545 -1032 -702 -1289 -1174 -1920 -1206 -1612 -2267 -2979 -3095 -3988
-157 -191 -300 -371 -318 -399 -18 -28 -53 -114 -79 -192 -84 -255 -150 -361
-254 -410 -66 -30 -181 -27 -283 7 -42 15 -79 27 -82 27 -16 0 -50 -101 -75
-220 -91 -437 -295 -794 -665 -1165 -148 -148 -267 -252 -580 -506 -287 -233
-333 -277 -380 -367 -21 -40 -47 -78 -58 -84 -29 -15 -108 -4 -125 18 -11 15
-13 47 -7 160 4 78 11 159 16 180 16 73 12 111 -17 133 -31 24 -83 27 -122 7
-60 -32 -100 -87 -132 -186 -99 -300 -264 -546 -695 -1039 -373 -428 -527
-655 -630 -933 -36 -96 -78 -168 -98 -168 -296 0 -424 -37 -536 -155 -90 -95
-137 -217 -196 -513 -46 -230 -69 -313 -107 -385 -42 -77 -79 -108 -121 -100
-104 19 -117 103 -51 327 14 50 26 110 26 135 2 101 -23 420 -37 473 -13 51
-50 138 -59 138 -1 0 -22 -18 -46 -40 -25 -23 -111 -75 -202 -121 -247 -126
-293 -180 -338 -388 -28 -134 -54 -206 -156 -426 -131 -287 -158 -362 -189
-530 -21 -109 -46 -162 -81 -171 -48 -12 -100 62 -143 205 -41 134 -73 153
-135 79 -129 -155 -147 -186 -220 -378 -44 -115 -68 -157 -101 -172 -22 -10
-37 -6 -113 30 -87 41 -138 57 -351 107 -194 45 -254 82 -336 205 -78 117
-114 128 -231 71 -105 -50 -173 -65 -309 -64 -200 1 -340 44 -665 206 -230
115 -284 156 -313 242 -28 80 -23 135 18 191 172 242 200 421 136 879 -11 77
-25 200 -31 273 -24 301 -88 540 -237 882 -41 94 -393 800 -408 818 -2 2 -34
-20 -71 -49 -84 -63 -137 -88 -187 -89 -93 0 -142 61 -226 282 -18 47 -45 101
-60 119 l-27 32 -164 -2 c-137 -1 -179 2 -243 18 -187 48 -308 164 -394 379
-20 48 -39 91 -43 96 -22 23 -71 -14 -229 -173 -182 -184 -287 -263 -461 -345
-323 -152 -711 -190 -1186 -115 -71 11 -169 27 -219 35 -175 27 -290 13 -394
-49 -76 -45 -117 -97 -191 -244 -62 -122 -69 -131 -135 -181 -82 -62 -621
-332 -663 -332 -87 0 -165 115 -287 425 -59 149 -80 184 -120 201 -49 20 -99
1 -128 -51 -8 -13 -14 -113 -18 -285 -6 -278 -15 -346 -53 -402 -27 -42 -70
-48 -109 -18 -35 28 -46 49 -102 205 -83 230 -133 341 -385 855 -333 678 -415
874 -493 1187 -55 216 -69 329 -76 613 l-6 256 -33 66 c-23 47 -48 80 -85 110
-357 296 -623 661 -869 1190 -71 154 -135 312 -406 998 -55 140 -165 401 -245
580 -356 800 -918 2167 -1023 2488 -96 293 -160 600 -244 1157 -28 187 -66
432 -86 545 -19 113 -39 264 -44 335 -13 173 -17 206 -50 370 -41 208 -53 309
-48 431 5 127 23 179 86 242 54 54 181 114 326 156 l118 33 64 79 c149 182
261 380 303 534 12 41 28 126 36 189 8 63 17 117 20 119 3 3 -26 13 -64 23
-178 45 -260 166 -292 429 -12 99 -13 102 -50 133 -31 27 -60 38 -181 66 -79
18 -260 67 -403 108 -495 141 -649 172 -900 180 -303 10 -494 -37 -801 -198
-193 -100 -277 -133 -392 -152 l-77 -13 -41 -61 c-79 -116 -142 -303 -170
-500 -32 -228 -4 -768 43 -828 10 -12 47 -58 82 -101 95 -116 164 -226 236
-376 107 -223 167 -436 199 -715 13 -113 20 -142 49 -200 55 -108 170 -403
232 -594 166 -510 260 -1031 296 -1634 15 -260 6 -873 -16 -1140 -23 -268 -24
-783 -1 -1023 53 -572 175 -1052 382 -1506 82 -180 162 -322 294 -526 218
-334 276 -494 287 -790 10 -293 -44 -635 -251 -1575 -41 -187 -91 -425 -111
-530 -43 -221 -76 -314 -145 -407 -58 -79 -128 -133 -274 -213 -124 -68 -168
-102 -190 -149 -47 -99 20 -248 124 -276 52 -14 98 -8 245 31 304 82 405 32
331 -165 -64 -170 -261 -509 -388 -667 -258 -323 -338 -585 -338 -1102 1 -361
18 -435 110 -485 44 -23 49 -24 180 -16 282 16 325 7 368 -76 43 -85 23 -174
-92 -424 -301 -650 -397 -956 -426 -1355 -7 -93 -17 -152 -40 -225 -51 -166
-37 -242 55 -290 128 -67 319 46 445 262 68 116 94 137 175 137 51 0 71 -7
134 -40 42 -23 87 -57 105 -79 28 -34 31 -44 31 -109 0 -79 12 -45 -190 -547
-57 -140 -120 -307 -141 -370 -34 -103 -38 -125 -37 -215 0 -107 18 -176 68
-261 33 -57 114 -128 163 -142 143 -43 212 24 254 244 75 404 216 703 488
1044 154 192 1098 1117 1176 1151 59 26 93 19 138 -32 31 -33 36 -46 36 -88 0
-75 -53 -138 -203 -240 -180 -122 -331 -280 -478 -500 -166 -250 -386 -714
-917 -1937 -110 -254 -231 -522 -268 -595 -103 -207 -128 -299 -105 -387 15
-54 73 -113 134 -137 96 -36 181 3 367 170 125 112 182 155 247 186 26 13 48
32 54 46 5 13 22 44 38 67 16 23 65 114 108 202 93 189 131 247 174 264 27 12
36 11 66 -5 19 -10 48 -35 65 -54 85 -96 78 -180 -32 -422 -36 -78 -74 -180
-90 -244 -16 -60 -51 -158 -78 -216 -89 -189 -114 -310 -74 -360 35 -42 59
-35 345 108 194 96 312 189 450 356 75 89 149 117 217 82 43 -22 64 -69 63
-140 -1 -77 -51 -217 -380 -1080 -124 -324 -183 -500 -183 -545 0 -53 28 -127
57 -150 36 -28 83 -25 129 8 41 30 212 266 326 452 120 195 184 325 272 557
46 120 101 158 180 122 35 -16 60 -80 61 -153 0 -76 -114 -749 -155 -909 -74
-293 -174 -499 -350 -721 -44 -56 -65 -120 -55 -165 8 -35 50 -91 69 -91 30 0
95 62 133 127 52 86 127 171 160 179 61 16 97 -70 137 -326 50 -314 60 -427
61 -655 0 -234 -6 -285 -55 -495 -90 -385 -98 -690 -35 -1432 47 -561 50 -928
10 -1178 -42 -256 -35 -294 99 -565 189 -380 233 -606 266 -1365 27 -603 71
-806 284 -1312 425 -1008 917 -1901 1489 -2702 283 -397 313 -424 447 -414
117 8 205 84 229 198 6 28 11 146 11 263 0 484 38 911 115 1297 14 69 29 163
34 210 8 76 12 87 40 112 54 48 65 40 84 -62 20 -101 26 -174 97 -1159 27
-382 50 -750 50 -818 0 -215 -38 -335 -163 -515 -378 -545 -606 -1172 -687
-1889 -33 -291 -57 -393 -127 -534 -116 -231 -286 -370 -562 -459 -226 -73
-230 -101 -51 -336 233 -305 273 -378 278 -508 4 -77 2 -88 -27 -147 -38 -78
-101 -135 -219 -201 -54 -30 -87 -56 -93 -71 -25 -66 5 -156 56 -169 45 -11
111 22 163 84 83 98 111 122 143 122 49 0 89 -26 89 -58 0 -40 -66 -171 -148
-292 -169 -253 -275 -507 -329 -795 -26 -137 -23 -464 5 -610 55 -291 59 -304
86 -317 18 -7 31 -7 52 3 36 18 52 75 63 226 10 134 24 163 76 163 66 0 68
-10 66 -353 -1 -167 3 -346 9 -401 33 -291 136 -498 316 -635 64 -48 120 -78
354 -189 141 -67 258 -190 343 -357 59 -119 81 -184 116 -345 85 -392 243
-692 582 -1112 102 -125 174 -198 376 -375 191 -169 235 -217 358 -388 120
-168 259 -334 476 -569 291 -317 406 -446 502 -567 l92 -116 65 -7 c249 -26
409 -140 520 -370 22 -45 73 -184 115 -310 41 -125 96 -269 122 -320 41 -80
61 -106 168 -211 130 -128 147 -152 190 -285 67 -205 147 -294 242 -268 22 6
53 32 95 81 181 208 269 248 355 165 41 -39 102 -163 134 -268 45 -151 74
-154 329 -31 102 50 228 105 280 122 83 29 108 33 200 34 90 0 111 -3 147 -23
154 -82 232 -227 419 -774 175 -514 271 -724 475 -1043 313 -487 398 -653 471
-914 35 -124 56 -169 111 -228 79 -85 170 -115 410 -132 261 -19 310 -41 405
-181 41 -61 85 -102 157 -145 80 -48 180 -78 382 -115 291 -53 337 -74 488
-219 154 -149 239 -180 350 -127 54 25 116 87 238 232 113 135 183 175 280
160 56 -9 45 -10 190 13 274 44 461 136 640 316 136 136 237 283 392 575 48
91 125 235 171 320 121 225 138 286 110 383 -50 171 -293 257 -730 257 -315 0
-509 -65 -740 -245 -262 -206 -482 -276 -856 -276 -197 0 -294 12 -360 46
-108 55 -153 116 -239 322 -64 154 -89 198 -157 274 -108 122 -416 569 -467
678 -48 101 -49 185 -3 328 19 62 61 212 91 333 112 443 195 628 351 784 127
127 286 206 503 251 189 39 288 161 280 343 -3 63 -10 90 -37 144 -73 150
-216 212 -547 238 -200 16 -345 38 -372 55 -32 21 -29 49 12 105 51 69 85 148
85 198 0 75 -45 136 -179 242 -24 19 -102 102 -175 185 -423 483 -964 943
-1631 1389 -100 67 -202 134 -227 149 -28 17 -53 41 -63 63 -15 32 -15 40 -3
73 l14 36 254 5 c279 5 294 8 308 63 14 54 2 77 -82 166 -45 47 -94 104 -108
127 -33 51 -95 93 -276 183 -194 97 -252 152 -252 239 0 67 44 138 157 250 56
56 103 106 103 111 0 16 -49 69 -85 91 -22 14 -76 27 -162 40 -279 41 -489
131 -732 313 -118 88 -383 350 -647 641 -109 121 -248 264 -309 318 -123 111
-185 192 -185 243 0 18 6 38 14 44 8 7 55 11 122 10 160 -2 205 19 389 175
118 101 207 146 286 146 34 0 85 -9 119 -21 59 -20 62 -20 116 -3 102 32 126
72 85 140 -33 54 -116 90 -251 108 -73 10 -345 36 -472 46 -65 5 -126 13 -135
19 -84 44 -81 171 5 218 57 32 118 37 213 18 149 -31 283 -7 405 70 70 45 141
109 268 244 176 188 280 268 391 301 22 6 45 13 51 15 8 2 4 30 -13 87 -31
108 -33 217 -5 280 40 91 121 126 370 158 86 12 179 27 206 35 62 19 132 60
146 86 38 69 142 77 346 24 208 -54 325 -46 354 26 13 31 10 96 -10 214 -23
133 6 224 87 272 40 23 61 28 140 31 120 6 236 -12 331 -50 84 -34 138 -34
186 -3 15 10 60 64 99 119 90 126 212 254 291 307 108 71 244 96 366 68 65
-14 195 -81 270 -139 234 -180 352 -223 740 -270 325 -39 441 -65 569 -129
145 -73 235 -167 314 -325 47 -96 37 -82 67 -89 22 -5 37 4 100 66 97 95 165
129 269 135 96 5 170 -13 316 -80 195 -89 273 -119 347 -133 40 -8 144 -28
230 -45 501 -97 856 -302 1062 -614 140 -211 209 -409 276 -786 65 -372 130
-654 320 -1385 190 -730 261 -1057 326 -1493 68 -460 118 -653 217 -846 126
-247 293 -404 607 -571 69 -37 226 -133 350 -215 372 -244 471 -288 767 -340
453 -79 708 -150 937 -260 404 -194 640 -482 780 -951 24 -79 31 -91 101 -166
45 -48 93 -90 120 -103 89 -43 203 -25 281 43 83 73 117 178 129 402 13 238
45 378 121 526 109 212 279 337 539 396 107 24 324 22 451 -5 639 -136 1315
-712 1511 -1287 47 -138 83 -413 83 -636 0 -266 -37 -538 -117 -864 -40 -161
-47 -205 -47 -290 -1 -253 125 -431 353 -499 107 -32 186 -16 261 51 65 58 98
112 178 294 173 387 207 512 257 924 67 551 120 734 277 962 l49 71 -26 51
c-36 73 -62 193 -85 397 -32 285 -48 353 -108 468 -45 85 -112 160 -216 239
-114 86 -236 206 -405 397 -80 91 -190 211 -243 268 -103 110 -144 176 -133
214 4 13 36 53 71 90 135 140 132 226 -11 289 -27 12 -421 147 -875 300 -454
152 -928 314 -1055 359 -126 45 -337 118 -468 161 -230 76 -348 123 -346 137
0 4 27 27 61 51 100 73 138 145 108 202 -14 26 -76 56 -187 91 -51 16 -93 33
-93 39 0 5 25 42 55 82 134 175 110 264 -105 389 -125 74 -140 86 -207 175
-35 47 -111 123 -194 195 -137 119 -206 198 -240 273 -35 80 -159 474 -165
527 -8 68 3 90 59 117 90 44 136 24 281 -118 120 -116 254 -217 313 -233 78
-21 163 36 163 109 0 61 -106 373 -170 501 -90 180 -162 274 -374 487 -213
215 -266 285 -266 352 0 24 7 57 15 72 22 43 108 117 251 215 156 108 175 125
275 248 122 150 183 187 307 188 39 0 72 4 72 8 0 5 -13 27 -29 49 -48 66
-112 97 -273 133 -137 31 -189 54 -252 115 -31 29 -86 70 -122 90 -36 20 -96
66 -134 103 -62 60 -70 71 -70 105 0 27 7 45 25 62 30 31 79 32 260 5 170 -26
211 -26 225 -1 17 32 12 85 -10 109 -28 30 -64 47 -182 88 -356 124 -497 305
-498 637 -1 179 -75 268 -323 385 -386 183 -607 447 -692 827 -25 110 -30 375
-11 537 24 205 2 320 -83 432 -41 55 -130 128 -210 173 -26 14 -138 81 -251
148 -113 68 -254 149 -315 181 -133 69 -175 99 -175 124 0 26 57 54 150 73
162 33 230 75 230 141 0 68 -53 117 -170 155 -82 26 -366 88 -488 106 -121 18
-156 30 -187 66 -20 25 -25 41 -25 87 0 32 5 73 11 92 7 19 15 103 18 185 10
224 26 240 236 237 141 -2 185 7 227 45 46 43 53 103 29 231 -12 64 -18 123
-15 143 17 91 134 247 262 353 78 63 102 94 102 129 0 29 -33 65 -77 84 -49
20 -120 -3 -209 -67 -378 -275 -611 -373 -1029 -432 -118 -17 -648 -17 -815 0
-312 32 -545 68 -1052 163 -636 119 -920 158 -1281 179 -335 19 -587 76 -966
220 -151 57 -799 329 -868 363 -72 37 -136 98 -174 169 -32 58 -34 69 -34 153
0 78 4 98 27 145 40 82 89 133 215 227 251 185 398 376 469 608 26 83 28 103
28 260 0 204 -7 236 -126 555 -191 512 -288 868 -334 1225 -22 176 -23 496 -1
683 69 585 -4 1130 -242 1796 -39 110 -80 243 -91 296 -28 137 -42 394 -38
697 3 247 4 263 24 290 48 65 101 31 193 -125 60 -104 81 -126 109 -118 30 10
48 57 176 450 202 622 255 877 256 1241 1 505 196 913 545 1144 97 64 144 87
329 162 151 61 277 163 318 257 19 42 19 50 7 121 -8 42 -13 119 -13 171 2
209 78 365 294 610 189 214 261 305 321 404 102 170 169 256 319 407 149 150
287 265 540 450 196 144 249 169 311 147 66 -23 74 -89 45 -373 -23 -223 -32
-550 -17 -597 23 -69 68 -58 138 34 75 99 182 206 228 228 81 39 144 23 212
-54 51 -58 87 -127 163 -311 130 -316 196 -383 324 -327 59 26 236 197 320
309 151 201 237 444 266 753 15 155 28 227 50 269 10 20 54 72 97 116 195 199
273 364 438 927 72 246 138 404 227 546 67 104 78 147 88 323 5 87 14 178 20
201 12 45 49 118 60 118 7 0 173 -509 239 -731 80 -268 84 -308 51 -471 -21
-103 -20 -144 6 -185 23 -36 68 -37 184 -4 137 40 175 40 230 0 24 -17 58 -37
76 -45 32 -13 34 -13 49 9 13 21 14 37 4 118 -12 89 -11 100 14 204 15 61 47
234 71 386 54 330 77 441 121 575 47 142 112 267 225 429 167 240 246 396 296
583 22 80 27 129 33 282 9 259 12 263 210 236 203 -29 331 -15 445 47 121 66
185 181 193 347 9 168 -29 318 -123 481 -50 89 -58 111 -90 261 -72 333 -96
498 -101 708 -7 281 20 428 116 618 57 113 114 185 237 297 355 325 470 477
567 750 20 55 79 224 132 375 552 1571 1020 2496 1656 3272 l96 118 -8 46
c-10 54 -4 90 18 98 8 3 62 -19 119 -49 174 -91 195 -78 214 136 27 320 123
606 310 921 45 75 57 107 91 248 47 190 73 254 127 308 57 57 121 76 233 70
l89 -5 4 31 c3 17 8 71 11 121 12 195 83 459 192 720 64 153 310 657 384 788
29 51 125 209 214 352 275 440 358 597 433 816 72 209 109 450 95 616 -7 87
-7 87 99 155 96 61 216 188 280 294 26 44 90 171 143 283 52 112 126 261 164
330 112 202 167 344 292 744 140 454 227 666 349 852 102 155 250 312 371 392
22 14 42 36 45 49 4 14 -7 55 -26 106 -34 87 -49 194 -36 262 4 19 23 59 43
88 l36 53 -7 160 c-3 88 -9 232 -12 320 -5 134 -12 188 -44 335 -21 96 -42
198 -46 225 -3 28 -22 78 -41 113 l-35 62 -67 0 c-50 0 -78 6 -111 23 -39 20
-49 33 -94 123 -80 159 -159 247 -277 309 -152 80 -266 90 -849 75z"/>
</g>
</svg>
