<?xml version="1.0" standalone="no"?>
<!DOCTYPE svg PUBLIC "-//W3C//DTD SVG 20010904//EN"
 "http://www.w3.org/TR/2001/REC-SVG-20010904/DTD/svg10.dtd">
<svg version="1.0" xmlns="http://www.w3.org/2000/svg"
 width="962.000000pt" height="1536.000000pt" viewBox="0 0 962.000000 1536.000000"
 preserveAspectRatio="xMidYMid meet">
<metadata>
Created by potrace 1.16, written by Peter Selinger 2001-2019
</metadata>
<g transform="translate(0.000000,1536.000000) scale(0.100000,-0.100000)"
fill="#000000" stroke="none">
<path d="M8105 15346 c-38 -8 -135 -24 -215 -36 -585 -89 -1100 -338 -1394
-675 -109 -125 -178 -239 -317 -525 -71 -146 -154 -314 -185 -375 -119 -232
-249 -397 -481 -607 -270 -245 -379 -331 -613 -486 -338 -224 -409 -279 -560
-431 -323 -326 -611 -769 -1037 -1596 -337 -653 -453 -875 -593 -1129 -422
-771 -585 -1137 -680 -1530 -28 -115 -30 -135 -34 -386 -6 -376 -15 -411 -205
-770 -60 -113 -180 -342 -267 -510 -87 -168 -213 -398 -280 -512 -278 -468
-330 -625 -257 -780 54 -115 137 -154 258 -123 33 9 85 30 115 48 78 46 227
198 365 372 65 83 134 167 153 189 l34 38 -7 -33 c-16 -74 -160 -579 -240
-839 -231 -756 -433 -1330 -1037 -2945 -465 -1244 -627 -1689 -609 -1670 38
40 366 673 549 1060 28 61 52 107 52 103 0 -4 -97 -271 -215 -593 -119 -323
-214 -590 -211 -592 10 -10 146 140 200 220 97 146 197 378 428 992 168 448
236 599 331 741 69 104 176 208 194 190 13 -13 -17 -196 -48 -293 -19 -60 -89
-211 -180 -392 -213 -422 -252 -535 -247 -714 l3 -92 49 100 c147 304 306 684
531 1273 87 226 160 411 162 409 6 -7 -90 -377 -172 -656 -47 -162 -84 -296
-81 -298 14 -14 84 37 123 91 89 120 159 281 291 666 44 129 130 366 190 525
213 565 368 1052 563 1765 85 313 308 1193 366 1445 10 44 19 73 21 65 3 -17
-99 -734 -159 -1108 -115 -727 -266 -1446 -409 -1951 -22 -79 -39 -145 -37
-147 2 -2 47 89 101 202 359 755 603 1412 765 2059 78 316 96 418 156 915 31
254 57 408 91 543 53 212 98 292 265 472 56 61 154 178 219 261 159 203 240
275 345 306 16 5 100 18 185 29 299 38 480 118 1100 483 283 166 292 170 371
171 55 0 76 -5 140 -37 94 -47 185 -131 376 -345 l147 -166 -30 -23 c-47 -38
-116 -56 -212 -56 -129 1 -212 20 -437 103 -27 10 -64 18 -81 19 -35 0 -142
-50 -168 -79 -16 -18 -12 -17 41 5 32 13 77 24 100 24 36 0 46 -5 80 -42 114
-127 155 -156 260 -183 76 -20 260 -19 449 1 168 18 278 15 624 -16 123 -12
297 -20 407 -20 l192 0 11 39 c12 44 30 51 132 51 61 0 97 -13 157 -57 31 -24
32 -24 22 -4 -19 34 -106 98 -166 120 -87 33 -222 44 -382 32 -304 -23 -471
-10 -576 46 -66 36 -185 152 -271 268 l-68 90 131 10 c127 10 132 11 154 38
l22 28 45 -19 c53 -22 288 -37 575 -36 l180 0 113 42 c132 49 197 54 251 21
58 -35 45 -13 -18 29 -107 71 -227 92 -631 111 -231 11 -320 29 -435 85 -128
63 -210 171 -236 311 -16 84 -5 263 20 353 46 158 148 317 308 478 49 49 191
176 314 281 671 570 1023 1006 1168 1449 98 299 121 578 85 1009 -21 250 -24
587 -5 670 27 120 51 145 182 185 103 32 139 54 237 145 47 43 217 234 290
325 2 3 17 -10 32 -29 36 -42 67 -140 84 -264 7 -53 15 -100 18 -103 9 -8 47
144 64 257 27 174 8 386 -46 532 -27 73 -106 192 -156 237 -21 19 -88 67 -147
105 -182 117 -239 164 -267 220 -24 48 -25 58 -25 230 0 166 -2 184 -23 229
-97 211 -362 360 -657 371 -69 3 -136 -1 -180 -9z"/>
</g>
</svg>
