<?xml version="1.0" standalone="no"?>
<!DOCTYPE svg PUBLIC "-//W3C//DTD SVG 20010904//EN"
 "http://www.w3.org/TR/2001/REC-SVG-20010904/DTD/svg10.dtd">
<svg version="1.0" xmlns="http://www.w3.org/2000/svg"
 width="913.000000pt" height="1536.000000pt" viewBox="0 0 913.000000 1536.000000"
 preserveAspectRatio="xMidYMid meet">
<metadata>
Created by potrace 1.16, written by Peter Selinger 2001-2019
</metadata>
<g transform="translate(0.000000,1536.000000) scale(0.100000,-0.100000)"
fill="#000000" stroke="none">
<path d="M4317 15328 c-9 -18 -21 -55 -26 -83 -12 -63 -38 -125 -60 -142 -30
-24 -83 -43 -121 -43 -47 0 -75 -22 -128 -101 -49 -72 -59 -114 -42 -172 22
-70 18 -126 -9 -148 -25 -21 -86 -26 -97 -8 -4 7 -11 2 -18 -12 -8 -17 -23
-26 -50 -30 -42 -7 -63 -27 -96 -95 -36 -72 -29 -95 45 -154 82 -65 86 -90 17
-90 -59 0 -145 -24 -163 -46 -10 -13 -10 -19 0 -36 10 -16 10 -26 1 -49 -10
-23 -10 -32 0 -44 17 -20 21 -20 101 16 75 32 111 31 133 -4 12 -20 -2 -33
-44 -43 -14 -3 -53 -18 -87 -34 -55 -26 -63 -33 -63 -57 0 -20 11 -37 37 -59
51 -43 43 -71 -37 -113 -33 -18 -65 -41 -71 -52 -5 -11 -13 -50 -16 -87 -6
-78 0 -87 76 -113 33 -11 47 -22 49 -37 5 -32 -37 -38 -114 -17 -35 9 -71 15
-79 11 -20 -7 -20 -96 0 -162 8 -27 15 -63 15 -79 0 -21 9 -39 30 -57 35 -31
38 -48 9 -74 -17 -16 -42 -20 -145 -24 -73 -4 -129 -11 -135 -17 -7 -7 -15
-40 -18 -75 -6 -60 -7 -63 -38 -71 -41 -12 -46 -27 -33 -101 16 -88 44 -141
83 -156 18 -7 46 -27 63 -44 16 -17 39 -36 49 -42 18 -10 18 -13 -13 -60 -30
-48 -37 -69 -34 -106 3 -25 95 -24 169 2 45 16 83 20 176 20 l118 0 15 -35
c19 -47 18 -84 -3 -92 -10 -3 -27 -14 -38 -24 -11 -10 -59 -33 -106 -52 -47
-19 -105 -49 -128 -65 -23 -17 -65 -38 -91 -47 -42 -14 -55 -15 -85 -4 -31 11
-40 11 -63 -2 -15 -8 -27 -20 -27 -27 0 -30 -75 -43 -129 -22 -24 9 -29 6 -56
-31 -16 -22 -36 -64 -45 -92 -13 -39 -32 -66 -75 -109 -54 -52 -59 -60 -66
-115 -5 -32 -8 -116 -9 -188 0 -122 2 -133 27 -180 14 -27 37 -60 50 -72 47
-44 151 -78 325 -105 70 -11 74 -11 105 12 19 14 51 25 79 28 46 4 48 3 54
-24 15 -69 43 -118 79 -138 35 -20 37 -20 67 -3 17 9 46 17 64 17 34 0 38 -3
87 -74 l18 -24 37 18 c42 20 164 50 204 50 28 0 59 -27 59 -52 0 -57 -169
-116 -253 -89 -30 10 -40 10 -60 -4 -18 -12 -77 -19 -225 -30 -217 -15 -242
-22 -324 -82 l-51 -37 -21 30 c-32 45 -67 74 -88 74 -26 0 -67 -22 -117 -64
-56 -47 -83 -46 -162 5 -35 23 -83 50 -107 60 -35 15 -47 28 -67 71 -33 70
-33 121 -1 141 31 21 71 123 90 233 24 135 24 134 -44 198 -35 32 -77 60 -100
67 -36 11 -43 10 -78 -14 -22 -14 -57 -47 -78 -72 -74 -90 -89 -102 -157 -124
-37 -13 -67 -26 -67 -30 0 -4 -13 -14 -29 -24 -69 -40 -94 -211 -46 -312 25
-52 42 -65 91 -65 20 0 34 -17 34 -41 0 -22 -42 -49 -75 -49 -21 0 -43 -8 -53
-18 -26 -26 -56 -147 -42 -172 11 -20 116 -110 129 -110 4 0 16 7 27 15 10 8
31 15 47 15 48 0 57 -72 13 -109 -15 -13 -56 -11 -102 4 -29 9 -38 -18 -19
-55 15 -30 106 -94 157 -112 21 -8 41 -6 78 8 49 18 50 18 77 -3 37 -27 39
-52 8 -113 -23 -45 -25 -59 -19 -106 7 -57 8 -56 -48 -68 -23 -5 -26 -10 -23
-39 3 -17 7 -54 10 -81 9 -64 39 -96 94 -96 36 0 41 -3 46 -27 3 -16 12 -48
20 -73 8 -25 17 -62 20 -82 15 -108 14 -106 62 -138 l46 -31 31 29 c17 16 47
38 67 50 37 22 76 84 99 156 13 40 81 121 132 158 l28 20 35 -22 35 -22 72 22
c39 12 93 33 119 46 37 20 59 24 106 22 54 -3 58 -5 58 -28 0 -21 -9 -28 -70
-51 -82 -31 -177 -63 -256 -84 -77 -20 -120 -52 -147 -108 -24 -49 -73 -105
-157 -175 -46 -38 -49 -43 -39 -69 11 -32 38 -41 62 -20 9 8 41 25 70 37 43
19 61 21 90 14 55 -14 52 -36 -10 -74 -29 -18 -73 -48 -97 -66 -42 -33 -101
-46 -101 -24 0 6 -11 10 -24 10 -33 0 -56 -35 -56 -85 0 -56 29 -82 105 -96
105 -19 151 3 157 76 3 36 6 40 32 43 37 5 86 -16 86 -37 0 -9 -14 -24 -30
-33 -21 -12 -30 -25 -30 -43 0 -15 -8 -40 -17 -56 -25 -42 -13 -56 98 -112
128 -66 193 -73 260 -28 60 40 129 115 129 140 0 10 -9 38 -20 63 -16 36 -18
51 -9 81 8 30 19 41 70 68 33 18 75 50 93 70 21 25 52 46 89 60 32 12 68 31
80 43 25 23 87 162 87 193 0 12 23 35 61 61 55 38 61 40 55 20 -3 -13 -13
-135 -21 -273 -17 -276 -27 -351 -55 -406 -24 -46 -90 -105 -203 -180 -164
-107 -316 -153 -439 -132 -36 6 -117 35 -188 67 -115 53 -161 79 -350 202 -65
42 -190 163 -190 183 0 6 14 26 31 46 34 39 33 55 -6 81 -22 15 -28 15 -55 2
-36 -18 -120 -8 -185 21 -53 24 -129 93 -145 131 -7 16 -17 30 -23 30 -6 0
-20 8 -31 19 -58 53 -298 121 -371 105 -71 -15 -104 -35 -115 -69 -17 -52 -31
-59 -89 -44 -43 11 -55 10 -97 -6 -86 -33 -224 -180 -224 -239 0 -17 -7 -58
-15 -89 -8 -32 -20 -99 -25 -149 -6 -51 -12 -93 -13 -94 -1 -2 -38 -10 -82
-19 -137 -28 -165 -60 -136 -157 14 -46 47 -73 117 -93 55 -16 55 -16 85 10
18 14 43 25 60 25 25 0 29 -4 29 -28 0 -58 39 -84 145 -97 60 -7 80 5 92 55 9
34 11 35 62 40 49 5 55 8 70 40 13 27 25 36 58 45 23 5 48 16 55 23 17 17 63
15 78 -3 21 -25 47 -17 82 27 18 22 56 66 84 96 l51 55 65 -12 c92 -16 115
-14 149 12 27 19 43 22 119 21 78 0 95 -4 147 -31 212 -110 217 -116 126 -162
-32 -16 -99 -58 -148 -94 -148 -106 -201 -126 -256 -96 -16 8 -29 7 -56 -6
-48 -23 -98 -14 -139 26 -28 27 -38 31 -69 26 -62 -10 -123 -53 -146 -103 -29
-61 -71 -94 -118 -94 -41 0 -81 -25 -182 -111 -66 -57 -83 -64 -183 -78 -113
-16 -116 -19 -116 -99 1 -102 34 -188 88 -229 81 -61 171 -55 210 16 34 60 75
65 135 15 35 -29 61 -30 112 -4 22 11 55 20 75 20 28 0 38 -6 52 -30 15 -26
23 -30 60 -30 l43 -1 -27 -20 c-25 -18 -28 -27 -28 -75 l0 -54 -64 0 c-75 0
-99 -15 -118 -75 -11 -34 -18 -40 -43 -43 -97 -8 -125 -32 -125 -110 0 -86 53
-122 181 -122 65 0 67 -1 110 -43 35 -34 56 -46 101 -56 72 -16 81 -26 63 -76
-8 -22 -14 -49 -15 -61 0 -11 -8 -28 -18 -37 -21 -19 -132 -66 -267 -113 -96
-34 -104 -35 -200 -29 -55 3 -131 2 -170 -3 -87 -11 -191 0 -236 27 -38 22
-136 43 -166 35 -11 -3 -30 -18 -41 -34 -20 -26 -26 -28 -115 -32 -113 -5
-141 -19 -152 -75 -10 -56 -40 -83 -89 -83 -23 0 -47 4 -54 9 -7 4 -29 50 -48
102 -29 77 -53 125 -91 178 -2 3 -36 8 -75 13 -63 6 -76 5 -104 -13 -39 -24
-54 -63 -54 -140 l0 -58 -87 -3 -88 -3 -14 -40 c-24 -69 -9 -110 65 -181 58
-56 64 -65 64 -102 0 -48 -8 -72 -24 -72 -33 -1 -38 -16 -21 -72 8 -30 21 -88
28 -129 12 -73 13 -74 44 -79 41 -6 71 -32 79 -67 3 -15 7 -33 9 -40 2 -6 54
-37 115 -69 131 -68 148 -87 131 -144 -17 -57 -42 -70 -131 -70 -58 0 -87 -6
-127 -24 -64 -30 -85 -60 -81 -118 3 -41 5 -43 43 -52 22 -4 56 -15 76 -23 28
-11 42 -12 57 -4 28 15 38 14 56 -5 20 -20 21 -102 1 -128 -32 -42 -20 -69 57
-131 40 -31 84 -61 98 -67 13 -5 73 -10 132 -11 l108 -2 39 45 c38 44 38 44
114 48 71 4 82 2 139 -28 l62 -32 50 16 c28 9 78 31 110 49 54 29 65 41 113
121 65 108 117 177 153 205 l28 20 -12 -52 c-14 -57 -25 -81 -67 -144 -21 -30
-29 -54 -29 -86 0 -65 7 -77 64 -103 40 -19 68 -24 131 -24 98 0 138 18 178
78 26 39 32 43 65 40 28 -2 39 -10 52 -33 9 -16 24 -31 33 -33 26 -5 121 25
150 49 25 19 27 25 27 105 0 71 3 87 21 105 30 30 70 22 88 -18 18 -40 33 -41
114 -10 50 18 67 32 109 85 36 45 56 62 74 62 22 0 24 -4 24 -56 0 -54 12 -92
34 -106 20 -14 101 -8 135 10 26 13 38 28 49 60 16 50 47 71 80 53 18 -10 27
-5 67 38 69 73 95 112 101 153 9 52 40 77 119 93 110 23 202 87 284 199 38 50
77 99 89 109 50 45 152 58 281 36 83 -14 108 -30 120 -76 12 -45 31 -226 31
-293 l0 -48 -72 -7 c-113 -12 -118 -15 -118 -80 0 -51 2 -56 26 -65 14 -6 56
-9 93 -8 l66 3 3 -115 c2 -63 0 -144 -3 -178 -6 -57 -11 -68 -45 -101 -52 -50
-127 -89 -203 -105 -35 -8 -72 -18 -83 -23 -10 -6 -75 -29 -144 -53 -69 -23
-154 -60 -190 -82 -148 -91 -239 -140 -315 -169 -44 -16 -159 -68 -255 -114
-136 -66 -190 -87 -242 -94 -36 -5 -88 -19 -115 -31 -40 -19 -70 -23 -178 -25
-150 -4 -242 -18 -299 -47 -53 -27 -152 -122 -232 -223 -35 -44 -73 -86 -84
-93 -20 -12 -52 -5 -157 39 -29 12 -37 11 -62 -4 -16 -9 -45 -17 -65 -17 -31
0 -38 5 -47 28 -6 15 -8 51 -5 83 6 47 3 60 -15 83 -40 50 -94 70 -194 70 -87
0 -93 -1 -185 -47 -123 -60 -173 -119 -196 -229 -26 -121 -2 -200 64 -218 53
-14 102 -71 102 -118 0 -11 -11 -36 -25 -56 -14 -21 -25 -51 -25 -69 0 -20
-11 -48 -29 -73 -56 -78 -67 -171 -30 -270 26 -68 138 -192 204 -224 l43 -21
66 22 c65 21 156 87 156 112 0 20 82 137 96 137 18 0 18 -1 -11 -70 -14 -33
-25 -67 -25 -77 0 -10 -12 -49 -25 -88 -14 -38 -25 -82 -25 -97 0 -31 17 -42
117 -77 62 -22 62 -22 100 -2 57 29 120 87 149 137 14 24 29 44 34 44 12 0 26
-22 39 -61 16 -49 53 -82 94 -83 17 0 67 4 109 8 62 7 85 5 118 -8 50 -20 112
-20 165 -1 22 8 62 14 88 15 43 0 53 -4 89 -40 52 -51 65 -54 138 -36 124 32
251 118 295 201 27 49 45 53 75 13 14 -18 47 -57 74 -86 44 -46 53 -52 90 -52
77 1 175 28 253 72 42 24 79 50 83 58 53 116 104 178 135 166 9 -3 27 -30 40
-59 42 -97 122 -135 224 -107 25 6 62 13 81 14 l35 1 3 -70 3 -70 -48 -42
c-46 -40 -47 -43 -47 -95 1 -74 15 -96 65 -104 22 -4 44 -14 49 -23 17 -33 31
-211 37 -481 l6 -275 -61 -29 c-65 -31 -72 -44 -72 -126 0 -52 8 -68 41 -86
77 -39 85 -118 70 -729 -12 -488 -12 -491 -46 -685 -39 -226 -52 -268 -100
-326 -40 -49 -44 -73 -14 -100 20 -18 42 -19 358 -21 197 -1 373 -7 426 -14
56 -7 106 -9 130 -4 22 5 54 8 72 6 17 -1 43 4 57 11 l26 13 -37 60 c-124 206
-185 322 -198 378 -8 34 -30 238 -50 452 -19 215 -40 422 -45 460 -9 70 5
1124 16 1194 3 21 12 35 24 38 24 6 32 39 24 97 -6 38 -12 50 -34 61 -15 8
-31 25 -35 37 -4 13 -10 191 -12 397 l-5 374 24 19 c53 43 73 51 185 79 104
25 122 33 150 63 17 19 36 51 42 73 14 48 14 150 1 158 -5 3 -10 29 -10 58 0
44 4 54 28 73 26 22 27 24 27 131 0 136 -17 190 -86 268 -28 32 -64 82 -80
111 -41 72 -134 151 -212 179 l-62 23 0 94 c0 114 10 133 64 123 78 -14 291
-80 371 -116 47 -20 105 -42 130 -49 25 -6 68 -19 95 -30 28 -10 86 -32 130
-48 44 -17 109 -38 145 -47 119 -31 250 -114 250 -160 0 -8 -26 -28 -59 -45
-141 -75 -190 -182 -134 -292 29 -59 83 -69 286 -53 144 11 152 0 135 -196
-12 -143 -8 -164 40 -195 23 -15 27 -15 54 0 27 16 30 16 66 -4 l38 -21 57 25
c84 37 106 63 100 117 -6 51 6 67 56 74 17 2 45 15 62 29 46 39 78 38 152 -6
29 -17 68 -43 87 -58 46 -36 143 -90 161 -90 8 0 22 14 31 30 21 36 65 41 93
10 10 -11 26 -20 36 -20 34 0 89 33 95 57 14 56 88 70 132 26 25 -26 33 -28
104 -28 71 0 79 2 107 29 35 33 41 82 16 126 -8 14 -14 37 -15 51 0 30 34 79
56 79 8 0 29 8 47 17 18 9 61 20 95 24 55 6 69 11 101 43 79 78 102 169 56
225 -35 41 -239 147 -420 217 -188 73 -241 78 -322 26 -78 -50 -105 -55 -176
-31 -33 11 -94 37 -136 58 -99 50 -196 80 -285 87 -39 3 -150 21 -246 39 -222
43 -350 54 -575 50 -172 -3 -185 -2 -292 26 -62 16 -179 56 -260 90 -81 33
-191 75 -243 94 -134 47 -249 110 -261 143 -24 63 27 140 107 161 39 11 64 39
64 75 0 7 14 30 30 51 35 44 37 64 12 95 l-19 23 -84 -21 c-47 -12 -99 -22
-117 -22 l-32 0 2 218 3 217 55 -4 c130 -8 293 -70 368 -138 l41 -38 10 -106
c12 -124 21 -152 55 -174 30 -20 114 -22 148 -4 34 17 68 50 84 82 16 30 30
32 104 15 45 -10 51 -14 45 -32 -49 -168 -75 -296 -75 -363 0 -76 0 -76 40
-114 70 -67 146 -65 209 7 41 47 71 55 105 29 22 -17 143 -19 284 -6 94 9 118
24 128 79 l7 35 17 -34 c28 -54 27 -53 239 -165 35 -19 73 -34 85 -34 12 0 55
-9 95 -19 42 -11 88 -17 107 -14 l34 6 -6 101 c-7 113 9 198 45 230 26 24 37
15 44 -35 7 -56 33 -89 93 -119 45 -23 59 -25 161 -23 133 3 212 -19 353 -94
l85 -45 105 5 c81 4 121 11 175 31 135 51 185 102 185 188 l0 46 50 -16 c43
-13 63 -14 138 -4 48 6 130 14 182 18 67 4 104 12 126 25 83 50 75 206 -12
260 -40 24 -68 21 -123 -17 -19 -13 -49 -24 -66 -24 -38 0 -114 35 -117 52 0
7 -1 20 -2 28 -1 8 -15 21 -31 28 -54 24 -60 29 -63 54 -2 16 9 40 30 68 27
36 44 47 93 62 113 33 120 42 116 151 l-2 67 49 0 c50 0 50 0 64 -42 12 -41
15 -43 53 -42 112 2 264 23 301 42 55 28 78 56 66 79 -10 19 -17 78 -14 126 2
23 10 32 45 47 23 11 52 20 64 20 15 0 28 11 39 33 9 17 28 45 41 61 13 16 35
50 49 75 14 25 33 60 44 76 14 23 22 63 30 165 12 154 15 167 65 310 44 126
43 171 -9 270 -28 55 -39 67 -72 78 -77 27 -192 -5 -230 -64 -17 -25 -107 -74
-136 -74 -11 0 -31 9 -46 19 -48 34 -69 35 -86 4 -23 -42 -33 -65 -43 -98 -11
-38 -43 -41 -54 -5 -4 14 -13 58 -19 98 -14 87 -22 92 -137 92 -86 0 -122 -14
-181 -68 -45 -42 -59 -90 -69 -234 -6 -92 2 -118 37 -118 18 0 40 -38 40 -69
0 -41 -22 -79 -58 -99 -57 -32 -69 -50 -91 -142 -34 -137 -70 -167 -134 -111
-27 24 -35 40 -39 76 -7 62 -21 75 -78 75 -62 0 -93 24 -93 70 0 25 6 38 24
49 75 49 89 98 42 143 -36 33 -98 64 -159 79 -66 16 -91 30 -146 82 -39 37
-57 46 -98 52 -68 9 -89 29 -99 93 -5 30 -17 66 -28 80 -27 37 -133 96 -221
123 l-73 23 -38 73 c-21 40 -35 73 -32 73 4 0 18 -8 31 -17 20 -15 46 -18 131
-18 103 0 108 1 181 38 125 63 157 109 137 196 -8 38 -52 83 -107 113 -19 10
-44 39 -64 75 -17 32 -59 83 -91 113 -32 30 -87 82 -120 116 -34 33 -68 63
-75 65 -15 5 -32 62 -39 130 -5 51 10 73 49 67 16 -2 26 -13 32 -35 l10 -31
85 5 c111 7 157 -6 223 -63 86 -74 221 -134 303 -134 50 0 172 38 253 79 32
16 78 34 102 41 54 14 90 36 90 53 0 8 -29 60 -65 118 -69 110 -80 153 -45
164 26 8 37 1 59 -43 24 -46 87 -107 125 -122 23 -8 34 -7 52 5 40 26 48 53
28 90 -25 47 -14 63 47 71 30 4 62 16 77 29 21 18 24 27 18 58 -4 20 -17 49
-30 64 -21 24 -27 26 -47 16 -44 -21 -61 -23 -99 -13 -40 11 -54 36 -44 77 7
26 17 29 99 38 33 4 70 13 82 21 30 19 30 61 1 104 -28 40 -126 79 -202 80
-40 0 -56 6 -90 33 -81 67 -111 70 -205 21 -34 -18 -73 -28 -129 -33 -70 -6
-83 -10 -116 -39 -56 -49 -116 -41 -116 16 0 13 14 43 30 67 60 87 49 132 -44
181 -50 26 -56 27 -93 15 -38 -12 -43 -11 -95 18 -30 17 -63 31 -74 31 -27 0
-80 -34 -99 -64 -16 -24 -16 -28 4 -69 35 -72 24 -109 -36 -122 -27 -5 -37 -2
-59 20 l-26 26 -32 -21 c-45 -27 -60 -25 -103 14 -68 61 -139 96 -193 96 -27
0 -52 -4 -55 -10 -13 -22 -39 -7 -98 54 -71 74 -107 89 -140 58 -39 -37 -70
-37 -110 -3 -48 42 -78 40 -161 -14 -38 -25 -73 -45 -78 -45 -5 0 -13 -11 -18
-25 -9 -23 -15 -25 -70 -25 -147 0 -290 45 -570 180 -124 59 -274 131 -333
160 -97 46 -119 62 -217 157 -119 115 -164 184 -158 244 4 47 26 48 96 5 69
-43 99 -46 108 -11 9 37 -2 70 -28 82 -13 6 -65 50 -115 98 l-93 87 0 51 c0
84 12 157 25 157 6 0 22 -12 36 -26 13 -14 78 -57 144 -96 66 -39 136 -80 155
-92 57 -34 110 -87 110 -110 1 -31 35 -102 64 -131 21 -21 32 -24 63 -20 42 6
51 2 76 -37 14 -22 25 -28 53 -28 33 0 48 -11 150 -111 101 -99 117 -111 142
-106 19 4 38 -2 63 -19 29 -20 54 -26 123 -31 72 -5 86 -4 86 9 0 19 32 48 53
48 9 0 24 -11 33 -25 20 -31 31 -31 88 -3 42 20 46 20 70 5 49 -33 134 -16
155 29 8 18 19 24 41 24 25 0 33 -5 41 -30 6 -16 19 -32 29 -35 70 -22 253
102 235 159 -22 71 -11 98 46 110 28 5 39 29 19 41 -5 3 -10 26 -10 51 0 49
-10 73 -46 117 -13 16 -24 40 -24 54 0 42 -65 111 -134 144 -65 31 -118 36
-194 19 -33 -8 -49 -7 -72 5 -51 26 -95 20 -143 -22 -23 -21 -56 -48 -74 -60
-32 -23 -32 -23 -38 -2 -4 11 -39 46 -78 79 l-71 58 -37 -21 c-35 -20 -41 -21
-71 -8 -18 8 -60 15 -93 15 -36 1 -73 8 -92 19 -18 9 -39 17 -47 17 -9 0 -23
14 -31 30 -9 17 -30 39 -46 49 -31 19 -31 19 -8 26 13 3 60 23 104 43 113 52
169 51 290 -5 134 -62 163 -68 249 -48 112 25 139 42 149 93 8 40 10 42 43 42
19 0 48 -7 63 -15 23 -11 35 -12 60 -2 22 8 39 8 59 1 15 -6 40 -7 56 -3 15 4
40 3 54 -2 15 -6 56 -17 91 -24 62 -13 65 -13 112 13 27 14 49 29 49 33 0 3
-7 26 -15 49 -30 84 -16 120 44 120 56 0 81 10 81 32 0 29 -18 59 -58 96 -31
29 -34 36 -29 70 8 46 -17 81 -83 115 -41 22 -46 29 -70 98 -14 41 -34 90 -46
109 -19 32 -24 35 -65 34 -49 -1 -158 -47 -272 -116 -37 -22 -70 -38 -74 -35
-23 23 48 124 119 170 55 35 96 85 122 149 15 35 15 38 -8 65 -35 43 -44 66
-36 89 8 21 74 54 109 54 10 0 26 9 36 20 10 11 28 20 39 20 28 0 117 42 135
64 8 9 16 49 19 91 l5 75 46 0 c28 0 59 8 79 20 31 19 33 23 27 64 -5 33 -3
47 10 59 9 10 21 17 26 17 23 0 109 246 109 314 0 62 -54 99 -112 77 -20 -8
-27 -19 -34 -58 l-9 -48 -101 -7 c-77 -5 -127 -15 -205 -42 -57 -19 -157 -43
-222 -54 -64 -11 -127 -27 -140 -35 -37 -25 -98 -156 -107 -233 -8 -64 -11
-70 -64 -123 -55 -55 -56 -55 -88 -42 -61 25 -203 61 -247 63 -40 1 -47 -2
-70 -32 -14 -19 -36 -45 -47 -59 l-21 -25 -33 28 c-41 34 -183 106 -209 106
-11 0 -22 3 -24 8 -8 16 11 203 28 268 16 61 26 77 84 139 52 55 78 94 121
185 49 103 55 122 55 181 0 88 -13 103 -78 95 -42 -6 -52 -4 -77 17 l-29 25
59 11 c67 13 90 36 90 87 0 66 -53 93 -182 94 l-67 0 -72 81 c-65 74 -119 167
-119 204 0 26 47 29 91 6 23 -12 44 -19 47 -16 7 7 32 73 38 100 3 12 -8 39
-26 65 -17 25 -40 60 -51 78 -12 17 -25 32 -29 32 -4 0 -30 19 -56 43 -27 24
-57 46 -67 50 -28 10 -32 36 -8 53 27 19 47 58 57 109 4 22 15 50 24 63 42 53
-7 88 -108 77 -53 -6 -63 -4 -69 11 -4 12 4 27 30 50 l37 34 -26 67 c-13 38
-33 79 -44 93 l-19 25 -48 -19 c-26 -10 -65 -21 -86 -23 -36 -5 -38 -4 -35 18
3 22 36 49 114 95 27 16 25 100 -4 141 -11 16 -23 40 -27 54 -3 14 -17 38 -29
54 l-24 29 -44 -34 c-25 -19 -55 -49 -67 -67 -24 -37 -68 -45 -96 -17 -30 30
1 96 51 108 13 4 48 22 78 41 49 31 54 38 59 80 8 58 -9 141 -35 167 -21 21
-38 20 -95 -3 -42 -17 -60 -1 -74 62 -12 55 -41 119 -54 119 -6 0 -18 -15 -28
-32z m152 -282 c15 -18 3 -46 -20 -46 -22 0 -34 22 -25 45 7 19 30 19 45 1z
m-454 -416 c-10 -11 -20 -18 -23 -15 -3 3 3 14 13 25 10 11 20 18 23 15 3 -3
-3 -14 -13 -25z m135 -54 c0 -11 -46 -36 -66 -36 -9 0 -3 27 8 38 17 17 58 15
58 -2z m524 -322 c3 -7 -5 -26 -18 -41 -13 -16 -28 -38 -35 -50 -26 -49 -75
-14 -69 49 3 26 10 33 48 48 47 19 65 17 74 -6z m-794 -488 c6 -8 10 -25 8
-38 -2 -19 -12 -24 -53 -31 -61 -10 -95 3 -95 36 0 13 5 28 12 35 17 17 113
15 128 -2z m880 -196 c46 -46 3 -135 -72 -147 -70 -11 -88 42 -32 94 13 12 24
29 24 37 0 16 26 35 48 36 6 0 21 -9 32 -20z m-834 -206 c-11 -40 -53 -102
-76 -109 -62 -20 -96 31 -40 60 17 9 30 22 30 30 0 16 46 44 74 45 15 0 17 -5
12 -26z m1120 -119 c52 -59 48 -69 -30 -65 -31 1 -45 -4 -72 -31 -30 -29 -36
-31 -56 -20 -28 15 -88 68 -88 78 0 4 17 25 38 46 37 39 37 39 106 35 66 -4
71 -6 102 -43z m-422 -164 c33 -6 55 -16 67 -32 21 -27 45 -96 37 -105 -3 -3
-23 2 -43 10 -52 22 -88 20 -144 -9 -41 -20 -51 -22 -60 -11 -7 9 -8 22 -3 37
5 13 12 45 16 72 7 46 8 47 44 46 20 0 59 -4 86 -8z m-520 -193 c20 -29 20
-91 0 -133 -16 -34 -125 -145 -142 -145 -4 0 -18 11 -31 23 -21 23 -21 26 -7
79 19 72 36 104 84 156 44 47 73 53 96 20z m-663 -68 c42 -23 11 -120 -39
-120 -28 0 -42 21 -42 61 0 58 35 83 81 59z m2889 -498 c0 -13 -12 -22 -22
-16 -10 6 -1 24 13 24 5 0 9 -4 9 -8z m-2215 -136 c8 -62 -7 -99 -56 -140 -35
-30 -62 -42 -199 -93 -52 -19 -113 -41 -134 -49 -58 -22 -77 -16 -93 33 -9 25
-31 57 -55 78 l-40 37 28 28 c27 26 189 105 241 117 15 3 25 -1 32 -16 22 -40
126 -24 208 33 26 18 51 31 55 29 4 -2 10 -27 13 -57z m1040 -80 c22 -13 51
-27 65 -31 40 -13 100 -56 100 -73 0 -26 -32 -52 -64 -52 -17 0 -49 11 -71 25
-99 60 -117 67 -140 57 -13 -6 -39 -37 -59 -70 -21 -36 -45 -62 -59 -66 -38
-10 -127 -7 -127 5 0 12 41 85 82 146 60 89 177 114 273 59z m-2015 -149 c0
-14 -20 -37 -32 -37 -12 0 -10 24 4 38 16 16 28 15 28 -1z m971 -59 c1 -2 5
-68 9 -148 3 -80 10 -153 15 -164 7 -16 6 -17 -14 -7 -12 7 -35 37 -52 67 -18
30 -43 63 -57 72 -22 14 -26 14 -36 1 -25 -35 -108 -56 -161 -41 -22 6 -31 16
-38 41 -5 19 -4 38 0 42 5 5 38 16 74 24 99 22 162 48 205 83 34 28 51 37 55
30z m449 -143 c0 -10 -90 -185 -95 -185 -3 0 -5 43 -5 95 l0 95 50 0 c28 0 50
-2 50 -5z m999 -96 c58 -62 49 -118 -25 -150 -62 -28 -74 -21 -74 41 0 57 12
86 44 112 27 22 31 22 55 -3z m-2423 -77 c-8 -16 -22 -32 -31 -35 -23 -9 -19
25 6 57 28 36 47 20 25 -22z m962 -198 c14 -10 22 -26 22 -44 0 -25 -9 -34
-67 -68 -134 -78 -130 -77 -158 -46 -14 15 -25 35 -25 44 0 24 63 77 124 106
60 28 74 29 104 8z m1193 -114 c43 -24 7 -90 -40 -75 -36 11 -38 69 -3 78 9 3
18 5 20 6 2 0 12 -4 23 -9z m894 -230 c0 -34 -1 -35 -41 -38 -52 -4 -73 16
-55 54 10 22 16 25 54 22 41 -3 42 -4 42 -38z m-1403 -174 c36 -13 80 -33 96
-45 46 -32 114 -59 198 -76 97 -20 117 -30 77 -38 -19 -4 -65 -38 -122 -92
-50 -47 -102 -90 -116 -95 -35 -13 -103 10 -210 71 -167 96 -244 169 -216 203
15 18 103 68 146 84 46 16 74 14 147 -12z m-834 -102 c32 -22 28 -41 -24 -96
-25 -27 -43 -55 -41 -62 4 -9 -30 -30 -101 -64 -141 -68 -147 -69 -213 -36
-72 36 -87 50 -99 96 -12 43 -23 46 -65 18 -37 -24 -63 -25 -87 -3 -28 26 -22
45 35 101 l52 52 225 3 c124 1 241 3 260 5 20 1 46 -5 58 -14z m152 -148 c0
-43 0 -43 -55 -63 -54 -20 -70 -18 -41 6 8 7 18 26 21 42 4 18 17 35 31 41 13
6 24 15 24 20 0 5 5 6 10 3 6 -3 10 -26 10 -49z m-1610 -46 c0 -11 -4 -20 -10
-20 -5 0 -10 9 -10 20 0 11 5 20 10 20 6 0 10 -9 10 -20z m448 -28 c6 -43 -45
-71 -76 -40 -30 30 -4 71 43 66 23 -2 31 -9 33 -26z m2735 -67 c37 -15 63 -48
52 -65 -4 -6 -23 -18 -43 -27 -20 -9 -40 -18 -43 -20 -4 -2 -18 19 -33 46
l-26 50 22 16 c27 18 27 18 71 0z m-1621 -152 c21 -19 24 -80 7 -218 -11 -95
-49 -194 -90 -231 -19 -17 -21 -18 -30 -1 -6 9 -16 17 -23 17 -7 0 -31 14 -54
32 -57 44 -56 71 3 138 65 73 72 88 85 162 18 101 58 141 102 101z m2168 -162
c0 -13 -41 -41 -51 -36 -4 3 -5 14 -2 25 5 20 53 30 53 11z m-73 -17 c-3 -3
-12 -4 -19 -1 -8 3 -5 6 6 6 11 1 17 -2 13 -5z m-1579 -453 c42 -21 142 -68
222 -104 80 -36 212 -97 294 -136 83 -40 188 -85 234 -102 120 -42 418 -127
506 -143 41 -8 96 -26 123 -39 26 -13 93 -39 148 -57 118 -37 178 -66 242
-115 25 -19 49 -35 53 -35 5 0 22 -12 39 -27 25 -22 31 -35 31 -68 0 -22 7
-50 15 -62 19 -27 45 -127 45 -174 0 -58 -41 -62 -90 -9 -18 19 -56 37 -130
60 -58 19 -108 37 -112 40 -3 3 -11 47 -18 99 -6 51 -15 101 -20 111 -10 20
-45 35 -108 49 -24 5 -66 27 -96 50 -29 23 -58 41 -63 41 -6 0 -16 7 -23 15
-21 25 -74 17 -183 -30 -109 -46 -208 -75 -264 -75 -23 0 -45 -12 -79 -41 -33
-28 -53 -39 -68 -35 -12 2 -42 8 -68 11 -26 4 -53 14 -61 24 -21 24 -65 168
-70 234 -3 32 -14 72 -24 90 -36 62 -154 125 -269 142 l-41 6 -31 -54 c-30
-54 -41 -61 -124 -87 -44 -13 -68 -57 -68 -125 0 -25 -5 -55 -10 -66 -13 -24
-45 -25 -55 -1 -23 56 -19 587 5 632 15 28 29 26 118 -19z m-2320 -399 c-4
-22 -46 -28 -54 -8 -4 9 -1 23 6 31 16 19 53 1 48 -23z m-683 -22 c12 -20 -7
-112 -27 -132 -28 -28 -82 -21 -86 11 -5 31 3 59 28 99 15 24 27 32 49 32 17
0 33 -5 36 -10z m738 -121 c140 -54 139 -71 -6 -118 -114 -36 -151 -35 -170 6
-9 19 -7 29 11 53 12 16 22 43 22 60 0 27 3 30 30 30 17 0 68 -14 113 -31z
m2601 0 c20 -16 26 -29 26 -57 -1 -42 -11 -58 -58 -91 -68 -47 -130 -43 -158
11 -18 35 -11 63 25 102 51 56 120 71 165 35z m1813 -145 c130 -55 187 -103
181 -152 -4 -35 -53 -45 -63 -13 -10 31 -67 71 -125 86 -61 16 -80 30 -80 60
0 40 25 45 87 19z m293 -159 c18 -21 5 -47 -22 -43 -26 3 -37 36 -16 49 18 12
24 11 38 -6z m-2489 -229 c30 -25 80 -54 111 -66 92 -34 158 -123 158 -214 0
-26 -2 -28 -30 -22 -39 7 -203 82 -255 116 -55 35 -75 79 -75 163 0 59 2 67
19 67 10 0 43 -20 72 -44z m3069 31 c0 -20 -60 -97 -75 -97 -11 0 -12 6 -4 29
18 52 79 104 79 68z m-4657 -27 c31 -12 57 -27 57 -33 -1 -16 -111 -89 -193
-127 -51 -24 -76 -31 -100 -26 -18 3 -70 11 -116 16 -47 6 -87 13 -90 16 -3 3
10 18 29 32 19 15 49 41 66 58 87 89 217 113 347 64z m2836 -20 c28 -5 63 -18
76 -27 27 -20 43 -59 29 -73 -11 -11 -164 -38 -259 -47 -80 -6 -105 7 -105 55
0 79 114 120 259 92z m-1799 -77 c0 -120 -68 -232 -255 -419 l-101 -101 -100
-31 c-147 -46 -189 -55 -231 -50 -37 5 -118 35 -177 66 -15 8 -51 15 -80 16
-50 1 -51 0 -70 -37 -27 -57 -47 -65 -181 -73 -104 -6 -128 -10 -182 -36 l-63
-30 -102 26 c-57 14 -116 26 -133 26 -60 0 -60 14 1 69 32 29 67 56 78 60 12
4 62 3 111 -2 75 -8 96 -7 128 6 53 22 47 50 -17 82 -13 7 -21 20 -21 35 0 21
6 26 40 33 107 23 213 63 274 105 78 53 150 80 240 87 97 9 208 34 221 51 7 7
19 14 26 14 8 0 22 4 32 9 38 20 143 41 247 51 138 12 201 30 251 74 57 51 64
48 64 -31z m586 -272 c38 -16 104 -43 147 -61 l77 -32 0 -61 c0 -34 5 -79 11
-100 13 -49 68 -110 130 -143 49 -27 69 -58 51 -76 -18 -18 -75 0 -168 54 -49
29 -141 79 -204 112 -106 56 -117 65 -138 107 -27 56 -41 174 -23 207 15 29
35 28 117 -7z m1932 -203 c25 -25 29 -46 8 -54 -19 -7 -106 44 -106 61 0 31
61 27 98 -7z m-650 -22 c73 -20 96 -37 110 -83 6 -21 25 -52 42 -68 27 -26 39
-29 118 -35 51 -4 97 -12 109 -21 50 -35 103 -91 103 -108 0 -49 -156 -212
-217 -227 -41 -11 -210 4 -303 26 -106 25 -378 105 -387 114 -4 4 13 27 39 52
l45 46 32 -16 c35 -18 146 -59 227 -83 69 -21 118 -11 161 32 28 28 33 40 33
82 -1 63 -27 119 -79 168 -24 22 -51 51 -61 65 -16 23 -35 70 -28 70 2 0 27
-7 56 -14z m-1852 -58 c-3 -29 -6 -97 -6 -151 l0 -98 -62 -29 c-35 -15 -133
-50 -219 -78 -85 -27 -169 -57 -187 -66 -17 -9 -40 -16 -52 -16 -11 0 -23 -7
-26 -15 -4 -8 -14 -15 -23 -15 -10 0 -39 -7 -65 -16 -95 -33 -68 8 44 67 59
30 99 62 166 131 49 49 139 125 199 168 61 44 135 99 165 124 30 24 59 45 64
45 5 1 6 -23 2 -51z m1617 -30 c37 -19 16 -29 -60 -26 -71 3 -78 5 -81 25 -3
20 0 21 60 16 35 -3 71 -10 81 -15z m1139 -5 c26 -23 23 -30 -22 -53 -51 -26
-60 -25 -60 6 0 58 42 83 82 47z m-1454 -80 c-5 -44 -28 -40 -28 5 0 21 3 42
7 46 11 11 25 -22 21 -51z m1718 15 c9 -14 -27 -41 -38 -30 -12 12 1 42 17 42
8 0 17 -5 21 -12z m-3627 -135 c14 -26 -16 -70 -66 -94 -24 -11 -45 -25 -49
-30 -3 -5 -16 -9 -30 -9 -19 0 -24 5 -24 25 0 28 12 41 85 89 58 40 71 42 84
19z m1266 -88 c79 -39 314 -131 420 -165 39 -13 138 -47 220 -77 83 -30 206
-70 275 -88 127 -34 233 -75 245 -95 9 -15 -13 -40 -36 -40 -11 0 -28 -9 -39
-20 -17 -17 -20 -31 -18 -77 3 -55 4 -57 35 -65 54 -14 76 -77 52 -147 -19
-53 3 -65 110 -66 83 0 92 2 133 30 l43 31 0 72 c0 92 15 109 93 104 15 -1 28
-13 38 -36 16 -32 19 -34 83 -38 78 -6 111 -23 111 -57 0 -14 -27 -83 -61
-154 -33 -71 -61 -142 -61 -158 -1 -24 -7 -30 -37 -40 -20 -7 -55 -29 -78 -50
-24 -22 -51 -39 -61 -39 -10 0 -24 -6 -30 -12 -18 -18 -130 -16 -167 2 -18 10
-40 34 -55 64 -39 77 -83 106 -175 117 -43 4 -92 13 -109 18 -17 5 -53 12 -81
16 -45 5 -101 20 -176 47 -35 12 -60 49 -99 141 -28 67 -36 78 -73 96 -23 11
-78 25 -122 31 -44 7 -100 20 -125 30 -25 9 -70 23 -100 30 -30 7 -101 25
-157 41 -57 15 -129 31 -162 35 l-59 6 -6 47 c-4 25 -9 90 -13 144 -6 93 -5
97 15 97 23 0 51 -22 167 -128 44 -41 110 -93 146 -117 76 -51 204 -105 248
-105 31 0 31 0 31 54 0 31 -5 58 -12 63 -7 6 -44 20 -83 33 -98 31 -127 51
-235 156 -63 61 -123 109 -180 141 -81 47 -85 51 -93 92 -10 51 -3 61 50 72
58 12 111 1 188 -36z m-1877 -113 c3 -16 -5 -26 -29 -40 -18 -9 -56 -40 -84
-69 -36 -36 -64 -54 -95 -63 -25 -7 -49 -16 -55 -20 -5 -4 -38 -15 -72 -24
-35 -8 -81 -25 -103 -36 -21 -11 -48 -20 -59 -20 -21 0 -33 22 -24 45 7 21 87
61 149 76 27 6 58 20 69 29 11 10 33 24 49 31 16 8 33 22 38 32 4 9 12 25 16
35 10 19 120 52 167 49 23 -2 31 -7 33 -25z m1220 -114 c22 -28 27 -99 17
-254 l-7 -111 -126 -5 c-117 -5 -135 -8 -220 -42 -52 -20 -131 -57 -176 -81
-48 -26 -113 -52 -156 -61 -96 -22 -118 -37 -146 -101 -18 -39 -41 -67 -96
-113 -40 -33 -83 -63 -94 -66 -12 -3 -55 6 -95 21 -89 31 -268 47 -294 25 -8
-7 -30 -20 -47 -29 -45 -22 -108 -108 -108 -147 0 -34 46 -106 80 -124 32 -17
28 -79 -7 -111 -76 -68 -134 -88 -296 -99 -71 -5 -138 -12 -150 -16 -26 -8
-67 -43 -67 -58 0 -6 -5 -28 -11 -48 -8 -30 -15 -38 -33 -38 -13 0 -30 7 -37
17 -8 9 -33 25 -56 35 -61 27 -77 63 -78 166 l0 83 240 238 c295 291 329 319
417 329 72 9 119 33 216 111 82 65 188 106 343 132 163 27 285 76 322 130 18
25 182 97 302 134 50 14 135 42 190 61 106 36 156 42 173 22z m1957 -38 c43
-13 83 -18 103 -15 44 8 72 -2 72 -25 0 -28 -30 -40 -96 -40 -67 0 -205 35
-236 60 -53 42 39 54 157 20z m2646 -424 c34 -55 20 -133 -28 -155 -13 -6 -49
-11 -79 -11 -45 0 -59 4 -80 25 -54 54 -10 135 91 169 49 17 73 10 96 -28z
m-8207 -49 c0 -51 -12 -67 -50 -67 -24 0 -34 17 -34 60 0 33 33 62 65 58 17
-3 20 -10 19 -51z m1776 18 c10 -12 10 -21 2 -40 -19 -42 -530 -572 -615 -638
-45 -35 -126 -67 -170 -67 -38 0 -55 -10 -70 -40 -23 -45 -59 -61 -158 -70
-52 -5 -121 -18 -153 -29 -33 -12 -68 -21 -78 -21 -31 0 -68 45 -68 83 0 45
56 97 128 121 37 13 57 26 72 51 51 82 159 85 235 5 34 -35 56 -37 130 -9 45
17 62 30 94 75 22 30 58 68 80 85 23 16 41 32 41 37 0 4 -16 20 -35 35 -19 15
-35 34 -35 42 0 21 41 45 78 45 46 0 104 28 100 49 -2 9 -21 25 -43 37 -30 15
-41 27 -43 48 -2 16 0 32 5 37 17 17 437 178 464 179 15 0 32 -7 39 -15z
m2478 -51 c40 -19 80 -46 88 -60 9 -13 23 -24 31 -24 8 0 30 -15 48 -33 26
-26 35 -45 39 -83 11 -87 27 -138 54 -172 59 -75 58 -70 26 -102 -16 -16 -33
-33 -39 -39 -45 -46 -96 -81 -119 -81 -68 0 -257 83 -304 133 -26 27 -40 141
-44 347 l-3 125 35 18 c46 24 95 16 188 -29z m462 -57 c21 -34 27 -102 10
-112 -16 -10 -39 13 -66 67 -27 52 -31 84 -11 91 19 7 46 -11 67 -46z m-1186
19 c31 -8 52 -20 57 -32 11 -27 10 -266 0 -283 -8 -12 -52 -16 -218 -22 -152
-5 -219 -11 -248 -22 -53 -21 -144 -22 -151 -2 -3 8 6 29 20 46 14 17 26 36
26 43 0 7 15 30 33 52 18 21 44 55 59 74 31 42 171 128 236 146 61 16 125 16
186 0z m3097 -135 c58 -36 85 -94 69 -149 -24 -91 -99 -127 -158 -77 -19 16
-32 36 -32 50 0 12 -13 39 -30 60 -84 106 30 194 151 116z m-4321 -211 c0 -24
-41 -53 -64 -44 -38 14 -10 64 36 64 21 0 28 -5 28 -20z m2501 -299 c58 -57
65 -91 19 -91 -49 0 -127 95 -105 129 13 21 39 10 86 -38z m-4596 13 c13 -5
45 -53 45 -68 0 -19 -37 -36 -78 -36 -60 0 -94 22 -90 58 2 21 9 28 31 30 15
2 27 8 27 13 0 10 40 12 65 3z m5634 -99 c58 -63 81 -116 81 -192 0 -65 -3
-69 -42 -54 -13 6 -44 13 -70 16 -56 7 -60 19 -22 65 21 24 25 37 20 62 -8 40
-23 58 -50 58 -50 0 -61 52 -19 86 33 26 44 22 102 -41z m-3309 15 c0 -5 -19
-24 -41 -42 -23 -18 -60 -49 -83 -69 -22 -20 -52 -42 -65 -49 -21 -11 -26 -10
-38 6 -20 27 -17 34 32 79 61 57 154 106 177 94 10 -5 18 -14 18 -19z m4385
-244 c35 -15 55 -42 55 -75 0 -21 -46 -81 -62 -81 -6 0 -26 -13 -44 -30 -40
-35 -115 -61 -122 -42 -2 7 -19 31 -38 53 -19 23 -34 50 -34 60 0 89 144 157
245 115z m-1433 -170 c58 -27 104 -63 94 -73 -3 -3 -36 -1 -73 6 -38 6 -86 12
-107 14 -48 3 -54 15 -22 50 31 33 42 33 108 3z m-5219 -237 c31 -33 34 -51
11 -73 -30 -30 -126 -8 -139 33 -13 41 35 86 80 74 11 -2 32 -18 48 -34z
m1047 -47 c28 -23 21 -54 -16 -71 -34 -15 -63 -5 -75 26 -21 55 41 86 91 45z
m5810 -42 c-18 -33 -110 -57 -110 -30 0 13 77 49 103 50 15 0 16 -3 7 -20z
m-3470 -345 c9 -11 8 -26 -5 -72 -15 -51 -28 -69 -108 -148 -109 -108 -313
-284 -342 -295 -12 -4 -27 -15 -35 -25 -7 -9 -35 -27 -60 -40 -26 -13 -61 -35
-78 -49 -16 -15 -34 -26 -40 -26 -38 0 -152 -196 -213 -369 -53 -145 -94 -181
-305 -265 -89 -35 -92 -36 -134 -21 -23 8 -55 15 -71 15 -60 0 -74 39 -74 210
0 123 1 126 36 200 20 41 58 111 86 156 28 44 62 102 76 130 14 27 49 74 78
105 30 30 68 71 86 91 33 36 92 68 223 120 41 16 167 76 280 134 l205 104 170
29 c207 34 210 35 225 16z m1995 -230 c72 -14 202 -35 290 -46 142 -18 225
-39 225 -58 0 -3 -20 -14 -45 -25 -53 -21 -85 -58 -85 -96 0 -22 11 -36 48
-63 51 -37 83 -90 64 -109 -7 -7 -19 -4 -39 9 -15 11 -47 32 -70 48 -23 15
-54 42 -68 61 -14 18 -56 56 -93 85 l-67 51 -165 -5 c-185 -6 -199 -3 -285 62
-27 21 -60 42 -73 46 -31 9 -47 42 -30 62 19 23 226 12 393 -22z m-3351 -262
c-15 -27 -42 -76 -60 -111 -17 -35 -40 -73 -52 -85 -11 -12 -30 -42 -42 -66
-25 -51 -106 -141 -126 -141 -20 0 -17 27 11 111 15 43 28 107 31 154 8 129 3
121 97 149 97 29 115 33 145 35 l24 1 -28 -47z m1916 -42 c53 -37 99 -146 72
-173 -6 -6 -36 -7 -76 -3 -57 6 -67 10 -71 29 -7 36 -13 165 -7 171 8 8 55 -6
82 -24z m-699 -150 c25 -25 29 -37 29 -82 0 -49 -3 -55 -45 -95 -72 -70 -155
-70 -180 0 -8 23 -4 37 19 82 32 61 96 124 127 124 11 0 34 -13 50 -29z m-303
-193 c7 -7 12 -24 12 -39 0 -20 -7 -30 -30 -39 -60 -25 -80 13 -33 62 30 32
34 33 51 16z m-1134 -226 c5 -34 6 -66 2 -69 -4 -4 -36 8 -72 25 -66 33 -66
33 -48 54 26 29 76 59 94 56 10 -2 18 -23 24 -66z m-1197 -58 c15 -40 -84
-134 -140 -134 -44 0 -111 40 -115 68 -3 21 0 22 73 22 73 0 78 2 103 30 29
33 69 40 79 14z m1048 -114 c8 -14 -75 -71 -100 -68 -32 5 -24 36 15 57 39 21
76 26 85 11z m758 -183 c-1 -103 -17 -137 -63 -137 -84 0 -79 144 8 209 49 37
57 26 55 -72z m-422 23 c48 -26 -13 -119 -70 -105 -25 6 -81 52 -81 66 0 11
83 49 108 49 13 0 32 -5 43 -10z"/>
</g>
</svg>
