<?xml version="1.0" standalone="no"?>
<!DOCTYPE svg PUBLIC "-//W3C//DTD SVG 20010904//EN"
 "http://www.w3.org/TR/2001/REC-SVG-20010904/DTD/svg10.dtd">
<svg version="1.0" xmlns="http://www.w3.org/2000/svg"
 width="1536.000000pt" height="892.000000pt" viewBox="0 0 1536.000000 892.000000"
 preserveAspectRatio="xMidYMid meet">
<metadata>
Created by potrace 1.16, written by Peter Selinger 2001-2019
</metadata>
<g transform="translate(0.000000,892.000000) scale(0.100000,-0.100000)"
fill="#000000" stroke="none">
<path d="M12340 8901 c-36 -10 -175 -55 -310 -100 -252 -83 -392 -122 -585
-161 -95 -20 -128 -22 -252 -17 -125 6 -151 4 -206 -13 -35 -11 -177 -49 -315
-84 -138 -36 -273 -74 -299 -86 -26 -11 -117 -60 -202 -108 -133 -75 -185
-112 -375 -271 -352 -293 -354 -295 -393 -378 -19 -40 -46 -81 -61 -91 -15
-11 -121 -72 -237 -137 -115 -66 -235 -140 -266 -165 -31 -26 -83 -56 -120
-70 -35 -13 -218 -99 -407 -191 -189 -93 -362 -175 -385 -183 -23 -7 -98 -31
-167 -51 -170 -51 -224 -80 -527 -282 -155 -102 -305 -194 -365 -222 -86 -40
-130 -71 -263 -181 -185 -153 -307 -221 -510 -285 -69 -21 -181 -68 -265 -110
-249 -126 -549 -228 -851 -290 -204 -42 -213 -45 -308 -100 -97 -55 -100 -56
-227 -71 -185 -21 -183 -20 -296 -86 -57 -33 -137 -73 -178 -90 -70 -28 -82
-30 -175 -25 -152 6 -198 -4 -410 -98 -104 -46 -228 -93 -275 -106 -130 -35
-326 -114 -415 -168 -44 -26 -188 -106 -320 -176 -132 -71 -280 -154 -330
-185 -273 -173 -568 -369 -625 -416 -36 -29 -209 -196 -386 -371 -364 -361
-361 -356 -510 -672 -46 -97 -106 -210 -133 -251 -27 -42 -65 -109 -86 -150
-21 -41 -64 -121 -96 -178 -32 -56 -65 -124 -73 -150 -8 -26 -26 -73 -41 -105
-15 -32 -28 -80 -30 -106 -1 -26 -10 -59 -18 -72 -10 -15 -23 -79 -33 -161
l-17 -137 27 -128 c15 -70 30 -136 32 -145 3 -9 40 -46 83 -81 81 -67 174
-157 250 -240 49 -53 97 -82 156 -92 22 -4 115 -49 206 -101 213 -120 399
-210 463 -224 28 -6 137 -15 243 -20 185 -8 195 -10 287 -44 150 -57 291 -90
340 -81 22 5 84 7 136 6 61 -1 136 5 210 18 111 20 122 21 335 6 197 -13 241
-13 420 1 173 14 213 20 295 47 80 27 96 36 98 55 3 16 9 21 20 18 129 -38
420 -86 518 -86 39 0 91 7 115 16 24 8 72 18 106 21 54 5 68 11 97 39 l35 34
63 -15 c111 -26 154 -16 190 44 12 20 37 54 55 75 18 22 38 57 44 78 21 79 98
87 314 33 l150 -38 100 13 c55 6 273 36 485 66 350 50 411 56 665 65 154 6
292 14 308 20 15 5 40 14 57 21 23 9 65 9 197 -2 92 -7 200 -16 238 -19 l70
-6 -117 -57 c-64 -32 -120 -58 -125 -58 -5 0 -33 -7 -62 -16 -41 -12 -57 -23
-72 -49 -11 -18 -31 -36 -46 -40 -41 -10 -110 -62 -205 -154 -83 -81 -88 -88
-88 -128 0 -32 -5 -46 -25 -61 -36 -28 -36 -95 0 -118 14 -9 36 -37 48 -63 20
-40 33 -51 98 -84 69 -36 78 -38 137 -33 42 4 123 -3 240 -20 157 -23 197 -26
357 -21 142 5 205 11 300 32 104 23 155 28 385 35 263 8 267 8 515 58 309 62
391 91 477 170 34 32 115 118 180 192 92 104 128 154 159 218 l40 82 42 -6
c23 -4 57 -13 75 -22 25 -11 53 -13 115 -9 63 4 98 1 152 -13 77 -21 281 -50
348 -50 23 0 67 11 97 23 l55 23 85 -25 c81 -23 99 -24 360 -25 151 -1 309 -5
350 -10 67 -7 84 -5 155 18 44 14 100 26 125 26 54 0 236 43 296 69 23 11 71
39 106 62 35 24 130 78 212 120 l150 76 135 -59 c123 -54 154 -63 331 -96 194
-36 196 -36 475 -37 305 0 267 -5 555 70 30 8 91 19 135 25 82 10 115 26 143
69 15 22 13 25 -55 90 -79 76 -123 96 -232 107 -41 5 -93 19 -138 40 -90 41
-354 123 -422 131 -34 4 -52 11 -55 22 -37 128 -53 176 -83 234 -35 68 -35 70
-34 194 0 175 7 208 52 273 21 30 43 75 48 100 18 82 62 472 71 630 10 178 28
290 71 445 27 100 48 210 123 680 23 142 24 161 15 370 -5 121 -12 234 -15
250 -4 17 -28 77 -54 135 -26 58 -75 171 -109 253 -33 81 -90 209 -125 285
-47 101 -67 157 -75 212 -14 91 -62 199 -114 260 -28 33 -36 49 -31 65 18 53
15 116 -11 226 -30 124 -42 154 -74 183 -27 25 -26 37 5 67 26 24 134 227 134
253 0 7 22 22 48 33 42 18 50 26 61 63 l12 42 26 -23 c55 -51 344 -362 400
-431 73 -90 229 -305 390 -538 146 -212 374 -591 549 -913 136 -251 240 -399
282 -405 58 -9 68 51 36 208 -33 158 -110 368 -268 723 -73 166 -148 337 -166
381 -109 262 -387 704 -766 1219 -70 95 -81 125 -52 143 29 18 478 -479 744
-821 250 -323 618 -864 850 -1249 106 -177 132 -209 171 -204 35 4 53 38 53
100 0 57 -46 190 -183 533 -205 514 -464 920 -1154 1813 l-235 302 13 93 c7
56 21 111 36 141 23 46 24 55 20 190 -5 168 -25 250 -86 353 -22 39 -61 114
-85 167 -75 161 -90 177 -198 218 -51 20 -120 42 -153 49 -40 8 -77 25 -110
51 -65 48 -147 84 -221 97 -33 6 -148 13 -257 16 -165 5 -205 10 -240 26 -51
23 -82 23 -167 0z"/>
</g>
</svg>
